<svg xmlns="http://www.w3.org/2000/svg" xmlns:oryx="http://oryx-editor.org" id="oryx_754F78AB-0317-403F-8BCE-F6EFB87083E5" width="1049" height="148" xmlns:xlink="http://www.w3.org/1999/xlink" xmlns:svg="http://www.w3.org/2000/svg"><defs/><g stroke="black" font-family="arial,sans-serif" font-size-adjust="none" font-style="normal" font-variant="normal" font-weight="normal" line-heigth="normal" font-size="12"><g class="stencils" transform="translate(-25, -25)"><g class="me"/><g class="children"><g id="svg-panel1"><g class="stencils" transform="translate(50, 50)"><g class="me"><g oryx:minimumSize="40 34" id="oryx_F63727DA-9001-4E96-A2D8-328585AD23C8" title="SlotPanel">     <rect id="oryx_F63727DA-9001-4E96-A2D8-328585AD23C8input" oryx:anchors="left top" oryx:resize="vertical horizontal" x="0" y="0" width="999.0000000000001" height="98" stroke="#777777" stroke-width="1" fill="#ffffff"/>   </g></g><g class="background"><g class="cellBg" display="inherit" transform="translate(11, 21)"><rect x="0" y="0" stroke-width="2" stroke="none" fill="#ffffff" pointer-events="all" width="485" height="56"/></g><g class="cellBg" display="inherit" transform="translate(11, 21)"><rect x="0" y="0" stroke-width="2" stroke="none" fill="#ffffff" pointer-events="all" width="485" height="56"/></g><g class="cellBg" display="inherit" transform="translate(11, 21)"><rect x="0" y="0" stroke-width="2" stroke="none" fill="#ffffff" pointer-events="all" width="485" height="56"/></g><g class="cellBg" display="inherit" transform="translate(503, 21)"><rect x="0" y="0" stroke-width="2" stroke="none" fill="#ffffff" pointer-events="all" width="485" height="56"/></g><g class="cellBg" display="inherit" transform="translate(503, 21)"><rect x="0" y="0" stroke-width="2" stroke="none" fill="#ffffff" pointer-events="all" width="485" height="56"/></g><g class="cellBg" display="inherit" transform="translate(503, 21)"><rect x="0" y="0" stroke-width="2" stroke="none" fill="#ffffff" pointer-events="all" width="485" height="56"/></g><g class="cellBg" display="inherit" transform="translate(503, 21)"><rect x="0" y="0" stroke-width="2" stroke="none" fill="#ffffff" pointer-events="all" width="485" height="56"/></g><g class="cellBg" display="inherit" transform="translate(503, 21)"><rect x="0" y="0" stroke-width="2" stroke="none" fill="#ffffff" pointer-events="all" width="485" height="56"/></g><g class="cellBg" display="inherit" transform="translate(503, 21)"><rect x="0" y="0" stroke-width="2" stroke="none" fill="#ffffff" pointer-events="all" width="485" height="56"/></g><g class="cellBg" display="inherit" transform="translate(11, 21)"><rect x="0" y="0" stroke-width="2" stroke="none" fill="#ffffff" pointer-events="all" width="485" height="56"/></g><g class="cellBg" display="inherit" transform="translate(11, 21)"><rect x="0" y="0" stroke-width="2" stroke="none" fill="#ffffff" pointer-events="all" width="485" height="56"/></g><g class="cellBg" display="inherit" transform="translate(11, 21)"><rect x="0" y="0" stroke-width="2" stroke="none" fill="#ffffff" pointer-events="all" width="485" height="56"/></g><g class="columnBackground split" display="none"><rect x="0" y="0" stroke="none" fill="#ffffff" pointer-events="none"/></g></g><g class="gridline"><g class="panelgridline" display="inherit"><path stroke-width="1" stroke="silver" fill="none" stroke-dasharray="4,2" pointer-events="none" d="M0 21 L 999.0000000000001 21"/></g><g class="panelgridline" display="inherit"><path stroke-width="1" stroke="silver" fill="none" stroke-dasharray="4,2" pointer-events="none" d="M0 77 L 999.0000000000001 77"/></g><g class="panelgridline" display="inherit"><path stroke-width="1" stroke="silver" fill="none" stroke-dasharray="4,2" pointer-events="none" d="M913 0 L 913 98"/></g><g class="panelgridline" display="inherit"><path stroke-width="1" stroke="silver" fill="none" stroke-dasharray="4,2" pointer-events="none" d="M988 0 L 988 98"/></g><g class="panelgridline" display="inherit"><path stroke-width="1" stroke="silver" fill="none" stroke-dasharray="4,2" pointer-events="none" d="M831 0 L 831 98"/></g><g class="panelgridline" display="inherit"><path stroke-width="1" stroke="silver" fill="none" stroke-dasharray="4,2" pointer-events="none" d="M906 0 L 906 98"/></g><g class="panelgridline" display="inherit"><path stroke-width="1" stroke="silver" fill="none" stroke-dasharray="4,2" pointer-events="none" d="M749 0 L 749 98"/></g><g class="panelgridline" display="inherit"><path stroke-width="1" stroke="silver" fill="none" stroke-dasharray="4,2" pointer-events="none" d="M824 0 L 824 98"/></g><g class="panelgridline" display="inherit"><path stroke-width="1" stroke="silver" fill="none" stroke-dasharray="4,2" pointer-events="none" d="M667 0 L 667 98"/></g><g class="panelgridline" display="inherit"><path stroke-width="1" stroke="silver" fill="none" stroke-dasharray="4,2" pointer-events="none" d="M742 0 L 742 98"/></g><g class="panelgridline" display="inherit"><path stroke-width="1" stroke="silver" fill="none" stroke-dasharray="4,2" pointer-events="none" d="M585 0 L 585 98"/></g><g class="panelgridline" display="inherit"><path stroke-width="1" stroke="silver" fill="none" stroke-dasharray="4,2" pointer-events="none" d="M660 0 L 660 98"/></g><g class="panelgridline" display="inherit"><path stroke-width="1" stroke="silver" fill="none" stroke-dasharray="4,2" pointer-events="none" d="M503 0 L 503 98"/></g><g class="panelgridline" display="inherit"><path stroke-width="1" stroke="silver" fill="none" stroke-dasharray="4,2" pointer-events="none" d="M578 0 L 578 98"/></g><g class="panelgridline" display="inherit"><path stroke-width="1" stroke="silver" fill="none" stroke-dasharray="4,2" pointer-events="none" d="M421 0 L 421 98"/></g><g class="panelgridline" display="inherit"><path stroke-width="1" stroke="silver" fill="none" stroke-dasharray="4,2" pointer-events="none" d="M496 0 L 496 98"/></g><g class="panelgridline" display="inherit"><path stroke-width="1" stroke="silver" fill="none" stroke-dasharray="4,2" pointer-events="none" d="M339 0 L 339 98"/></g><g class="panelgridline" display="inherit"><path stroke-width="1" stroke="silver" fill="none" stroke-dasharray="4,2" pointer-events="none" d="M414 0 L 414 98"/></g><g class="panelgridline" display="inherit"><path stroke-width="1" stroke="silver" fill="none" stroke-dasharray="4,2" pointer-events="none" d="M257 0 L 257 98"/></g><g class="panelgridline" display="inherit"><path stroke-width="1" stroke="silver" fill="none" stroke-dasharray="4,2" pointer-events="none" d="M332 0 L 332 98"/></g><g class="panelgridline" display="inherit"><path stroke-width="1" stroke="silver" fill="none" stroke-dasharray="4,2" pointer-events="none" d="M175 0 L 175 98"/></g><g class="panelgridline" display="inherit"><path stroke-width="1" stroke="silver" fill="none" stroke-dasharray="4,2" pointer-events="none" d="M250 0 L 250 98"/></g><g class="panelgridline" display="inherit"><path stroke-width="1" stroke="silver" fill="none" stroke-dasharray="4,2" pointer-events="none" d="M93 0 L 93 98"/></g><g class="panelgridline" display="inherit"><path stroke-width="1" stroke="silver" fill="none" stroke-dasharray="4,2" pointer-events="none" d="M168 0 L 168 98"/></g><g class="panelgridline" display="inherit"><path stroke-width="1" stroke="silver" fill="none" stroke-dasharray="4,2" pointer-events="none" d="M11 0 L 11 98"/></g><g class="panelgridline" display="inherit"><path stroke-width="1" stroke="silver" fill="none" stroke-dasharray="4,2" pointer-events="none" d="M86 0 L 86 98"/></g><g class="panelgridline" display="none"><path stroke-width="1" stroke="silver" fill="none" stroke-dasharray="4,2" pointer-events="none"/></g><g class="panelgridline" display="none"><path stroke-width="1" stroke="silver" fill="none" stroke-dasharray="4,2" pointer-events="none"/></g></g><g class="children" style="overflow:hidden"><g id="svg-date1"><g class="stencils" transform="translate(15, 25)"><g class="me"><g oryx:minimumSize="24 26" id="oryx_683AD111-19F3-402B-A8C3-63A4D0AF205D" title="cloud-date">         <defs id="oryx_683AD111-19F3-402B-A8C3-63A4D0AF205D_oryx_683AD111-19F3-402B-A8C3-63A4D0AF205D_2">       <marker id="oryx_683AD111-19F3-402B-A8C3-63A4D0AF205Dcalendar_marker" refX="25" refY="0" markerWidth="24" markerHeight="24">         <path d="M1,32 1,0  M7,32 7,0  M13,32 13,0  M19,32 19,0 Z  M1,5 25,5 Z M1,10 25,10 Z  M1,15 25,15 Z M1,20 25,20 Z M1,25 25,25 Z" oryx:anchors="left top" fill="black" id="oryx_683AD111-19F3-402B-A8C3-63A4D0AF205D_oryx_683AD111-19F3-402B-A8C3-63A4D0AF205D_3"/>    </marker>    <radialGradient id="oryx_683AD111-19F3-402B-A8C3-63A4D0AF205Dtransparent" cx="10%" cy="10%" r="100%" fx="10%" fy="10%">     <stop offset="0%" stop-color="#ffffff" stop-opacity="0" id="oryx_683AD111-19F3-402B-A8C3-63A4D0AF205D_oryx_683AD111-19F3-402B-A8C3-63A4D0AF205D_4"/>     <stop offset="100%" stop-color="#ffffff" stop-opacity="0" id="oryx_683AD111-19F3-402B-A8C3-63A4D0AF205D_oryx_683AD111-19F3-402B-A8C3-63A4D0AF205D_5"/>       </radialGradient>      </defs>    <rect id="oryx_683AD111-19F3-402B-A8C3-63A4D0AF205Dbg_frame" oryx:anchors="left top" x="0" y="0" width="477" height="48" stroke="none" fill="url(#oryx_683AD111-19F3-402B-A8C3-63A4D0AF205Dtransparent)" class="transparent"/>     <g id="oryx_683AD111-19F3-402B-A8C3-63A4D0AF205Da">    <rect id="oryx_683AD111-19F3-402B-A8C3-63A4D0AF205Dlabel" oryx:anchors="left top" x="0" y="0" width="472" height="24" stroke="none" fill="url(#oryx_683AD111-19F3-402B-A8C3-63A4D0AF205Dtransparent)" class="transparent"/>    <text id="oryx_683AD111-19F3-402B-A8C3-63A4D0AF205Dlabel_text" oryx:anchors="left top" oryx:align="middle left" font-size="11" x="5" y="12" stroke="black" stroke-width="0pt" letter-spacing="0.004129575103333278px" oryx:fontSize="11" transform="rotate(0 5 12)" text-anchor="start"><tspan dy="4" x="5" y="12">Date of birth</tspan></text>     </g>      <g id="oryx_683AD111-19F3-402B-A8C3-63A4D0AF205Db" stroke="#000000">    <path id="oryx_683AD111-19F3-402B-A8C3-63A4D0AF205Dinput" oryx:anchors="left top" d=" M476.9999999999999 24  L476.9999999999999 48  L0 48  L0 24  L476.9999999999999 24  z M476.9999999999999 24 " marker-end="url(#oryx_683AD111-19F3-402B-A8C3-63A4D0AF205Dcalendar_marker)" fill="none" style="opacity:0.9999;"/>          <text id="oryx_683AD111-19F3-402B-A8C3-63A4D0AF205Dinput_text" oryx:anchors="left top" oryx:align="middle left" font-size="11" x="5" y="36" stroke="black" fill="gray" font-style="italic" stroke-width="0pt" letter-spacing="0.002174202906310158px" oryx:fontSize="11" transform="rotate(0 5 36)" text-anchor="start"><tspan dy="4" x="5" y="36">{{dateOfBirth}}</tspan></text>   </g>        <g id="oryx_683AD111-19F3-402B-A8C3-63A4D0AF205Dc" transform="translate(1,8)">    <path id="oryx_683AD111-19F3-402B-A8C3-63A4D0AF205Dmandatory_Indicator" oryx:anchors="middle left" d=" m14.30275 17.553035  l-2.49912 0  l-0.77223 2.37422  l-0.77227 -2.37422  l-2.49912 0  l2.02183 -1.46721  l-0.77229 -2.37417  l2.02184 1.46732  l2.02183 -1.46732  l-0.77232 2.37417  l2.02184 1.46721  z" stroke="#ff0000" fill="#ff0000" display="none" style="cursor:pointer" original-stroke="#ff0000" original-fill="#ff0000"/>   </g>       <g id="oryx_683AD111-19F3-402B-A8C3-63A4D0AF205Dd">    <path id="oryx_683AD111-19F3-402B-A8C3-63A4D0AF205Dfeedback_Indicator" oryx:anchors="left top" d="M300,15 320,15 310,0 Z M310 4 L310 10 Z M310 11 L310 13 Z" stroke="black" fill="#ff0000" display="none"/>   </g>       <g id="oryx_683AD111-19F3-402B-A8C3-63A4D0AF205De">    <rect id="oryx_683AD111-19F3-402B-A8C3-63A4D0AF205Ddesc" oryx:anchors="left top" stroke="none" fill="url(#oryx_683AD111-19F3-402B-A8C3-63A4D0AF205Dtransparent)" x="0" y="0" height="24" width="477" display="none" class="transparent"/>    <text id="oryx_683AD111-19F3-402B-A8C3-63A4D0AF205Ddesc_text" oryx:anchors="left top" oryx:align="middle left" font-size="11" x="0" y="12" stroke="black" fill="gray" font-style="italic" display="none" stroke-width="0pt" letter-spacing="0.008768179953331557px" oryx:fontSize="11" transform="rotate(0 0 12)" text-anchor="start"/>   </g>    </g></g><g class="children" style="overflow:hidden"/><g class="edge"/><path id="warningId-oryx_683AD111-19F3-402B-A8C3-63A4D0AF205D" class="validationError" title="" stroke-width="1" stroke="red" fill="white" d="M5,-5 L20,-5 L12,-20 z M12,-15 L12,-10 M12,-9 L12,-7" line-captions="round" style="cursor:pointer" data-html="true" display="none"/></g><g class="controls"><g class="dockers"/><g class="magnets" transform="translate(15, 25)"><g pointer-events="all" display="none" transform="translate(560.8224999999999, 16)"><circle cx="8" cy="8" r="4" stroke="none" fill="red" fill-opacity="0.3"/></g></g></g></g><g id="svg-text1"><g class="stencils" transform="translate(507, 25)"><g class="me"><g oryx:minimumSize="20 26" id="oryx_9AF35D38-00EE-4940-94AA-416E18F545C5" title="cloud-text">   <defs id="oryx_9AF35D38-00EE-4940-94AA-416E18F545C5_oryx_9AF35D38-00EE-4940-94AA-416E18F545C5_2">           <radialGradient id="oryx_9AF35D38-00EE-4940-94AA-416E18F545C5transparent" cx="10%" cy="10%" r="100%" fx="10%" fy="10%">     <stop offset="0%" stop-color="#ffffff" stop-opacity="0" id="oryx_9AF35D38-00EE-4940-94AA-416E18F545C5_oryx_9AF35D38-00EE-4940-94AA-416E18F545C5_3"/>     <stop offset="100%" stop-color="#ffffff" stop-opacity="0" id="oryx_9AF35D38-00EE-4940-94AA-416E18F545C5_oryx_9AF35D38-00EE-4940-94AA-416E18F545C5_4"/>      </radialGradient>     </defs>     <rect id="oryx_9AF35D38-00EE-4940-94AA-416E18F545C5bg_frame" oryx:anchors="left top" x="0" y="0" width="477" height="48" stroke="none" fill="url(#oryx_9AF35D38-00EE-4940-94AA-416E18F545C5transparent)" class="transparent"/>    <g id="oryx_9AF35D38-00EE-4940-94AA-416E18F545C5a">    <rect id="oryx_9AF35D38-00EE-4940-94AA-416E18F545C5label" oryx:anchors="left top" x="0" y="0" width="472" height="24" stroke="none" fill="url(#oryx_9AF35D38-00EE-4940-94AA-416E18F545C5transparent)" class="transparent"/>    <text id="oryx_9AF35D38-00EE-4940-94AA-416E18F545C5label_text" oryx:anchors="left top" font-size="11" x="5" y="12" oryx:align="middle left" stroke="black" stroke-width="0pt" letter-spacing="0.007066214864115941px" oryx:fontSize="11" transform="rotate(0 5 12)" text-anchor="start"><tspan dy="4" x="5" y="12">City</tspan></text>   </g>      <g id="oryx_9AF35D38-00EE-4940-94AA-416E18F545C5b" stroke="#000000">    <rect id="oryx_9AF35D38-00EE-4940-94AA-416E18F545C5input" oryx:anchors="left top" style="fill:white;" x="0" y="24" height="24" width="477"/>    <text id="oryx_9AF35D38-00EE-4940-94AA-416E18F545C5input_text" oryx:anchors="left top" oryx:align="middle left" font-size="11" x="5" y="36" stroke="black" fill="gray" font-style="italic" stroke-width="0pt" letter-spacing="0.00501292792223499px" oryx:fontSize="11" transform="rotate(0 5 36)" text-anchor="start"><tspan dy="4" x="5" y="36">{{city}}</tspan></text>   </g>        <g id="oryx_9AF35D38-00EE-4940-94AA-416E18F545C5c" transform="translate(1,8)">    <path id="oryx_9AF35D38-00EE-4940-94AA-416E18F545C5mandatory_Indicator" oryx:anchors="middle left" d=" m14.30275 21.434447692307693  l-2.49912 0  l-0.77223 2.37422  l-0.77227 -2.37422  l-2.49912 0  l2.02183 -1.46721  l-0.77229 -2.37417  l2.02184 1.46732  l2.02183 -1.46732  l-0.77232 2.37417  l2.02184 1.46721  z" stroke="#ff0000" fill="#ff0000" display="none" style="cursor:pointer" original-stroke="#ff0000" original-fill="#ff0000"/>   </g>    <g id="oryx_9AF35D38-00EE-4940-94AA-416E18F545C5d">    <path id="oryx_9AF35D38-00EE-4940-94AA-416E18F545C5feedback_Indicator" oryx:anchors="left top" d="M300,15 320,15 310,0 Z M310 4 L310 10 Z M310 11 L310 13 Z" stroke="black" fill="#ff0000" display="none"/>   </g>      <g id="oryx_9AF35D38-00EE-4940-94AA-416E18F545C5e">    <rect id="oryx_9AF35D38-00EE-4940-94AA-416E18F545C5desc" oryx:anchors="left top" stroke="none" fill="url(#oryx_9AF35D38-00EE-4940-94AA-416E18F545C5transparent)" x="0" y="0" height="24" width="477" display="none" class="transparent"/>    <text id="oryx_9AF35D38-00EE-4940-94AA-416E18F545C5desc_text" oryx:anchors="left top" oryx:align="middle left" font-size="11" x="0" y="12" stroke="black" fill="gray" font-style="italic" display="none" stroke-width="0pt" letter-spacing="0.001604031932454554px" oryx:fontSize="11" transform="rotate(0 0 12)" text-anchor="start"/>   </g>     </g></g><g class="children" style="overflow:hidden"/><g class="edge"/><path id="warningId-oryx_9AF35D38-00EE-4940-94AA-416E18F545C5" class="validationError" title="" stroke-width="1" stroke="red" fill="white" d="M5,-5 L20,-5 L12,-20 z M12,-15 L12,-10 M12,-9 L12,-7" line-captions="round" style="cursor:pointer" data-html="true" display="none"/></g><g class="controls"><g class="dockers"/><g class="magnets" transform="translate(507, 25)"><g pointer-events="all" display="none" transform="translate(230.49999999999991, 16)"><circle cx="8" cy="8" r="4" stroke="none" fill="red" fill-opacity="0.3"/></g></g></g></g></g><g class="edge"/><g class="panelcell" display="none" transform="translate(503, 21)"><rect x="0" y="0" stroke-width="2" stroke="#FF0000" fill="none" pointer-events="none" width="485" height="56"/></g><path id="warningId-oryx_F63727DA-9001-4E96-A2D8-328585AD23C8" class="validationError" title="" stroke-width="1" stroke="red" fill="white" d="M5,-5 L20,-5 L12,-20 z M12,-15 L12,-10 M12,-9 L12,-7" line-captions="round" style="cursor:pointer" data-html="true" display="none"/></g><g class="controls"><g class="dockers"/><g class="magnets" transform="translate(50, 50)"><g pointer-events="all" display="none" transform="translate(491.50000000000017, 41)"><circle cx="8" cy="8" r="4" stroke="none" fill="red" fill-opacity="0.3"/></g></g></g></g></g><g class="edge"/></g></g></svg>