<svg xmlns="http://www.w3.org/2000/svg" xmlns:oryx="http://oryx-editor.org" id="oryx_F4AA3750-7A41-421D-939A-4A12B5677E25" width="1049" height="172" xmlns:xlink="http://www.w3.org/1999/xlink" xmlns:svg="http://www.w3.org/2000/svg"><defs/><g stroke="black" font-family="arial,sans-serif" font-size-adjust="none" font-style="normal" font-variant="normal" font-weight="normal" line-heigth="normal" font-size="12"><g class="stencils" transform="translate(-25, -25)"><g class="me"/><g class="children"><g id="svg-panel1"><g class="stencils" transform="translate(50, 50)"><g class="me"><g oryx:minimumSize="40 34" id="oryx_07B2C899-BBB0-438A-AFCA-D47E915FCB64" title="SlotPanel">     <rect id="oryx_07B2C899-BBB0-438A-AFCA-D47E915FCB64input" oryx:anchors="left top" oryx:resize="vertical horizontal" x="0" y="0" width="999.0000000000001" height="122" stroke="#777777" stroke-width="1" fill="#ffffff"/>   </g></g><g class="background"><g class="cellBg" display="inherit" transform="translate(11, 21)"><rect x="0" y="0" stroke-width="2" stroke="none" fill="#ffffff" pointer-events="all" width="977" height="80"/></g><g class="cellBg" display="inherit" transform="translate(11, 21)"><rect x="0" y="0" stroke-width="2" stroke="none" fill="#ffffff" pointer-events="all" width="977" height="80"/></g><g class="cellBg" display="inherit" transform="translate(11, 21)"><rect x="0" y="0" stroke-width="2" stroke="none" fill="#ffffff" pointer-events="all" width="977" height="80"/></g><g class="cellBg" display="inherit" transform="translate(11, 21)"><rect x="0" y="0" stroke-width="2" stroke="none" fill="#ffffff" pointer-events="all" width="977" height="80"/></g><g class="cellBg" display="inherit" transform="translate(11, 21)"><rect x="0" y="0" stroke-width="2" stroke="none" fill="#ffffff" pointer-events="all" width="977" height="80"/></g><g class="cellBg" display="inherit" transform="translate(11, 21)"><rect x="0" y="0" stroke-width="2" stroke="none" fill="#ffffff" pointer-events="all" width="977" height="80"/></g><g class="cellBg" display="inherit" transform="translate(11, 21)"><rect x="0" y="0" stroke-width="2" stroke="none" fill="#ffffff" pointer-events="all" width="977" height="80"/></g><g class="cellBg" display="inherit" transform="translate(11, 21)"><rect x="0" y="0" stroke-width="2" stroke="none" fill="#ffffff" pointer-events="all" width="977" height="80"/></g><g class="cellBg" display="inherit" transform="translate(11, 21)"><rect x="0" y="0" stroke-width="2" stroke="none" fill="#ffffff" pointer-events="all" width="977" height="80"/></g><g class="cellBg" display="inherit" transform="translate(11, 21)"><rect x="0" y="0" stroke-width="2" stroke="none" fill="#ffffff" pointer-events="all" width="977" height="80"/></g><g class="cellBg" display="inherit" transform="translate(11, 21)"><rect x="0" y="0" stroke-width="2" stroke="none" fill="#ffffff" pointer-events="all" width="977" height="80"/></g><g class="cellBg" display="inherit" transform="translate(11, 21)"><rect x="0" y="0" stroke-width="2" stroke="none" fill="#ffffff" pointer-events="all" width="977" height="80"/></g><g class="columnBackground split" display="none"><rect x="0" y="0" stroke="none" fill="#ffffff" pointer-events="none"/></g></g><g class="gridline"><g class="panelgridline" display="inherit"><path stroke-width="1" stroke="silver" fill="none" stroke-dasharray="4,2" pointer-events="none" d="M0 21 L 999.0000000000001 21"/></g><g class="panelgridline" display="inherit"><path stroke-width="1" stroke="silver" fill="none" stroke-dasharray="4,2" pointer-events="none" d="M0 101 L 999.0000000000001 101"/></g><g class="panelgridline" display="inherit"><path stroke-width="1" stroke="silver" fill="none" stroke-dasharray="4,2" pointer-events="none" d="M11 0 L 11 122"/></g><g class="panelgridline" display="inherit"><path stroke-width="1" stroke="silver" fill="none" stroke-dasharray="4,2" pointer-events="none" d="M86 0 L 86 122"/></g><g class="panelgridline" display="inherit"><path stroke-width="1" stroke="silver" fill="none" stroke-dasharray="4,2" pointer-events="none" d="M93 0 L 93 122"/></g><g class="panelgridline" display="inherit"><path stroke-width="1" stroke="silver" fill="none" stroke-dasharray="4,2" pointer-events="none" d="M168 0 L 168 122"/></g><g class="panelgridline" display="inherit"><path stroke-width="1" stroke="silver" fill="none" stroke-dasharray="4,2" pointer-events="none" d="M175 0 L 175 122"/></g><g class="panelgridline" display="inherit"><path stroke-width="1" stroke="silver" fill="none" stroke-dasharray="4,2" pointer-events="none" d="M250 0 L 250 122"/></g><g class="panelgridline" display="inherit"><path stroke-width="1" stroke="silver" fill="none" stroke-dasharray="4,2" pointer-events="none" d="M257 0 L 257 122"/></g><g class="panelgridline" display="inherit"><path stroke-width="1" stroke="silver" fill="none" stroke-dasharray="4,2" pointer-events="none" d="M332 0 L 332 122"/></g><g class="panelgridline" display="inherit"><path stroke-width="1" stroke="silver" fill="none" stroke-dasharray="4,2" pointer-events="none" d="M339 0 L 339 122"/></g><g class="panelgridline" display="inherit"><path stroke-width="1" stroke="silver" fill="none" stroke-dasharray="4,2" pointer-events="none" d="M414 0 L 414 122"/></g><g class="panelgridline" display="inherit"><path stroke-width="1" stroke="silver" fill="none" stroke-dasharray="4,2" pointer-events="none" d="M421 0 L 421 122"/></g><g class="panelgridline" display="inherit"><path stroke-width="1" stroke="silver" fill="none" stroke-dasharray="4,2" pointer-events="none" d="M496 0 L 496 122"/></g><g class="panelgridline" display="inherit"><path stroke-width="1" stroke="silver" fill="none" stroke-dasharray="4,2" pointer-events="none" d="M503 0 L 503 122"/></g><g class="panelgridline" display="inherit"><path stroke-width="1" stroke="silver" fill="none" stroke-dasharray="4,2" pointer-events="none" d="M578 0 L 578 122"/></g><g class="panelgridline" display="inherit"><path stroke-width="1" stroke="silver" fill="none" stroke-dasharray="4,2" pointer-events="none" d="M585 0 L 585 122"/></g><g class="panelgridline" display="inherit"><path stroke-width="1" stroke="silver" fill="none" stroke-dasharray="4,2" pointer-events="none" d="M660 0 L 660 122"/></g><g class="panelgridline" display="inherit"><path stroke-width="1" stroke="silver" fill="none" stroke-dasharray="4,2" pointer-events="none" d="M667 0 L 667 122"/></g><g class="panelgridline" display="inherit"><path stroke-width="1" stroke="silver" fill="none" stroke-dasharray="4,2" pointer-events="none" d="M742 0 L 742 122"/></g><g class="panelgridline" display="inherit"><path stroke-width="1" stroke="silver" fill="none" stroke-dasharray="4,2" pointer-events="none" d="M749 0 L 749 122"/></g><g class="panelgridline" display="inherit"><path stroke-width="1" stroke="silver" fill="none" stroke-dasharray="4,2" pointer-events="none" d="M824 0 L 824 122"/></g><g class="panelgridline" display="inherit"><path stroke-width="1" stroke="silver" fill="none" stroke-dasharray="4,2" pointer-events="none" d="M831 0 L 831 122"/></g><g class="panelgridline" display="inherit"><path stroke-width="1" stroke="silver" fill="none" stroke-dasharray="4,2" pointer-events="none" d="M906 0 L 906 122"/></g><g class="panelgridline" display="inherit"><path stroke-width="1" stroke="silver" fill="none" stroke-dasharray="4,2" pointer-events="none" d="M913 0 L 913 122"/></g><g class="panelgridline" display="inherit"><path stroke-width="1" stroke="silver" fill="none" stroke-dasharray="4,2" pointer-events="none" d="M988 0 L 988 122"/></g><g class="panelgridline" display="none"><path stroke-width="1" stroke="silver" fill="none" stroke-dasharray="4,2" pointer-events="none"/></g><g class="panelgridline" display="none"><path stroke-width="1" stroke="silver" fill="none" stroke-dasharray="4,2" pointer-events="none"/></g></g><g class="children" style="overflow:hidden"><g id="svg-galleries1"><g class="stencils" transform="translate(15, 25)"><g class="me"><g oryx:minimumSize="24 26" id="oryx_F4A8C44F-BFC7-445A-B729-F7E638EC9703" title="cloud-galleries">   <defs id="oryx_F4A8C44F-BFC7-445A-B729-F7E638EC9703_oryx_F4A8C44F-BFC7-445A-B729-F7E638EC9703_2">       <marker id="oryx_F4A8C44F-BFC7-445A-B729-F7E638EC9703image" refX="-2" refY="0" markerWidth="24" markerHeight="24">             <path d="M7,7 Q12,1 17,7 Z M7,7 17,7 17,10 7,10 Z M7,10 Q12,22 17,10 Z M2,22 Q12,9 23,22 Z" stroke="#cccccc" fill="#cccccc" oryx:anchors="left top" id="oryx_F4A8C44F-BFC7-445A-B729-F7E638EC9703_oryx_F4A8C44F-BFC7-445A-B729-F7E638EC9703_3"/>    </marker>    <radialGradient id="oryx_F4A8C44F-BFC7-445A-B729-F7E638EC9703transparent" cx="10%" cy="10%" r="100%" fx="10%" fy="10%">     <stop offset="0%" stop-color="#ffffff" stop-opacity="0" id="oryx_F4A8C44F-BFC7-445A-B729-F7E638EC9703_oryx_F4A8C44F-BFC7-445A-B729-F7E638EC9703_4"/>     <stop offset="100%" stop-color="#ffffff" stop-opacity="0" id="oryx_F4A8C44F-BFC7-445A-B729-F7E638EC9703_oryx_F4A8C44F-BFC7-445A-B729-F7E638EC9703_5"/>       </radialGradient>      </defs>      <rect id="oryx_F4A8C44F-BFC7-445A-B729-F7E638EC9703bg_frame" oryx:anchors="left top" x="0" y="0" width="969" height="72" stroke="none" fill="url(#oryx_F4A8C44F-BFC7-445A-B729-F7E638EC9703transparent)" class="transparent"/>    <g id="oryx_F4A8C44F-BFC7-445A-B729-F7E638EC9703a">    <rect id="oryx_F4A8C44F-BFC7-445A-B729-F7E638EC9703label" oryx:anchors="left top" x="0" y="0" width="964" height="24" stroke="none" fill="url(#oryx_F4A8C44F-BFC7-445A-B729-F7E638EC9703transparent)" class="transparent"/>    <text id="oryx_F4A8C44F-BFC7-445A-B729-F7E638EC9703label_text" oryx:anchors="left top" oryx:align="middle left" font-size="11" x="5" y="12" stroke="black" stroke-width="0pt" letter-spacing="0.002421778274701541px" oryx:fontSize="11" transform="rotate(0 5 12)" text-anchor="start"><tspan dy="4" x="5" y="12">Loan documents</tspan></text>   </g>      <g id="oryx_F4A8C44F-BFC7-445A-B729-F7E638EC9703b" stroke="#000000">       <rect id="oryx_F4A8C44F-BFC7-445A-B729-F7E638EC9703input" oryx:anchors="left top" fill="#F5F5F5" x="0" y="24" height="48" width="969"/>     <path id="oryx_F4A8C44F-BFC7-445A-B729-F7E638EC9703input_dependent" oryx:anchors="left top" d=" M7 29  L35 29  L35 55  L7 55  z" refX="7" refY="5" stroke="#cccccc" fill="none" marker-start="url(#oryx_F4A8C44F-BFC7-445A-B729-F7E638EC9703image)" style="opacity:0.9999;"/>          <text id="oryx_F4A8C44F-BFC7-445A-B729-F7E638EC9703input_text" oryx:anchors="left top" oryx:align="middle left" font-size="11" x="40" y="48" refX="35" refY="12" stroke="black" fill="gray" font-style="italic" stroke-width="0pt" letter-spacing="0.0015385774143735168px" oryx:fontSize="11" transform="rotate(0 40 48)" text-anchor="start"><tspan dy="4" x="40" y="48">{{loanAgreement}}</tspan></text>      </g>      <g id="oryx_F4A8C44F-BFC7-445A-B729-F7E638EC9703c" transform="translate(1,8)">    <path id="oryx_F4A8C44F-BFC7-445A-B729-F7E638EC9703mandatory_Indicator" oryx:anchors="middle left" d=" m14.30275 17.553035  l-2.49912 0  l-0.77223 2.37422  l-0.77227 -2.37422  l-2.49912 0  l2.02183 -1.46721  l-0.77229 -2.37417  l2.02184 1.46732  l2.02183 -1.46732  l-0.77232 2.37417  l2.02184 1.46721  z" stroke="#ff0000" fill="#ff0000" display="none" style="cursor:pointer" original-stroke="#ff0000" original-fill="#ff0000"/>   </g>      <g id="oryx_F4A8C44F-BFC7-445A-B729-F7E638EC9703d">    <path id="oryx_F4A8C44F-BFC7-445A-B729-F7E638EC9703feedback_Indicator" oryx:anchors="left top" d="M300,15 320,15 310,0 Z M310 4 L310 10 Z M310 11 L310 13 Z" stroke="black" fill="#ff0000" display="none"/>   </g>        <g id="oryx_F4A8C44F-BFC7-445A-B729-F7E638EC9703e">    <rect id="oryx_F4A8C44F-BFC7-445A-B729-F7E638EC9703desc" oryx:anchors="left top" stroke="none" fill="url(#oryx_F4A8C44F-BFC7-445A-B729-F7E638EC9703transparent)" x="0" y="0" height="24" width="969" display="none" class="transparent"/>    <text id="oryx_F4A8C44F-BFC7-445A-B729-F7E638EC9703desc_text" oryx:anchors="left top" oryx:align="middle left" font-size="11" x="0" y="12" stroke="black" fill="gray" font-style="italic" display="none" stroke-width="0pt" letter-spacing="0.008020882183433862px" oryx:fontSize="11" transform="rotate(0 0 12)" text-anchor="start"/>   </g>       </g></g><g class="children" style="overflow:hidden"/><g class="edge"/><path id="warningId-oryx_F4A8C44F-BFC7-445A-B729-F7E638EC9703" class="validationError" title="" stroke-width="1" stroke="red" fill="white" d="M5,-5 L20,-5 L12,-20 z M12,-15 L12,-10 M12,-9 L12,-7" line-captions="round" style="cursor:pointer" data-html="true" display="none"/></g><g class="controls"><g class="dockers"/><g class="magnets" transform="translate(15, 25)"><g pointer-events="all" display="none" transform="translate(476.5, 28)"><circle cx="8" cy="8" r="4" stroke="none" fill="red" fill-opacity="0.3"/></g></g></g></g></g><g class="edge"/><g class="panelcell" display="none"><rect x="0" y="0" stroke-width="2" stroke="#00ff00" fill="none" pointer-events="none"/></g><path id="warningId-oryx_07B2C899-BBB0-438A-AFCA-D47E915FCB64" class="validationError" title="" stroke-width="1" stroke="red" fill="white" d="M5,-5 L20,-5 L12,-20 z M12,-15 L12,-10 M12,-9 L12,-7" line-captions="round" style="cursor:pointer" data-html="true" display="none"/></g><g class="controls"><g class="dockers"/><g class="magnets" transform="translate(50, 50)"><g pointer-events="all" display="none" transform="translate(491.50000000000006, 53)"><circle cx="8" cy="8" r="4" stroke="none" fill="red" fill-opacity="0.3"/></g></g></g></g></g><g class="edge"/></g></g></svg>