<svg xmlns="http://www.w3.org/2000/svg" xmlns:oryx="http://oryx-editor.org" id="oryx_11CD20B3-EA3F-4FB8-83F0-E45FE4D3477A" width="1049" height="367" xmlns:xlink="http://www.w3.org/1999/xlink" xmlns:svg="http://www.w3.org/2000/svg"><defs/><g stroke="black" font-family="arial,sans-serif" font-size-adjust="none" font-style="normal" font-variant="normal" font-weight="normal" line-heigth="normal" font-size="12"><g class="stencils" transform="translate(-25, -25)"><g class="me"/><g class="children"><g id="svg-panel1"><g class="stencils" transform="translate(50, 50)"><g class="me"><g oryx:minimumSize="40 34" id="oryx_7C7033B2-B3EA-4AC4-A9B3-0478551360EE" title="SlotPanel">     <rect id="oryx_7C7033B2-B3EA-4AC4-A9B3-0478551360EEinput" oryx:anchors="left top" oryx:resize="vertical horizontal" x="0" y="0" width="999.0000000000001" height="317" stroke="#777777" stroke-width="1" fill="#ffffff"/>   </g></g><g class="background"><g class="cellBg" display="inherit" transform="translate(11, 21)"><rect x="0" y="0" stroke-width="2" stroke="none" fill="#ffffff" pointer-events="all" width="403" height="56"/></g><g class="cellBg" display="inherit" transform="translate(11, 21)"><rect x="0" y="0" stroke-width="2" stroke="none" fill="#ffffff" pointer-events="all" width="403" height="56"/></g><g class="cellBg" display="inherit" transform="translate(11, 21)"><rect x="0" y="0" stroke-width="2" stroke="none" fill="#ffffff" pointer-events="all" width="403" height="56"/></g><g class="cellBg" display="inherit" transform="translate(503, 21)"><rect x="0" y="0" stroke-width="2" stroke="none" fill="#ffffff" pointer-events="all" width="485" height="56"/></g><g class="cellBg" display="inherit" transform="translate(503, 21)"><rect x="0" y="0" stroke-width="2" stroke="none" fill="#ffffff" pointer-events="all" width="485" height="56"/></g><g class="cellBg" display="inherit" transform="translate(503, 21)"><rect x="0" y="0" stroke-width="2" stroke="none" fill="#ffffff" pointer-events="all" width="485" height="56"/></g><g class="cellBg" display="inherit" transform="translate(11, 94)"><rect x="0" y="0" stroke-width="2" stroke="none" fill="#ffffff" pointer-events="all" width="403" height="129"/></g><g class="cellBg" display="inherit" transform="translate(11, 94)"><rect x="0" y="0" stroke-width="2" stroke="none" fill="#ffffff" pointer-events="all" width="403" height="129"/></g><g class="cellBg" display="inherit" transform="translate(11, 94)"><rect x="0" y="0" stroke-width="2" stroke="none" fill="#ffffff" pointer-events="all" width="403" height="129"/></g><g class="cellBg" display="inherit" transform="translate(503, 94)"><rect x="0" y="0" stroke-width="2" stroke="none" fill="#ffffff" pointer-events="all" width="485" height="129"/></g><g class="cellBg" display="inherit" transform="translate(503, 94)"><rect x="0" y="0" stroke-width="2" stroke="none" fill="#ffffff" pointer-events="all" width="485" height="129"/></g><g class="cellBg" display="inherit" transform="translate(503, 94)"><rect x="0" y="0" stroke-width="2" stroke="none" fill="#ffffff" pointer-events="all" width="485" height="129"/></g><g class="cellBg" display="inherit" transform="translate(11, 240)"><rect x="0" y="0" stroke-width="2" stroke="none" fill="#ffffff" pointer-events="all" width="403" height="56"/></g><g class="cellBg" display="inherit" transform="translate(11, 240)"><rect x="0" y="0" stroke-width="2" stroke="none" fill="#ffffff" pointer-events="all" width="403" height="56"/></g><g class="cellBg" display="inherit" transform="translate(11, 240)"><rect x="0" y="0" stroke-width="2" stroke="none" fill="#ffffff" pointer-events="all" width="403" height="56"/></g><g class="cellBg" display="inherit" transform="translate(503, 240)"><rect x="0" y="0" stroke-width="2" stroke="none" fill="#ffffff" pointer-events="all" width="485" height="56"/></g><g class="cellBg" display="inherit" transform="translate(503, 240)"><rect x="0" y="0" stroke-width="2" stroke="none" fill="#ffffff" pointer-events="all" width="485" height="56"/></g><g class="cellBg" display="inherit" transform="translate(503, 240)"><rect x="0" y="0" stroke-width="2" stroke="none" fill="#ffffff" pointer-events="all" width="485" height="56"/></g><g class="cellBg" display="inherit" transform="translate(503, 240)"><rect x="0" y="0" stroke-width="2" stroke="none" fill="#ffffff" pointer-events="all" width="485" height="56"/></g><g class="cellBg" display="inherit" transform="translate(503, 240)"><rect x="0" y="0" stroke-width="2" stroke="none" fill="#ffffff" pointer-events="all" width="485" height="56"/></g><g class="cellBg" display="inherit" transform="translate(503, 240)"><rect x="0" y="0" stroke-width="2" stroke="none" fill="#ffffff" pointer-events="all" width="485" height="56"/></g><g class="cellBg" display="inherit" transform="translate(421, 240)"><rect x="0" y="0" stroke-width="2" stroke="none" fill="#ffffff" pointer-events="all" width="75" height="56"/></g><g class="cellBg" display="inherit" transform="translate(11, 240)"><rect x="0" y="0" stroke-width="2" stroke="none" fill="#ffffff" pointer-events="all" width="403" height="56"/></g><g class="cellBg" display="inherit" transform="translate(11, 240)"><rect x="0" y="0" stroke-width="2" stroke="none" fill="#ffffff" pointer-events="all" width="403" height="56"/></g><g class="cellBg" display="inherit" transform="translate(503, 94)"><rect x="0" y="0" stroke-width="2" stroke="none" fill="#ffffff" pointer-events="all" width="485" height="129"/></g><g class="cellBg" display="inherit" transform="translate(503, 94)"><rect x="0" y="0" stroke-width="2" stroke="none" fill="#ffffff" pointer-events="all" width="485" height="129"/></g><g class="cellBg" display="inherit" transform="translate(503, 94)"><rect x="0" y="0" stroke-width="2" stroke="none" fill="#ffffff" pointer-events="all" width="485" height="129"/></g><g class="cellBg" display="inherit" transform="translate(421, 94)"><rect x="0" y="0" stroke-width="2" stroke="none" fill="#ffffff" pointer-events="all" width="75" height="129"/></g><g class="cellBg" display="inherit" transform="translate(11, 94)"><rect x="0" y="0" stroke-width="2" stroke="none" fill="#ffffff" pointer-events="all" width="403" height="129"/></g><g class="cellBg" display="inherit" transform="translate(11, 94)"><rect x="0" y="0" stroke-width="2" stroke="none" fill="#ffffff" pointer-events="all" width="403" height="129"/></g><g class="cellBg" display="inherit" transform="translate(503, 21)"><rect x="0" y="0" stroke-width="2" stroke="none" fill="#ffffff" pointer-events="all" width="485" height="56"/></g><g class="cellBg" display="inherit" transform="translate(503, 21)"><rect x="0" y="0" stroke-width="2" stroke="none" fill="#ffffff" pointer-events="all" width="485" height="56"/></g><g class="cellBg" display="inherit" transform="translate(503, 21)"><rect x="0" y="0" stroke-width="2" stroke="none" fill="#ffffff" pointer-events="all" width="485" height="56"/></g><g class="cellBg" display="inherit" transform="translate(421, 21)"><rect x="0" y="0" stroke-width="2" stroke="none" fill="#ffffff" pointer-events="all" width="75" height="56"/></g><g class="cellBg" display="inherit" transform="translate(11, 21)"><rect x="0" y="0" stroke-width="2" stroke="none" fill="#ffffff" pointer-events="all" width="403" height="56"/></g><g class="cellBg" display="inherit" transform="translate(11, 21)"><rect x="0" y="0" stroke-width="2" stroke="none" fill="#ffffff" pointer-events="all" width="403" height="56"/></g><g class="columnBackground split" display="none"><rect x="0" y="0" stroke="none" fill="#ffffff" pointer-events="none"/></g></g><g class="gridline"><g class="panelgridline" display="inherit"><path stroke-width="1" stroke="silver" fill="none" stroke-dasharray="4,2" pointer-events="none" d="M0 240 L 999.0000000000001 240"/></g><g class="panelgridline" display="inherit"><path stroke-width="1" stroke="silver" fill="none" stroke-dasharray="4,2" pointer-events="none" d="M0 296 L 999.0000000000001 296"/></g><g class="panelgridline" display="inherit"><path stroke-width="1" stroke="silver" fill="none" stroke-dasharray="4,2" pointer-events="none" d="M0 94 L 999.0000000000001 94"/></g><g class="panelgridline" display="inherit"><path stroke-width="1" stroke="silver" fill="none" stroke-dasharray="4,2" pointer-events="none" d="M0 223 L 999.0000000000001 223"/></g><g class="panelgridline" display="inherit"><path stroke-width="1" stroke="silver" fill="none" stroke-dasharray="4,2" pointer-events="none" d="M0 21 L 999.0000000000001 21"/></g><g class="panelgridline" display="inherit"><path stroke-width="1" stroke="silver" fill="none" stroke-dasharray="4,2" pointer-events="none" d="M0 77 L 999.0000000000001 77"/></g><g class="panelgridline" display="inherit"><path stroke-width="1" stroke="silver" fill="none" stroke-dasharray="4,2" pointer-events="none" d="M913 0 L 913 317"/></g><g class="panelgridline" display="inherit"><path stroke-width="1" stroke="silver" fill="none" stroke-dasharray="4,2" pointer-events="none" d="M988 0 L 988 317"/></g><g class="panelgridline" display="inherit"><path stroke-width="1" stroke="silver" fill="none" stroke-dasharray="4,2" pointer-events="none" d="M831 0 L 831 317"/></g><g class="panelgridline" display="inherit"><path stroke-width="1" stroke="silver" fill="none" stroke-dasharray="4,2" pointer-events="none" d="M906 0 L 906 317"/></g><g class="panelgridline" display="inherit"><path stroke-width="1" stroke="silver" fill="none" stroke-dasharray="4,2" pointer-events="none" d="M749 0 L 749 317"/></g><g class="panelgridline" display="inherit"><path stroke-width="1" stroke="silver" fill="none" stroke-dasharray="4,2" pointer-events="none" d="M824 0 L 824 317"/></g><g class="panelgridline" display="inherit"><path stroke-width="1" stroke="silver" fill="none" stroke-dasharray="4,2" pointer-events="none" d="M667 0 L 667 317"/></g><g class="panelgridline" display="inherit"><path stroke-width="1" stroke="silver" fill="none" stroke-dasharray="4,2" pointer-events="none" d="M742 0 L 742 317"/></g><g class="panelgridline" display="inherit"><path stroke-width="1" stroke="silver" fill="none" stroke-dasharray="4,2" pointer-events="none" d="M585 0 L 585 317"/></g><g class="panelgridline" display="inherit"><path stroke-width="1" stroke="silver" fill="none" stroke-dasharray="4,2" pointer-events="none" d="M660 0 L 660 317"/></g><g class="panelgridline" display="inherit"><path stroke-width="1" stroke="silver" fill="none" stroke-dasharray="4,2" pointer-events="none" d="M503 0 L 503 317"/></g><g class="panelgridline" display="inherit"><path stroke-width="1" stroke="silver" fill="none" stroke-dasharray="4,2" pointer-events="none" d="M578 0 L 578 317"/></g><g class="panelgridline" display="inherit"><path stroke-width="1" stroke="silver" fill="none" stroke-dasharray="4,2" pointer-events="none" d="M421 0 L 421 317"/></g><g class="panelgridline" display="inherit"><path stroke-width="1" stroke="silver" fill="none" stroke-dasharray="4,2" pointer-events="none" d="M496 0 L 496 317"/></g><g class="panelgridline" display="inherit"><path stroke-width="1" stroke="silver" fill="none" stroke-dasharray="4,2" pointer-events="none" d="M339 0 L 339 317"/></g><g class="panelgridline" display="inherit"><path stroke-width="1" stroke="silver" fill="none" stroke-dasharray="4,2" pointer-events="none" d="M414 0 L 414 317"/></g><g class="panelgridline" display="inherit"><path stroke-width="1" stroke="silver" fill="none" stroke-dasharray="4,2" pointer-events="none" d="M257 0 L 257 317"/></g><g class="panelgridline" display="inherit"><path stroke-width="1" stroke="silver" fill="none" stroke-dasharray="4,2" pointer-events="none" d="M332 0 L 332 317"/></g><g class="panelgridline" display="inherit"><path stroke-width="1" stroke="silver" fill="none" stroke-dasharray="4,2" pointer-events="none" d="M175 0 L 175 317"/></g><g class="panelgridline" display="inherit"><path stroke-width="1" stroke="silver" fill="none" stroke-dasharray="4,2" pointer-events="none" d="M250 0 L 250 317"/></g><g class="panelgridline" display="inherit"><path stroke-width="1" stroke="silver" fill="none" stroke-dasharray="4,2" pointer-events="none" d="M93 0 L 93 317"/></g><g class="panelgridline" display="inherit"><path stroke-width="1" stroke="silver" fill="none" stroke-dasharray="4,2" pointer-events="none" d="M168 0 L 168 317"/></g><g class="panelgridline" display="inherit"><path stroke-width="1" stroke="silver" fill="none" stroke-dasharray="4,2" pointer-events="none" d="M11 0 L 11 317"/></g><g class="panelgridline" display="inherit"><path stroke-width="1" stroke="silver" fill="none" stroke-dasharray="4,2" pointer-events="none" d="M86 0 L 86 317"/></g><g class="panelgridline" display="none"><path stroke-width="1" stroke="silver" fill="none" stroke-dasharray="4,2" pointer-events="none"/></g><g class="panelgridline" display="none"><path stroke-width="1" stroke="silver" fill="none" stroke-dasharray="4,2" pointer-events="none"/></g></g><g class="children" style="overflow:hidden"><g id="svg-cloud-radiobuttons2"><g class="stencils" transform="translate(15, 98)"><g class="me"><g oryx:minimumSize="24 26" id="oryx_D9311B23-6E11-41EE-9600-E273B1AC908C" title="cloud-radiobuttons">   <defs id="oryx_D9311B23-6E11-41EE-9600-E273B1AC908C_oryx_D9311B23-6E11-41EE-9600-E273B1AC908C_2">         <radialGradient id="oryx_D9311B23-6E11-41EE-9600-E273B1AC908Ctransparent" cx="10%" cy="10%" r="100%" fx="10%" fy="10%">     <stop offset="0%" stop-color="#ffffff" stop-opacity="0" id="oryx_D9311B23-6E11-41EE-9600-E273B1AC908C_oryx_D9311B23-6E11-41EE-9600-E273B1AC908C_3"/>     <stop offset="100%" stop-color="#ffffff" stop-opacity="0" id="oryx_D9311B23-6E11-41EE-9600-E273B1AC908C_oryx_D9311B23-6E11-41EE-9600-E273B1AC908C_4"/>      </radialGradient>    <marker id="oryx_D9311B23-6E11-41EE-9600-E273B1AC908Cradio_marker" markerWidth="12" markerHeight="12" orient="auto">     <circle cx="5" cy="6" r="4" oryx:anchors="left top" stroke="black" fill="none" id="oryx_D9311B23-6E11-41EE-9600-E273B1AC908C_oryx_D9311B23-6E11-41EE-9600-E273B1AC908C_5"/>    </marker>     <marker id="oryx_D9311B23-6E11-41EE-9600-E273B1AC908Cradio_marker_checked" markerWidth="12" markerHeight="12" orient="auto">     <circle cx="5" cy="6" r="1" oryx:anchors="left top" stroke="black" fill="none" id="oryx_D9311B23-6E11-41EE-9600-E273B1AC908C_oryx_D9311B23-6E11-41EE-9600-E273B1AC908C_6"/>     <circle cx="5" cy="6" r="4" oryx:anchors="left top" stroke="black" fill="none" id="oryx_D9311B23-6E11-41EE-9600-E273B1AC908C_oryx_D9311B23-6E11-41EE-9600-E273B1AC908C_7"/>    </marker>     </defs>     <rect id="oryx_D9311B23-6E11-41EE-9600-E273B1AC908Cbg_frame" oryx:anchors="left top" x="0" y="0" width="395" height="121" stroke="none" fill="url(#oryx_D9311B23-6E11-41EE-9600-E273B1AC908Ctransparent)" class="transparent"/>    <g id="oryx_D9311B23-6E11-41EE-9600-E273B1AC908Ca">    <rect id="oryx_D9311B23-6E11-41EE-9600-E273B1AC908Clabel" oryx:anchors="left top" x="0" y="0" width="390" height="24" stroke="none" fill="url(#oryx_D9311B23-6E11-41EE-9600-E273B1AC908Ctransparent)" class="transparent"/>    <text id="oryx_D9311B23-6E11-41EE-9600-E273B1AC908Clabel_text" oryx:anchors="left top" font-size="11" x="5" y="12" oryx:align="middle left" stroke="black" stroke-width="0pt" letter-spacing="0.003334122441456338px" oryx:fontSize="11" transform="rotate(0 5 12)" text-anchor="start"><tspan dy="4" x="5" y="12">Home</tspan></text>   </g>      <g id="oryx_D9311B23-6E11-41EE-9600-E273B1AC908Cb" stroke="#000000">          <rect id="oryx_D9311B23-6E11-41EE-9600-E273B1AC908Cinput" oryx:anchors="left top" fill="#F5F5F5" x="0" y="24" height="97" width="383"/><text id="oryx_D9311B23-6E11-41EE-9600-E273B1AC908Cinput_text" oryx:anchors="left top" oryx:align="middle left" font-size="11" x="5" y="109" refX="0" refY="73" stroke="black" fill="gray" font-style="italic" stroke-width="0pt" letter-spacing="0.009429332148779503px" oryx:fontSize="11" transform="rotate(0 5 109)" text-anchor="start"><tspan dy="4" x="5" y="109">{{home}}</tspan></text><path id="oryx_D9311B23-6E11-41EE-9600-E273B1AC908Cinput_dependentradio_0" d=" M5 29  L17 29 " stroke="none" fill="#ffffff" marker-start="url(#oryx_D9311B23-6E11-41EE-9600-E273B1AC908Cradio_marker_checked)" refX="5" refY="5" oryx:anchors="left top"/><text id="oryx_D9311B23-6E11-41EE-9600-E273B1AC908Cinput_dependent_textradio_0" width="33" height="24" x="22" y="39" font-size="12px" stroke-width="0pt" stroke="black" refX="22" refY="15" oryx:anchors="left top" oryx:align="middle left" letter-spacing="0.00010520053425573939px" transform="rotate(0 22 39)" oryx:fontSize="12" text-anchor="start"><tspan dy="0" x="22" y="39">Rented</tspan></text><path id="oryx_D9311B23-6E11-41EE-9600-E273B1AC908Cinput_dependentradio_1" d=" M5 58  L17 58 " stroke="none" fill="#ffffff" marker-start="url(#oryx_D9311B23-6E11-41EE-9600-E273B1AC908Cradio_marker)" refX="5" refY="34" oryx:anchors="left top"/><text id="oryx_D9311B23-6E11-41EE-9600-E273B1AC908Cinput_dependent_textradio_1" width="48" height="24" x="22" y="68" font-size="12px" stroke-width="0pt" stroke="black" refX="22" refY="44" oryx:anchors="left top" oryx:align="middle left" letter-spacing="0.001416264927768516px" transform="rotate(0 22 68)" oryx:fontSize="12" text-anchor="start"><tspan dy="0" x="22" y="68">Mortgaged</tspan></text><path id="oryx_D9311B23-6E11-41EE-9600-E273B1AC908Cinput_dependentradio_2" d=" M5 87  L17 87 " stroke="none" fill="#ffffff" marker-start="url(#oryx_D9311B23-6E11-41EE-9600-E273B1AC908Cradio_marker)" refX="5" refY="63" oryx:anchors="left top"/><text id="oryx_D9311B23-6E11-41EE-9600-E273B1AC908Cinput_dependent_textradio_2" width="32" height="24" x="22" y="97" font-size="12px" stroke-width="0pt" stroke="black" refX="22" refY="73" oryx:anchors="left top" oryx:align="middle left" letter-spacing="0.005307208983058896px" transform="rotate(0 22 97)" oryx:fontSize="12" text-anchor="start"><tspan dy="0" x="22" y="97">Owned</tspan></text></g>        <g id="oryx_D9311B23-6E11-41EE-9600-E273B1AC908Cc" transform="translate(1,8)">    <path id="oryx_D9311B23-6E11-41EE-9600-E273B1AC908Cmandatory_Indicator" oryx:anchors="middle left" d=" m394.54274 19.56219135506295  l-2.49912 0  l-0.77223 2.37422  l-0.77227 -2.37422  l-2.49912 0  l2.02183 -1.46721  l-0.77229 -2.37417  l2.02184 1.46732  l2.02183 -1.46732  l-0.77232 2.37417  l2.02184 1.46721  z" stroke="#ff0000" fill="#ff0000" style="cursor:pointer" original-stroke="#ff0000" original-fill="#ff0000" display="inherit"/>   </g>    <g id="oryx_D9311B23-6E11-41EE-9600-E273B1AC908Cd">    <path id="oryx_D9311B23-6E11-41EE-9600-E273B1AC908Cfeedback_Indicator" oryx:anchors="left top" d="M300,15 320,15 310,0 Z M310 4 L310 10 Z M310 11 L310 13 Z" stroke="black" fill="#ff0000" display="none"/>   </g>      <g id="oryx_D9311B23-6E11-41EE-9600-E273B1AC908Ce">    <rect id="oryx_D9311B23-6E11-41EE-9600-E273B1AC908Cdesc" oryx:anchors="left top" stroke="none" fill="url(#oryx_D9311B23-6E11-41EE-9600-E273B1AC908Ctransparent)" x="0" y="0" height="24" width="383" display="none" class="transparent"/>    <text id="oryx_D9311B23-6E11-41EE-9600-E273B1AC908Cdesc_text" oryx:anchors="left top" oryx:align="middle left" font-size="11" x="0" y="12" stroke="black" fill="gray" font-style="italic" display="none" stroke-width="0pt" letter-spacing="0.005287441174848801px" oryx:fontSize="11" transform="rotate(0 0 12)" text-anchor="start"/>   </g>     </g></g><g class="children" style="overflow:hidden"/><g class="edge"/><path id="warningId-oryx_D9311B23-6E11-41EE-9600-E273B1AC908C" class="validationError" title="" stroke-width="1" stroke="red" fill="white" d="M5,-5 L20,-5 L12,-20 z M12,-15 L12,-10 M12,-9 L12,-7" line-captions="round" style="cursor:pointer" data-html="true" display="none"/></g><g class="controls"><g class="dockers"/><g class="magnets" transform="translate(15, 98)"><g pointer-events="all" display="none" transform="translate(189.5, 52.49999999999999)"><circle cx="8" cy="8" r="4" stroke="none" fill="red" fill-opacity="0.3"/></g></g></g></g><g id="svg-cloud-text3"><g class="stencils" transform="translate(15, 25)"><g class="me"><g oryx:minimumSize="20 26" id="oryx_E235E114-82AA-4464-91DD-58AFAE56E740" title="cloud-text">   <defs id="oryx_E235E114-82AA-4464-91DD-58AFAE56E740_oryx_E235E114-82AA-4464-91DD-58AFAE56E740_2">           <radialGradient id="oryx_E235E114-82AA-4464-91DD-58AFAE56E740transparent" cx="10%" cy="10%" r="100%" fx="10%" fy="10%">     <stop offset="0%" stop-color="#ffffff" stop-opacity="0" id="oryx_E235E114-82AA-4464-91DD-58AFAE56E740_oryx_E235E114-82AA-4464-91DD-58AFAE56E740_3"/>     <stop offset="100%" stop-color="#ffffff" stop-opacity="0" id="oryx_E235E114-82AA-4464-91DD-58AFAE56E740_oryx_E235E114-82AA-4464-91DD-58AFAE56E740_4"/>      </radialGradient>     </defs>     <rect id="oryx_E235E114-82AA-4464-91DD-58AFAE56E740bg_frame" oryx:anchors="left top" x="0" y="0" width="395" height="48" stroke="none" fill="url(#oryx_E235E114-82AA-4464-91DD-58AFAE56E740transparent)" class="transparent"/>    <g id="oryx_E235E114-82AA-4464-91DD-58AFAE56E740a">    <rect id="oryx_E235E114-82AA-4464-91DD-58AFAE56E740label" oryx:anchors="left top" x="0" y="0" width="390" height="24" stroke="none" fill="url(#oryx_E235E114-82AA-4464-91DD-58AFAE56E740transparent)" class="transparent"/>    <text id="oryx_E235E114-82AA-4464-91DD-58AFAE56E740label_text" oryx:anchors="left top" font-size="11" x="5" y="12" oryx:align="middle left" stroke="black" stroke-width="0pt" letter-spacing="0.002123139966444702px" oryx:fontSize="11" transform="rotate(0 5 12)" text-anchor="start"><tspan dy="4" x="5" y="12">Full name</tspan></text>   </g>      <g id="oryx_E235E114-82AA-4464-91DD-58AFAE56E740b" stroke="#000000">    <rect id="oryx_E235E114-82AA-4464-91DD-58AFAE56E740input" oryx:anchors="left top" style="fill:white;" x="0" y="24" height="24" width="383"/>    <text id="oryx_E235E114-82AA-4464-91DD-58AFAE56E740input_text" oryx:anchors="left top" oryx:align="middle left" font-size="11" x="5" y="36" stroke="black" fill="gray" font-style="italic" stroke-width="0pt" letter-spacing="0.007154409176326614px" oryx:fontSize="11" transform="rotate(0 5 36)" text-anchor="start"><tspan dy="4" x="5" y="36">{{fullName}}</tspan></text>   </g>        <g id="oryx_E235E114-82AA-4464-91DD-58AFAE56E740c" transform="translate(1,8)">    <path id="oryx_E235E114-82AA-4464-91DD-58AFAE56E740mandatory_Indicator" oryx:anchors="middle left" d=" m14.30275 21.434447692307693  l-2.49912 0  l-0.77223 2.37422  l-0.77227 -2.37422  l-2.49912 0  l2.02183 -1.46721  l-0.77229 -2.37417  l2.02184 1.46732  l2.02183 -1.46732  l-0.77232 2.37417  l2.02184 1.46721  z" stroke="#ff0000" fill="#ff0000" display="none" style="cursor:pointer" original-stroke="#ff0000" original-fill="#ff0000"/>   </g>    <g id="oryx_E235E114-82AA-4464-91DD-58AFAE56E740d">    <path id="oryx_E235E114-82AA-4464-91DD-58AFAE56E740feedback_Indicator" oryx:anchors="left top" d="M300,15 320,15 310,0 Z M310 4 L310 10 Z M310 11 L310 13 Z" stroke="black" fill="#ff0000" display="none"/>   </g>      <g id="oryx_E235E114-82AA-4464-91DD-58AFAE56E740e">    <rect id="oryx_E235E114-82AA-4464-91DD-58AFAE56E740desc" oryx:anchors="left top" stroke="none" fill="url(#oryx_E235E114-82AA-4464-91DD-58AFAE56E740transparent)" x="0" y="0" height="24" width="383" display="none" class="transparent"/>    <text id="oryx_E235E114-82AA-4464-91DD-58AFAE56E740desc_text" oryx:anchors="left top" oryx:align="middle left" font-size="11" x="0" y="12" stroke="black" fill="gray" font-style="italic" display="none" stroke-width="0pt" letter-spacing="0.002946350737136335px" oryx:fontSize="11" transform="rotate(0 0 12)" text-anchor="start"/>   </g>     </g></g><g class="children" style="overflow:hidden"/><g class="edge"/><path id="warningId-oryx_E235E114-82AA-4464-91DD-58AFAE56E740" class="validationError" title="" stroke-width="1" stroke="red" fill="white" d="M5,-5 L20,-5 L12,-20 z M12,-15 L12,-10 M12,-9 L12,-7" line-captions="round" style="cursor:pointer" data-html="true" display="none"/></g><g class="controls"><g class="dockers"/><g class="magnets" transform="translate(15, 25)"><g pointer-events="all" display="none" transform="translate(382.0625, 16)"><circle cx="8" cy="8" r="4" stroke="none" fill="red" fill-opacity="0.3"/></g></g></g></g><g id="svg-cloud-integer-number4"><g class="stencils" transform="translate(507, 25)"><g class="me"><g oryx:minimumSize="20 26" id="oryx_8A59937D-87A5-4649-9AFF-8EC57CDD413C" title="cloud-integer-number">   <defs id="oryx_8A59937D-87A5-4649-9AFF-8EC57CDD413C_oryx_8A59937D-87A5-4649-9AFF-8EC57CDD413C_2">         <marker id="oryx_8A59937D-87A5-4649-9AFF-8EC57CDD413Cnumber_marker" refX="25" refY="0" markerWidth="24" markerHeight="24">         <path d="M1,32 1,0 M10,21 10,4  M17,21 17,4 Z M5,10 21,10 Z  M5,16 21,16 Z" oryx:anchors="left top" fill="black" id="oryx_8A59937D-87A5-4649-9AFF-8EC57CDD413C_oryx_8A59937D-87A5-4649-9AFF-8EC57CDD413C_3"/>      </marker>      <radialGradient id="oryx_8A59937D-87A5-4649-9AFF-8EC57CDD413Ctransparent" cx="10%" cy="10%" r="100%" fx="10%" fy="10%">     <stop offset="0%" stop-color="#ffffff" stop-opacity="0" id="oryx_8A59937D-87A5-4649-9AFF-8EC57CDD413C_oryx_8A59937D-87A5-4649-9AFF-8EC57CDD413C_4"/>     <stop offset="100%" stop-color="#ffffff" stop-opacity="0" id="oryx_8A59937D-87A5-4649-9AFF-8EC57CDD413C_oryx_8A59937D-87A5-4649-9AFF-8EC57CDD413C_5"/>      </radialGradient>     </defs>     <rect id="oryx_8A59937D-87A5-4649-9AFF-8EC57CDD413Cbg_frame" oryx:anchors="left top" x="0" y="0" width="477" height="48" stroke="none" fill="url(#oryx_8A59937D-87A5-4649-9AFF-8EC57CDD413Ctransparent)" class="transparent"/>    <g id="oryx_8A59937D-87A5-4649-9AFF-8EC57CDD413Ca">    <rect id="oryx_8A59937D-87A5-4649-9AFF-8EC57CDD413Clabel" oryx:anchors="left top" x="0" y="0" width="472" height="24" stroke="none" fill="url(#oryx_8A59937D-87A5-4649-9AFF-8EC57CDD413Ctransparent)" class="transparent"/>    <text id="oryx_8A59937D-87A5-4649-9AFF-8EC57CDD413Clabel_text" oryx:anchors="left top" font-size="11" x="5" y="12" oryx:align="middle left" stroke="black" stroke-width="0pt" letter-spacing="0.002367677280685821px" oryx:fontSize="11" transform="rotate(0 5 12)" text-anchor="start"><tspan dy="4" x="5" y="12">Age</tspan></text>   </g>      <g id="oryx_8A59937D-87A5-4649-9AFF-8EC57CDD413Cb" stroke="#000000">     <path id="oryx_8A59937D-87A5-4649-9AFF-8EC57CDD413Cinput" oryx:anchors="left top" d=" M465.0000000000001 24  L465.0000000000001 48  L0 48  L0 24  L465.0000000000001 24  z M465.0000000000001 24 " marker-end="url(#oryx_8A59937D-87A5-4649-9AFF-8EC57CDD413Cnumber_marker)" style="fill:white;opacity:0.9999;"/>     <text id="oryx_8A59937D-87A5-4649-9AFF-8EC57CDD413Cinput_text" oryx:anchors="left top" oryx:align="middle left" font-size="11" x="5" y="36" stroke="black" fill="gray" font-style="italic" stroke-width="0pt" letter-spacing="0.008035144725643496px" oryx:fontSize="11" transform="rotate(0 5 36)" text-anchor="start"><tspan dy="4" x="5" y="36">{{age}}</tspan></text>   </g>        <g id="oryx_8A59937D-87A5-4649-9AFF-8EC57CDD413Cc" transform="translate(1,8)">    <path id="oryx_8A59937D-87A5-4649-9AFF-8EC57CDD413Cmandatory_Indicator" oryx:anchors="middle left" d=" m476.54274 27.84138  l-2.49912 0  l-0.77223 2.37422  l-0.77227 -2.37422  l-2.49912 0  l2.02183 -1.46721  l-0.77229 -2.37417  l2.02184 1.46732  l2.02183 -1.46732  l-0.77232 2.37417  l2.02184 1.46721  z" stroke="#ff0000" fill="#ff0000" style="cursor:pointer" original-stroke="#ff0000" original-fill="#ff0000" display="inherit"/>   </g>    <g id="oryx_8A59937D-87A5-4649-9AFF-8EC57CDD413Cd">    <path id="oryx_8A59937D-87A5-4649-9AFF-8EC57CDD413Cfeedback_Indicator" oryx:anchors="left top" d="M300,15 320,15 310,0 Z M310 4 L310 10 Z M310 11 L310 13 Z" stroke="black" fill="#ff0000" display="none"/>   </g>      <g id="oryx_8A59937D-87A5-4649-9AFF-8EC57CDD413Ce">    <rect id="oryx_8A59937D-87A5-4649-9AFF-8EC57CDD413Cdesc" oryx:anchors="left top" stroke="none" fill="url(#oryx_8A59937D-87A5-4649-9AFF-8EC57CDD413Ctransparent)" x="0" y="0" height="24" width="465" display="none" class="transparent"/>    <text id="oryx_8A59937D-87A5-4649-9AFF-8EC57CDD413Cdesc_text" oryx:anchors="left top" oryx:align="middle left" font-size="11" x="0" y="12" stroke="black" fill="gray" font-style="italic" display="none" stroke-width="0pt" letter-spacing="0.005291877518987144px" oryx:fontSize="11" transform="rotate(0 0 12)" text-anchor="start"/>   </g>     </g></g><g class="children" style="overflow:hidden"/><g class="edge"/><path id="warningId-oryx_8A59937D-87A5-4649-9AFF-8EC57CDD413C" class="validationError" title="" stroke-width="1" stroke="red" fill="white" d="M5,-5 L20,-5 L12,-20 z M12,-15 L12,-10 M12,-9 L12,-7" line-captions="round" style="cursor:pointer" data-html="true" display="none"/></g><g class="controls"><g class="dockers"/><g class="magnets" transform="translate(507, 25)"><g pointer-events="all" display="none" transform="translate(486.6282608695651, 16)"><circle cx="8" cy="8" r="4" stroke="none" fill="red" fill-opacity="0.3"/></g></g></g></g><g id="svg-cloud-single-select3"><g class="stencils" transform="translate(507, 98)"><g class="me"><g oryx:minimumSize="25 26" id="oryx_D148C1E4-7873-4197-B06C-7917D5A3E04B" title="cloud-single-select">   <defs id="oryx_D148C1E4-7873-4197-B06C-7917D5A3E04B_oryx_D148C1E4-7873-4197-B06C-7917D5A3E04B_2">       <marker id="oryx_D148C1E4-7873-4197-B06C-7917D5A3E04Bsearch_marker" refX="25" refY="0" markerWidth="20" markerHeight="24">         <path d="M1 1 L1 23 Z M7 5 A 4 4 0 0 0 16 16 M7 5 A 4 4 0 0 1 16 16 M 16 16 L 22 22 Z M 16 15 L 22 21 Z" oryx:anchors="left top" fill="none" id="oryx_D148C1E4-7873-4197-B06C-7917D5A3E04B_oryx_D148C1E4-7873-4197-B06C-7917D5A3E04B_3"/>    </marker>    <radialGradient id="oryx_D148C1E4-7873-4197-B06C-7917D5A3E04Btransparent" cx="10%" cy="10%" r="100%" fx="10%" fy="10%">     <stop offset="0%" stop-color="#ffffff" stop-opacity="0" id="oryx_D148C1E4-7873-4197-B06C-7917D5A3E04B_oryx_D148C1E4-7873-4197-B06C-7917D5A3E04B_4"/>     <stop offset="100%" stop-color="#ffffff" stop-opacity="0" id="oryx_D148C1E4-7873-4197-B06C-7917D5A3E04B_oryx_D148C1E4-7873-4197-B06C-7917D5A3E04B_5"/>       </radialGradient>      </defs>      <rect id="oryx_D148C1E4-7873-4197-B06C-7917D5A3E04Bbg_frame" oryx:anchors="left top" x="0" y="0" width="477" height="48" stroke="none" fill="url(#oryx_D148C1E4-7873-4197-B06C-7917D5A3E04Btransparent)" class="transparent"/>    <g id="oryx_D148C1E4-7873-4197-B06C-7917D5A3E04Ba">    <rect id="oryx_D148C1E4-7873-4197-B06C-7917D5A3E04Blabel" oryx:anchors="left top" x="0" y="0" width="472" height="24" stroke="none" fill="url(#oryx_D148C1E4-7873-4197-B06C-7917D5A3E04Btransparent)" class="transparent"/>    <text id="oryx_D148C1E4-7873-4197-B06C-7917D5A3E04Blabel_text" oryx:anchors="left top" oryx:align="middle left" font-size="11" x="5" y="12" stroke="black" stroke-width="0pt" letter-spacing="0.00018600486290918595px" oryx:fontSize="11" transform="rotate(0 5 12)" text-anchor="start"><tspan dy="4" x="5" y="12">Nationality</tspan></text>   </g>      <g id="oryx_D148C1E4-7873-4197-B06C-7917D5A3E04Bb">       <path id="oryx_D148C1E4-7873-4197-B06C-7917D5A3E04Binput" oryx:anchors="left top" d=" M465.0000000000001 24  L465.0000000000001 48  L0 48  L0 24  L465.0000000000001 24  z" marker-end="url(#oryx_D148C1E4-7873-4197-B06C-7917D5A3E04Bsearch_marker)" fill="none" style="opacity:0.9999;"/>             <text id="oryx_D148C1E4-7873-4197-B06C-7917D5A3E04Binput_text" oryx:anchors="left top" oryx:align="middle left" font-size="11" x="5" y="36" stroke="black" fill="gray" font-style="italic" stroke-width="0pt" letter-spacing="0.009275494843717194px" oryx:fontSize="11" transform="rotate(0 5 36)" text-anchor="start"><tspan dy="4" x="5" y="36">{{nationality}}</tspan></text>   </g>      <g id="oryx_D148C1E4-7873-4197-B06C-7917D5A3E04Bc" transform="translate(1,8)">    <path id="oryx_D148C1E4-7873-4197-B06C-7917D5A3E04Bmandatory_Indicator" oryx:anchors="middle left" d=" m14.30275 21.434447692307693  l-2.49912 0  l-0.77223 2.37422  l-0.77227 -2.37422  l-2.49912 0  l2.02183 -1.46721  l-0.77229 -2.37417  l2.02184 1.46732  l2.02183 -1.46732  l-0.77232 2.37417  l2.02184 1.46721  z" stroke="#ff0000" fill="#ff0000" display="none" style="cursor:pointer" original-stroke="#ff0000" original-fill="#ff0000"/>   </g>      <g id="oryx_D148C1E4-7873-4197-B06C-7917D5A3E04Bd">    <path id="oryx_D148C1E4-7873-4197-B06C-7917D5A3E04Bfeedback_Indicator" oryx:anchors="left top" d="M300,15 320,15 310,0 Z M310 4 L310 10 Z M310 11 L310 13 Z" stroke="black" fill="#ff0000" display="none"/>   </g>        <g id="oryx_D148C1E4-7873-4197-B06C-7917D5A3E04Be">    <rect id="oryx_D148C1E4-7873-4197-B06C-7917D5A3E04Bdesc" oryx:anchors="left top" stroke="none" fill="url(#oryx_D148C1E4-7873-4197-B06C-7917D5A3E04Btransparent)" x="0" y="0" height="24" width="465" display="none" class="transparent"/>    <text id="oryx_D148C1E4-7873-4197-B06C-7917D5A3E04Bdesc_text" oryx:anchors="left top" oryx:align="middle left" font-size="11" x="0" y="12" stroke="black" fill="gray" font-style="italic" display="none" stroke-width="0pt" letter-spacing="0.008462491191962246px" oryx:fontSize="11" transform="rotate(0 0 12)" text-anchor="start"/>   </g>       </g></g><g class="children" style="overflow:hidden"/><g class="edge"/><path id="warningId-oryx_D148C1E4-7873-4197-B06C-7917D5A3E04B" class="validationError" title="" stroke-width="1" stroke="red" fill="white" d="M5,-5 L20,-5 L12,-20 z M12,-15 L12,-10 M12,-9 L12,-7" line-captions="round" style="cursor:pointer" data-html="true" display="none"/></g><g class="controls"><g class="dockers"/><g class="magnets" transform="translate(507, 98)"><g pointer-events="all" display="none" transform="translate(230.49999999999991, 16)"><circle cx="8" cy="8" r="4" stroke="none" fill="red" fill-opacity="0.3"/></g></g></g></g><g id="svg-cloud-integer-number5"><g class="stencils" transform="translate(15, 244)"><g class="me"><g oryx:minimumSize="20 26" id="oryx_5D86CD0A-3E77-43FB-BEE4-953C12D0EE52" title="cloud-integer-number">   <defs id="oryx_5D86CD0A-3E77-43FB-BEE4-953C12D0EE52_oryx_5D86CD0A-3E77-43FB-BEE4-953C12D0EE52_2">         <marker id="oryx_5D86CD0A-3E77-43FB-BEE4-953C12D0EE52number_marker" refX="25" refY="0" markerWidth="24" markerHeight="24">         <path d="M1,32 1,0 M10,21 10,4  M17,21 17,4 Z M5,10 21,10 Z  M5,16 21,16 Z" oryx:anchors="left top" fill="black" id="oryx_5D86CD0A-3E77-43FB-BEE4-953C12D0EE52_oryx_5D86CD0A-3E77-43FB-BEE4-953C12D0EE52_3"/>      </marker>      <radialGradient id="oryx_5D86CD0A-3E77-43FB-BEE4-953C12D0EE52transparent" cx="10%" cy="10%" r="100%" fx="10%" fy="10%">     <stop offset="0%" stop-color="#ffffff" stop-opacity="0" id="oryx_5D86CD0A-3E77-43FB-BEE4-953C12D0EE52_oryx_5D86CD0A-3E77-43FB-BEE4-953C12D0EE52_4"/>     <stop offset="100%" stop-color="#ffffff" stop-opacity="0" id="oryx_5D86CD0A-3E77-43FB-BEE4-953C12D0EE52_oryx_5D86CD0A-3E77-43FB-BEE4-953C12D0EE52_5"/>      </radialGradient>     </defs>     <rect id="oryx_5D86CD0A-3E77-43FB-BEE4-953C12D0EE52bg_frame" oryx:anchors="left top" x="0" y="0" width="395" height="48" stroke="none" fill="url(#oryx_5D86CD0A-3E77-43FB-BEE4-953C12D0EE52transparent)" class="transparent"/>    <g id="oryx_5D86CD0A-3E77-43FB-BEE4-953C12D0EE52a">    <rect id="oryx_5D86CD0A-3E77-43FB-BEE4-953C12D0EE52label" oryx:anchors="left top" x="0" y="0" width="390" height="24" stroke="none" fill="url(#oryx_5D86CD0A-3E77-43FB-BEE4-953C12D0EE52transparent)" class="transparent"/>    <text id="oryx_5D86CD0A-3E77-43FB-BEE4-953C12D0EE52label_text" oryx:anchors="left top" font-size="11" x="5" y="12" oryx:align="middle left" stroke="black" stroke-width="0pt" letter-spacing="0.009398324543488575px" oryx:fontSize="11" transform="rotate(0 5 12)" text-anchor="start"><tspan dy="4" x="5" y="12">Requested loan</tspan></text>   </g>      <g id="oryx_5D86CD0A-3E77-43FB-BEE4-953C12D0EE52b" stroke="#000000">     <path id="oryx_5D86CD0A-3E77-43FB-BEE4-953C12D0EE52input" oryx:anchors="left top" d=" M383.00000000000006 24  L383.00000000000006 48  L0 48  L0 24  L383.00000000000006 24  z M383.00000000000006 24 " marker-end="url(#oryx_5D86CD0A-3E77-43FB-BEE4-953C12D0EE52number_marker)" style="fill:white;opacity:0.9999;"/>     <text id="oryx_5D86CD0A-3E77-43FB-BEE4-953C12D0EE52input_text" oryx:anchors="left top" oryx:align="middle left" font-size="11" x="5" y="36" stroke="black" fill="gray" font-style="italic" stroke-width="0pt" letter-spacing="0.006313848724853863px" oryx:fontSize="11" transform="rotate(0 5 36)" text-anchor="start"><tspan dy="4" x="5" y="36">{{requestedLoan}}</tspan></text>   </g>        <g id="oryx_5D86CD0A-3E77-43FB-BEE4-953C12D0EE52c" transform="translate(1,8)">    <path id="oryx_5D86CD0A-3E77-43FB-BEE4-953C12D0EE52mandatory_Indicator" oryx:anchors="middle left" d=" m394.54274 18.54918335950665  l-2.49912 0  l-0.77223 2.37422  l-0.77227 -2.37422  l-2.49912 0  l2.02183 -1.46721  l-0.77229 -2.37417  l2.02184 1.46732  l2.02183 -1.46732  l-0.77232 2.37417  l2.02184 1.46721  z" stroke="#ff0000" fill="#ff0000" style="cursor:pointer" original-stroke="#ff0000" original-fill="#ff0000" display="inherit"/>   </g>    <g id="oryx_5D86CD0A-3E77-43FB-BEE4-953C12D0EE52d">    <path id="oryx_5D86CD0A-3E77-43FB-BEE4-953C12D0EE52feedback_Indicator" oryx:anchors="left top" d="M300,15 320,15 310,0 Z M310 4 L310 10 Z M310 11 L310 13 Z" stroke="black" fill="#ff0000" display="none"/>   </g>      <g id="oryx_5D86CD0A-3E77-43FB-BEE4-953C12D0EE52e">    <rect id="oryx_5D86CD0A-3E77-43FB-BEE4-953C12D0EE52desc" oryx:anchors="left top" stroke="none" fill="url(#oryx_5D86CD0A-3E77-43FB-BEE4-953C12D0EE52transparent)" x="0" y="0" height="24" width="383" display="none" class="transparent"/>    <text id="oryx_5D86CD0A-3E77-43FB-BEE4-953C12D0EE52desc_text" oryx:anchors="left top" oryx:align="middle left" font-size="11" x="0" y="12" stroke="black" fill="gray" font-style="italic" display="none" stroke-width="0pt" letter-spacing="0.0015729756280701795px" oryx:fontSize="11" transform="rotate(0 0 12)" text-anchor="start"/>   </g>     </g></g><g class="children" style="overflow:hidden"/><g class="edge"/><path id="warningId-oryx_5D86CD0A-3E77-43FB-BEE4-953C12D0EE52" class="validationError" title="" stroke-width="1" stroke="red" fill="white" d="M5,-5 L20,-5 L12,-20 z M12,-15 L12,-10 M12,-9 L12,-7" line-captions="round" style="cursor:pointer" data-html="true" display="none"/></g><g class="controls"><g class="dockers"/><g class="magnets" transform="translate(15, 244)"><g pointer-events="all" display="none" transform="translate(189.5, 16)"><circle cx="8" cy="8" r="4" stroke="none" fill="red" fill-opacity="0.3"/></g></g></g></g><g id="svg-cloud-integer-number6"><g class="stencils" transform="translate(507, 244)"><g class="me"><g oryx:minimumSize="20 26" id="oryx_1C730628-6429-4DAA-B5FD-E33E434591B3" title="cloud-integer-number">   <defs id="oryx_1C730628-6429-4DAA-B5FD-E33E434591B3_oryx_1C730628-6429-4DAA-B5FD-E33E434591B3_2">         <marker id="oryx_1C730628-6429-4DAA-B5FD-E33E434591B3number_marker" refX="25" refY="0" markerWidth="24" markerHeight="24">         <path d="M1,32 1,0 M10,21 10,4  M17,21 17,4 Z M5,10 21,10 Z  M5,16 21,16 Z" oryx:anchors="left top" fill="black" id="oryx_1C730628-6429-4DAA-B5FD-E33E434591B3_oryx_1C730628-6429-4DAA-B5FD-E33E434591B3_3"/>      </marker>      <radialGradient id="oryx_1C730628-6429-4DAA-B5FD-E33E434591B3transparent" cx="10%" cy="10%" r="100%" fx="10%" fy="10%">     <stop offset="0%" stop-color="#ffffff" stop-opacity="0" id="oryx_1C730628-6429-4DAA-B5FD-E33E434591B3_oryx_1C730628-6429-4DAA-B5FD-E33E434591B3_4"/>     <stop offset="100%" stop-color="#ffffff" stop-opacity="0" id="oryx_1C730628-6429-4DAA-B5FD-E33E434591B3_oryx_1C730628-6429-4DAA-B5FD-E33E434591B3_5"/>      </radialGradient>     </defs>     <rect id="oryx_1C730628-6429-4DAA-B5FD-E33E434591B3bg_frame" oryx:anchors="left top" x="0" y="0" width="477" height="48" stroke="none" fill="url(#oryx_1C730628-6429-4DAA-B5FD-E33E434591B3transparent)" class="transparent"/>    <g id="oryx_1C730628-6429-4DAA-B5FD-E33E434591B3a">    <rect id="oryx_1C730628-6429-4DAA-B5FD-E33E434591B3label" oryx:anchors="left top" x="0" y="0" width="472" height="24" stroke="none" fill="url(#oryx_1C730628-6429-4DAA-B5FD-E33E434591B3transparent)" class="transparent"/>    <text id="oryx_1C730628-6429-4DAA-B5FD-E33E434591B3label_text" oryx:anchors="left top" font-size="11" x="5" y="12" oryx:align="middle left" stroke="black" stroke-width="0pt" letter-spacing="0.004551706162049469px" oryx:fontSize="11" transform="rotate(0 5 12)" text-anchor="start"><tspan dy="4" x="5" y="12">Salary</tspan></text>   </g>      <g id="oryx_1C730628-6429-4DAA-B5FD-E33E434591B3b" stroke="#000000">     <path id="oryx_1C730628-6429-4DAA-B5FD-E33E434591B3input" oryx:anchors="left top" d=" M465.0000000000001 24  L465.0000000000001 48  L0 48  L0 24  L465.0000000000001 24  z M465.0000000000001 24 " marker-end="url(#oryx_1C730628-6429-4DAA-B5FD-E33E434591B3number_marker)" style="fill:white;opacity:0.9999;"/>     <text id="oryx_1C730628-6429-4DAA-B5FD-E33E434591B3input_text" oryx:anchors="left top" oryx:align="middle left" font-size="11" x="5" y="36" stroke="black" fill="gray" font-style="italic" stroke-width="0pt" letter-spacing="0.002725011715089028px" oryx:fontSize="11" transform="rotate(0 5 36)" text-anchor="start"><tspan dy="4" x="5" y="36">{{salary}}</tspan></text>   </g>        <g id="oryx_1C730628-6429-4DAA-B5FD-E33E434591B3c" transform="translate(1,8)">    <path id="oryx_1C730628-6429-4DAA-B5FD-E33E434591B3mandatory_Indicator" oryx:anchors="middle left" d=" m476.54274 18.54918335950665  l-2.49912 0  l-0.77223 2.37422  l-0.77227 -2.37422  l-2.49912 0  l2.02183 -1.46721  l-0.77229 -2.37417  l2.02184 1.46732  l2.02183 -1.46732  l-0.77232 2.37417  l2.02184 1.46721  z" stroke="#ff0000" fill="#ff0000" style="cursor:pointer" original-stroke="#ff0000" original-fill="#ff0000" display="inherit"/>   </g>    <g id="oryx_1C730628-6429-4DAA-B5FD-E33E434591B3d">    <path id="oryx_1C730628-6429-4DAA-B5FD-E33E434591B3feedback_Indicator" oryx:anchors="left top" d="M300,15 320,15 310,0 Z M310 4 L310 10 Z M310 11 L310 13 Z" stroke="black" fill="#ff0000" display="none"/>   </g>      <g id="oryx_1C730628-6429-4DAA-B5FD-E33E434591B3e">    <rect id="oryx_1C730628-6429-4DAA-B5FD-E33E434591B3desc" oryx:anchors="left top" stroke="none" fill="url(#oryx_1C730628-6429-4DAA-B5FD-E33E434591B3transparent)" x="0" y="0" height="24" width="465" display="none" class="transparent"/>    <text id="oryx_1C730628-6429-4DAA-B5FD-E33E434591B3desc_text" oryx:anchors="left top" oryx:align="middle left" font-size="11" x="0" y="12" stroke="black" fill="gray" font-style="italic" display="none" stroke-width="0pt" letter-spacing="0.0014826296321928981px" oryx:fontSize="11" transform="rotate(0 0 12)" text-anchor="start"/>   </g>     </g></g><g class="children" style="overflow:hidden"/><g class="edge"/><path id="warningId-oryx_1C730628-6429-4DAA-B5FD-E33E434591B3" class="validationError" title="" stroke-width="1" stroke="red" fill="white" d="M5,-5 L20,-5 L12,-20 z M12,-15 L12,-10 M12,-9 L12,-7" line-captions="round" style="cursor:pointer" data-html="true" display="none"/></g><g class="controls"><g class="dockers"/><g class="magnets" transform="translate(507, 244)"><g pointer-events="all" display="none" transform="translate(230.49999999999994, 16)"><circle cx="8" cy="8" r="4" stroke="none" fill="red" fill-opacity="0.3"/></g></g></g></g></g><g class="edge"/><g class="panelcell" display="none" transform="translate(503, 279.6016307692308)"><rect x="0" y="0" stroke-width="2" stroke="#FF0000" fill="none" pointer-events="none" width="485" height="81.03566282562502"/></g><path id="warningId-oryx_7C7033B2-B3EA-4AC4-A9B3-0478551360EE" class="validationError" title="" stroke-width="1" stroke="red" fill="white" d="M5,-5 L20,-5 L12,-20 z M12,-15 L12,-10 M12,-9 L12,-7" line-captions="round" style="cursor:pointer" data-html="true" display="none"/></g><g class="controls"><g class="dockers"/><g class="magnets" transform="translate(50, 50)"><g pointer-events="all" display="none" transform="translate(491.50000000000017, 150.5)"><circle cx="8" cy="8" r="4" stroke="none" fill="red" fill-opacity="0.3"/></g></g></g></g></g><g class="edge"/></g></g></svg>