<svg xmlns="http://www.w3.org/2000/svg" xmlns:oryx="http://oryx-editor.org" id="oryx_1948B638-EA4F-46DE-BAD2-2F5CD5F71C7E" width="1049" height="241" xmlns:xlink="http://www.w3.org/1999/xlink" xmlns:svg="http://www.w3.org/2000/svg"><defs/><g stroke="black" font-family="arial,sans-serif" font-size-adjust="none" font-style="normal" font-variant="normal" font-weight="normal" line-heigth="normal" font-size="12"><g class="stencils" transform="translate(-25, -25)"><g class="me"/><g class="children"><g id="svg-panel1"><g class="stencils" transform="translate(50, 50)"><g class="me"><g oryx:minimumSize="40 34" id="oryx_3D0BB3F6-0525-458F-8FD6-F7F24BA33C8B" title="SlotPanel">     <rect id="oryx_3D0BB3F6-0525-458F-8FD6-F7F24BA33C8Binput" oryx:anchors="left top" oryx:resize="vertical horizontal" x="0" y="0" width="999.0000000000001" height="191" stroke="#777777" stroke-width="1" fill="#ffffff"/>   </g></g><g class="background"><g class="cellBg" display="inherit" transform="translate(11, 21)"><rect x="0" y="0" stroke-width="2" stroke="none" fill="#ffffff" pointer-events="all" width="977" height="76"/></g><g class="cellBg" display="inherit" transform="translate(11, 21)"><rect x="0" y="0" stroke-width="2" stroke="none" fill="#ffffff" pointer-events="all" width="977" height="76"/></g><g class="cellBg" display="inherit" transform="translate(11, 21)"><rect x="0" y="0" stroke-width="2" stroke="none" fill="#ffffff" pointer-events="all" width="977" height="76"/></g><g class="cellBg" display="inherit" transform="translate(11, 21)"><rect x="0" y="0" stroke-width="2" stroke="none" fill="#ffffff" pointer-events="all" width="977" height="76"/></g><g class="cellBg" display="inherit" transform="translate(11, 21)"><rect x="0" y="0" stroke-width="2" stroke="none" fill="#ffffff" pointer-events="all" width="977" height="76"/></g><g class="cellBg" display="inherit" transform="translate(11, 21)"><rect x="0" y="0" stroke-width="2" stroke="none" fill="#ffffff" pointer-events="all" width="977" height="76"/></g><g class="cellBg" display="inherit" transform="translate(11, 114)"><rect x="0" y="0" stroke-width="2" stroke="none" fill="#ffffff" pointer-events="all" width="977" height="58"/></g><g class="cellBg" display="inherit" transform="translate(11, 114)"><rect x="0" y="0" stroke-width="2" stroke="none" fill="#ffffff" pointer-events="all" width="977" height="58"/></g><g class="cellBg" display="inherit" transform="translate(11, 114)"><rect x="0" y="0" stroke-width="2" stroke="none" fill="#ffffff" pointer-events="all" width="977" height="58"/></g><g class="cellBg" display="inherit" transform="translate(11, 114)"><rect x="0" y="0" stroke-width="2" stroke="none" fill="#ffffff" pointer-events="all" width="977" height="58"/></g><g class="cellBg" display="inherit" transform="translate(11, 114)"><rect x="0" y="0" stroke-width="2" stroke="none" fill="#ffffff" pointer-events="all" width="977" height="58"/></g><g class="cellBg" display="inherit" transform="translate(11, 114)"><rect x="0" y="0" stroke-width="2" stroke="none" fill="#ffffff" pointer-events="all" width="977" height="58"/></g><g class="cellBg" display="inherit" transform="translate(11, 114)"><rect x="0" y="0" stroke-width="2" stroke="none" fill="#ffffff" pointer-events="all" width="977" height="58"/></g><g class="cellBg" display="inherit" transform="translate(11, 114)"><rect x="0" y="0" stroke-width="2" stroke="none" fill="#ffffff" pointer-events="all" width="977" height="58"/></g><g class="cellBg" display="inherit" transform="translate(11, 114)"><rect x="0" y="0" stroke-width="2" stroke="none" fill="#ffffff" pointer-events="all" width="977" height="58"/></g><g class="cellBg" display="inherit" transform="translate(11, 114)"><rect x="0" y="0" stroke-width="2" stroke="none" fill="#ffffff" pointer-events="all" width="977" height="58"/></g><g class="cellBg" display="inherit" transform="translate(11, 114)"><rect x="0" y="0" stroke-width="2" stroke="none" fill="#ffffff" pointer-events="all" width="977" height="58"/></g><g class="cellBg" display="inherit" transform="translate(11, 114)"><rect x="0" y="0" stroke-width="2" stroke="none" fill="#ffffff" pointer-events="all" width="977" height="58"/></g><g class="cellBg" display="inherit" transform="translate(11, 21)"><rect x="0" y="0" stroke-width="2" stroke="none" fill="#ffffff" pointer-events="all" width="977" height="76"/></g><g class="cellBg" display="inherit" transform="translate(11, 21)"><rect x="0" y="0" stroke-width="2" stroke="none" fill="#ffffff" pointer-events="all" width="977" height="76"/></g><g class="cellBg" display="inherit" transform="translate(11, 21)"><rect x="0" y="0" stroke-width="2" stroke="none" fill="#ffffff" pointer-events="all" width="977" height="76"/></g><g class="cellBg" display="inherit" transform="translate(11, 21)"><rect x="0" y="0" stroke-width="2" stroke="none" fill="#ffffff" pointer-events="all" width="977" height="76"/></g><g class="cellBg" display="inherit" transform="translate(11, 21)"><rect x="0" y="0" stroke-width="2" stroke="none" fill="#ffffff" pointer-events="all" width="977" height="76"/></g><g class="cellBg" display="inherit" transform="translate(11, 21)"><rect x="0" y="0" stroke-width="2" stroke="none" fill="#ffffff" pointer-events="all" width="977" height="76"/></g><g class="columnBackground split" display="none"><rect x="0" y="0" stroke="none" fill="#ffffff" pointer-events="none"/></g></g><g class="gridline"><g class="panelgridline" display="inherit"><path stroke-width="1" stroke="silver" fill="none" stroke-dasharray="4,2" pointer-events="none" d="M0 114 L 999.0000000000001 114"/></g><g class="panelgridline" display="inherit"><path stroke-width="1" stroke="silver" fill="none" stroke-dasharray="4,2" pointer-events="none" d="M0 172 L 999.0000000000001 172"/></g><g class="panelgridline" display="inherit"><path stroke-width="1" stroke="silver" fill="none" stroke-dasharray="4,2" pointer-events="none" d="M0 21 L 999.0000000000001 21"/></g><g class="panelgridline" display="inherit"><path stroke-width="1" stroke="silver" fill="none" stroke-dasharray="4,2" pointer-events="none" d="M0 97 L 999.0000000000001 97"/></g><g class="panelgridline" display="inherit"><path stroke-width="1" stroke="silver" fill="none" stroke-dasharray="4,2" pointer-events="none" d="M913 0 L 913 191"/></g><g class="panelgridline" display="inherit"><path stroke-width="1" stroke="silver" fill="none" stroke-dasharray="4,2" pointer-events="none" d="M988 0 L 988 191"/></g><g class="panelgridline" display="inherit"><path stroke-width="1" stroke="silver" fill="none" stroke-dasharray="4,2" pointer-events="none" d="M831 0 L 831 191"/></g><g class="panelgridline" display="inherit"><path stroke-width="1" stroke="silver" fill="none" stroke-dasharray="4,2" pointer-events="none" d="M906 0 L 906 191"/></g><g class="panelgridline" display="inherit"><path stroke-width="1" stroke="silver" fill="none" stroke-dasharray="4,2" pointer-events="none" d="M749 0 L 749 191"/></g><g class="panelgridline" display="inherit"><path stroke-width="1" stroke="silver" fill="none" stroke-dasharray="4,2" pointer-events="none" d="M824 0 L 824 191"/></g><g class="panelgridline" display="inherit"><path stroke-width="1" stroke="silver" fill="none" stroke-dasharray="4,2" pointer-events="none" d="M667 0 L 667 191"/></g><g class="panelgridline" display="inherit"><path stroke-width="1" stroke="silver" fill="none" stroke-dasharray="4,2" pointer-events="none" d="M742 0 L 742 191"/></g><g class="panelgridline" display="inherit"><path stroke-width="1" stroke="silver" fill="none" stroke-dasharray="4,2" pointer-events="none" d="M585 0 L 585 191"/></g><g class="panelgridline" display="inherit"><path stroke-width="1" stroke="silver" fill="none" stroke-dasharray="4,2" pointer-events="none" d="M660 0 L 660 191"/></g><g class="panelgridline" display="inherit"><path stroke-width="1" stroke="silver" fill="none" stroke-dasharray="4,2" pointer-events="none" d="M503 0 L 503 191"/></g><g class="panelgridline" display="inherit"><path stroke-width="1" stroke="silver" fill="none" stroke-dasharray="4,2" pointer-events="none" d="M578 0 L 578 191"/></g><g class="panelgridline" display="inherit"><path stroke-width="1" stroke="silver" fill="none" stroke-dasharray="4,2" pointer-events="none" d="M421 0 L 421 191"/></g><g class="panelgridline" display="inherit"><path stroke-width="1" stroke="silver" fill="none" stroke-dasharray="4,2" pointer-events="none" d="M496 0 L 496 191"/></g><g class="panelgridline" display="inherit"><path stroke-width="1" stroke="silver" fill="none" stroke-dasharray="4,2" pointer-events="none" d="M339 0 L 339 191"/></g><g class="panelgridline" display="inherit"><path stroke-width="1" stroke="silver" fill="none" stroke-dasharray="4,2" pointer-events="none" d="M414 0 L 414 191"/></g><g class="panelgridline" display="inherit"><path stroke-width="1" stroke="silver" fill="none" stroke-dasharray="4,2" pointer-events="none" d="M257 0 L 257 191"/></g><g class="panelgridline" display="inherit"><path stroke-width="1" stroke="silver" fill="none" stroke-dasharray="4,2" pointer-events="none" d="M332 0 L 332 191"/></g><g class="panelgridline" display="inherit"><path stroke-width="1" stroke="silver" fill="none" stroke-dasharray="4,2" pointer-events="none" d="M175 0 L 175 191"/></g><g class="panelgridline" display="inherit"><path stroke-width="1" stroke="silver" fill="none" stroke-dasharray="4,2" pointer-events="none" d="M250 0 L 250 191"/></g><g class="panelgridline" display="inherit"><path stroke-width="1" stroke="silver" fill="none" stroke-dasharray="4,2" pointer-events="none" d="M93 0 L 93 191"/></g><g class="panelgridline" display="inherit"><path stroke-width="1" stroke="silver" fill="none" stroke-dasharray="4,2" pointer-events="none" d="M168 0 L 168 191"/></g><g class="panelgridline" display="inherit"><path stroke-width="1" stroke="silver" fill="none" stroke-dasharray="4,2" pointer-events="none" d="M11 0 L 11 191"/></g><g class="panelgridline" display="inherit"><path stroke-width="1" stroke="silver" fill="none" stroke-dasharray="4,2" pointer-events="none" d="M86 0 L 86 191"/></g><g class="panelgridline" display="none"><path stroke-width="1" stroke="silver" fill="none" stroke-dasharray="4,2" pointer-events="none"/></g><g class="panelgridline" display="none"><path stroke-width="1" stroke="silver" fill="none" stroke-dasharray="4,2" pointer-events="none"/></g></g><g class="children" style="overflow:hidden"><g id="svg-sub-form1"><g class="stencils" transform="translate(15, 25)"><g class="me"><g oryx:minimumSize="24 26" id="oryx_9EF18DDA-10F8-4B84-9D86-F6A5C36BDA9F" title="cloud-sub-form">         <defs id="oryx_9EF18DDA-10F8-4B84-9D86-F6A5C36BDA9F_oryx_9EF18DDA-10F8-4B84-9D86-F6A5C36BDA9F_2">    <radialGradient id="oryx_9EF18DDA-10F8-4B84-9D86-F6A5C36BDA9Ftransparent" cx="10%" cy="10%" r="100%" fx="10%" fy="10%">     <stop offset="0%" stop-color="#ffffff" stop-opacity="0" id="oryx_9EF18DDA-10F8-4B84-9D86-F6A5C36BDA9F_oryx_9EF18DDA-10F8-4B84-9D86-F6A5C36BDA9F_3"/>     <stop offset="100%" stop-color="#ffffff" stop-opacity="0" id="oryx_9EF18DDA-10F8-4B84-9D86-F6A5C36BDA9F_oryx_9EF18DDA-10F8-4B84-9D86-F6A5C36BDA9F_4"/>       </radialGradient>      </defs>    <rect id="oryx_9EF18DDA-10F8-4B84-9D86-F6A5C36BDA9Fbg_frame" oryx:anchors="left top" x="0" y="0" width="969" height="68" stroke="none" fill="url(#oryx_9EF18DDA-10F8-4B84-9D86-F6A5C36BDA9Ftransparent)" class="transparent"/>      <g id="oryx_9EF18DDA-10F8-4B84-9D86-F6A5C36BDA9Fb" stroke="#777777">    <rect id="oryx_9EF18DDA-10F8-4B84-9D86-F6A5C36BDA9Finput" oryx:anchors="left top" oryx:resize="vertical horizontal" x="0" y="0" width="969" height="68" stroke-width="1" fill="#ffffff"/>    <text id="oryx_9EF18DDA-10F8-4B84-9D86-F6A5C36BDA9Finput_text" oryx:anchors="left top" oryx:align="middle left" halign="center" valign="middle" font-size="11" x="484" y="34" refX="0" refY="0" stroke="black" fill="gray" font-style="italic" stroke-width="0pt" letter-spacing="0.0011943189309300975px" oryx:fontSize="11" transform="rotate(0 484 34)" text-anchor="start"/>    <path id="oryx_9EF18DDA-10F8-4B84-9D86-F6A5C36BDA9Finput_dependent" oryx:anchors="right top" d=" M950 11  h10  M955 6  v10  M949 11  Q955 22 961 11  M949 11  Q955 0 961 11 " refX="-20" refY="0" stroke="black" fill="none" original-stroke="black" original-fill="none" display="none"/>   </g>      <g id="oryx_9EF18DDA-10F8-4B84-9D86-F6A5C36BDA9Fa">    <rect id="oryx_9EF18DDA-10F8-4B84-9D86-F6A5C36BDA9Flabel" oryx:anchors="left top" x="1" y="0" width="0" height="24" stroke="none" fill="url(#oryx_9EF18DDA-10F8-4B84-9D86-F6A5C36BDA9Ftransparent)" class="transparent" display="none"/>     <text id="oryx_9EF18DDA-10F8-4B84-9D86-F6A5C36BDA9Flabel_text" oryx:anchors="left top" oryx:align="middle left" font-size="11" x="11" y="12" stroke="black" stroke-width="0pt" letter-spacing="0.0033173625746173692px" oryx:fontSize="11" display="none" transform="rotate(0 11 12)" text-anchor="start"/>   </g>      <g id="oryx_9EF18DDA-10F8-4B84-9D86-F6A5C36BDA9Fc" transform="translate(1,8)">    <path id="oryx_9EF18DDA-10F8-4B84-9D86-F6A5C36BDA9Fmandatory_Indicator" oryx:anchors="middle left" d=" m15.30275 14.503956000000002  l-2.49912 0  l-0.77223 2.37422  l-0.77227 -2.37422  l-2.49912 0  l2.02183 -1.46721  l-0.77229 -2.37417  l2.02184 1.46732  l2.02183 -1.46732  l-0.77232 2.37417  l2.02184 1.46721  z" stroke="#ff0000" fill="#ff0000" display="none" style="cursor:pointer" original-stroke="#ff0000" original-fill="#ff0000"/>   </g>      <g id="oryx_9EF18DDA-10F8-4B84-9D86-F6A5C36BDA9Fpin" oryx:anchors="bottom" stroke="#777777" display="none">    <path id="oryx_9EF18DDA-10F8-4B84-9D86-F6A5C36BDA9Finput_pin" oryx:anchors="center bottom" x="20" y="20" width="24" height="24" d=" M461.5 66  L464.5 61  L460.5 59  L461.5 57  L464.5 57  L468.5 52  L471.5 54  L468.5 59  L469.5 62  L468.5 64  L464.5 61  L461.5 66 " fill="url(#oryx_9EF18DDA-10F8-4B84-9D86-F6A5C36BDA9Ftransparent)" class="transparent"/>   </g>      <a id="oryx_9EF18DDA-10F8-4B84-9D86-F6A5C36BDA9Fu" target="FORM_MODEL-33e951b0-77a9-4f8f-86a3-5cf6a7f38516" style="cursor:pointer;" display="inherit" stroke="#777777" xlink:href="">     <g id="oryx_9EF18DDA-10F8-4B84-9D86-F6A5C36BDA9Fbg" oryx:anchors="bottom">     <path id="oryx_9EF18DDA-10F8-4B84-9D86-F6A5C36BDA9Finput_u" oryx:anchors="center bottom" x="0" y="0" width="24" height="24" d=" M478.5 56  L490.5 56  L490.5 68  L478.5 68  z M484.5 57  v10  M479.5 62  h10 " fill="url(#oryx_9EF18DDA-10F8-4B84-9D86-F6A5C36BDA9Ftransparent)" class="transparent" display="none"/>     <text id="oryx_9EF18DDA-10F8-4B84-9D86-F6A5C36BDA9Finput_u_text" text-decoration="underline" style="cursor:pointer;" font-size="11" x="450" y="60" refX="0" refY="0" fill="blue" font-style="italic" display="inherit" stroke-width="0pt" letter-spacing="0.002596702834059496px" oryx:fontSize="11" transform="rotate(0 450 60)" text-anchor="start"><tspan dy="0" x="450" y="60" style="cursor:pointer">details review</tspan></text>    </g>   </a>   </g></g><g class="children" style="overflow:hidden"/><g class="edge"/><path id="warningId-oryx_9EF18DDA-10F8-4B84-9D86-F6A5C36BDA9F" class="validationError" title="" stroke-width="1" stroke="red" fill="white" d="M5,-5 L20,-5 L12,-20 z M12,-15 L12,-10 M12,-9 L12,-7" line-captions="round" style="cursor:pointer" data-html="true" display="none"/></g><g class="controls"><g class="dockers"/><g class="magnets" transform="translate(15, 25)"><g pointer-events="all" display="none" transform="translate(2339.4024999999997, 26)"><circle cx="8" cy="8" r="4" stroke="none" fill="red" fill-opacity="0.3"/></g></g></g></g><g id="svg-output1"><g class="stencils" transform="translate(15, 118)"><g class="me"><g oryx:minimumSize="28 50" id="oryx_1DDFD6AE-F52A-4589-B0D5-F6F8902F7399" title="cloud-output">   <defs id="oryx_1DDFD6AE-F52A-4589-B0D5-F6F8902F7399_oryx_1DDFD6AE-F52A-4589-B0D5-F6F8902F7399_2">       <radialGradient id="oryx_1DDFD6AE-F52A-4589-B0D5-F6F8902F7399transparent" cx="10%" cy="10%" r="100%" fx="10%" fy="10%">     <stop offset="0%" stop-color="#ffffff" stop-opacity="0" id="oryx_1DDFD6AE-F52A-4589-B0D5-F6F8902F7399_oryx_1DDFD6AE-F52A-4589-B0D5-F6F8902F7399_3"/>     <stop offset="100%" stop-color="#ffffff" stop-opacity="0" id="oryx_1DDFD6AE-F52A-4589-B0D5-F6F8902F7399_oryx_1DDFD6AE-F52A-4589-B0D5-F6F8902F7399_4"/>       </radialGradient>   </defs>      <rect id="oryx_1DDFD6AE-F52A-4589-B0D5-F6F8902F7399bg_frame" oryx:anchors="left top" x="0" y="0" width="969" height="48" stroke="none" fill="url(#oryx_1DDFD6AE-F52A-4589-B0D5-F6F8902F7399transparent)" class="transparent"/>      <g id="oryx_1DDFD6AE-F52A-4589-B0D5-F6F8902F7399a">    <rect id="oryx_1DDFD6AE-F52A-4589-B0D5-F6F8902F7399label" oryx:anchors="left top" x="0" y="0" width="0" height="24" stroke="none" fill="url(#oryx_1DDFD6AE-F52A-4589-B0D5-F6F8902F7399transparent)" class="transparent" display="none"/>     <text id="oryx_1DDFD6AE-F52A-4589-B0D5-F6F8902F7399label_text" oryx:anchors="left top" oryx:align="middle left" font-size="11" x="5" y="12" stroke="black" stroke-width="0pt" letter-spacing="0.005617723724543934px" oryx:fontSize="11" display="none" transform="rotate(0 5 12)" text-anchor="start"/>   </g>     <g id="oryx_1DDFD6AE-F52A-4589-B0D5-F6F8902F7399b" stroke="#000000">     <rect id="oryx_1DDFD6AE-F52A-4589-B0D5-F6F8902F7399input" oryx:anchors="left top" fill="#F5F5F5" stroke-dasharray="10,2" x="0" y="0" height="48" width="969"/>     <path id="oryx_1DDFD6AE-F52A-4589-B0D5-F6F8902F7399input_dependent" oryx:anchors="left top" d=" M5 5  L23 5  L23 23  L5 23  L5 5  M8 9  L15 9  M11.5 9  L11.5 14  M15 13  L19.5 13  z M7.5 16  L20.5 16  M8 19  L20 19  z" stroke="black" fill="none" display="inherit" original-stroke="black" original-fill="none"/>        <text id="oryx_1DDFD6AE-F52A-4589-B0D5-F6F8902F7399input_text" oryx:anchors="left top" oryx:align="top left" font-size="11" x="30" y="18" refX="25" refY="6" stroke="black" fill="gray" font-style="italic" stroke-width="0pt" letter-spacing="0.006586838773167289px" oryx:fontSize="11" transform="rotate(0 30 18)" text-anchor="start"><tspan dy="11" x="30" y="18">&lt;p&gt;The initial reviewer proposed we should &lt;strong&gt;{{loan_outcome}}&lt;/strong&gt; this application.&lt;/p&gt;...</tspan></text>   </g>      <g id="oryx_1DDFD6AE-F52A-4589-B0D5-F6F8902F7399c" transform="translate(1,8)">    <path id="oryx_1DDFD6AE-F52A-4589-B0D5-F6F8902F7399mandatory_Indicator" oryx:anchors="middle left" d="m14.30275,11.94655l-2.49912,0l-0.77223,2.37422l-0.77227,-2.37422l-2.49912,0l2.02183,-1.46721l-0.77229,-2.37417l2.02184,1.46732l2.02183,-1.46732l-0.77232,2.37417l2.02184,1.46721z" stroke="#ff0000" fill="#ff0000" display="none" style="cursor:pointer" original-stroke="#ff0000" original-fill="#ff0000"/>   </g>     <g id="oryx_1DDFD6AE-F52A-4589-B0D5-F6F8902F7399d">    <path id="oryx_1DDFD6AE-F52A-4589-B0D5-F6F8902F7399feedback_Indicator" oryx:anchors="left top" d="M300,15 320,15 310,0 Z M310 4 L310 10 Z M310 11 L310 13 Z" stroke="black" fill="#ff0000" display="none"/>   </g>      <g id="oryx_1DDFD6AE-F52A-4589-B0D5-F6F8902F7399e">    <rect id="oryx_1DDFD6AE-F52A-4589-B0D5-F6F8902F7399desc" oryx:anchors="left top" stroke="none" fill="url(#oryx_1DDFD6AE-F52A-4589-B0D5-F6F8902F7399transparent)" x="0" y="0" height="24" width="969" display="none" class="transparent"/>    <text id="oryx_1DDFD6AE-F52A-4589-B0D5-F6F8902F7399desc_text" oryx:anchors="left top" oryx:align="middle left" font-size="11" x="0" y="12" stroke="black" fill="gray" font-style="italic" display="none" stroke-width="0pt" letter-spacing="0.0028213598597031184px" oryx:fontSize="11" transform="rotate(0 0 12)" text-anchor="start"/>   </g>  </g></g><g class="children" style="overflow:hidden"/><g class="edge"/><path id="warningId-oryx_1DDFD6AE-F52A-4589-B0D5-F6F8902F7399" class="validationError" title="" stroke-width="1" stroke="red" fill="white" d="M5,-5 L20,-5 L12,-20 z M12,-15 L12,-10 M12,-9 L12,-7" line-captions="round" style="cursor:pointer" data-html="true" display="none"/></g><g class="controls"><g class="dockers"/><g class="magnets" transform="translate(15, 118)"><g pointer-events="all" display="none" transform="translate(2339.4024999999997, 19.126736111111114)"><circle cx="8" cy="8" r="4" stroke="none" fill="red" fill-opacity="0.3"/></g></g></g></g></g><g class="edge"/><g class="panelcell" display="none"><rect x="0" y="0" stroke-width="2" stroke="#00ff00" fill="none" pointer-events="none"/></g><path id="warningId-oryx_3D0BB3F6-0525-458F-8FD6-F7F24BA33C8B" class="validationError" title="" stroke-width="1" stroke="red" fill="white" d="M5,-5 L20,-5 L12,-20 z M12,-15 L12,-10 M12,-9 L12,-7" line-captions="round" style="cursor:pointer" data-html="true" display="none"/></g><g class="controls"><g class="dockers"/><g class="magnets" transform="translate(50, 50)"><g pointer-events="all" display="none" transform="translate(491.50000000000017, 87.5)"><circle cx="8" cy="8" r="4" stroke="none" fill="red" fill-opacity="0.3"/></g></g></g></g></g><g class="edge"/></g></g></svg>