<svg xmlns="http://www.w3.org/2000/svg" xmlns:oryx="http://oryx-editor.org" id="oryx_112C2B07-A19B-4A43-A8C9-B895778D6618" width="1049" height="245" xmlns:xlink="http://www.w3.org/1999/xlink" xmlns:svg="http://www.w3.org/2000/svg"><defs/><g stroke="black" font-family="arial,sans-serif" font-size-adjust="none" font-style="normal" font-variant="normal" font-weight="normal" line-heigth="normal" font-size="12"><g class="stencils" transform="translate(-25, -25)"><g class="me"/><g class="children"><g id="svg-panel1"><g class="stencils" transform="translate(50, 50)"><g class="me"><g oryx:minimumSize="40 34" id="oryx_077A97E4-3BEB-4615-A566-A51826A57B4A" title="SlotPanel">     <rect id="oryx_077A97E4-3BEB-4615-A566-A51826A57B4Ainput" oryx:anchors="left top" oryx:resize="vertical horizontal" x="0" y="0" width="999.0000000000001" height="195" stroke="#777777" stroke-width="1" fill="#ffffff"/>   </g></g><g class="background"><g class="cellBg" display="inherit" transform="translate(11, 94)"><rect x="0" y="0" stroke-width="2" stroke="none" fill="#ffffff" pointer-events="all" width="977" height="80"/></g><g class="cellBg" display="inherit" transform="translate(11, 94)"><rect x="0" y="0" stroke-width="2" stroke="none" fill="#ffffff" pointer-events="all" width="977" height="80"/></g><g class="cellBg" display="inherit" transform="translate(11, 94)"><rect x="0" y="0" stroke-width="2" stroke="none" fill="#ffffff" pointer-events="all" width="977" height="80"/></g><g class="cellBg" display="inherit" transform="translate(11, 94)"><rect x="0" y="0" stroke-width="2" stroke="none" fill="#ffffff" pointer-events="all" width="977" height="80"/></g><g class="cellBg" display="inherit" transform="translate(11, 94)"><rect x="0" y="0" stroke-width="2" stroke="none" fill="#ffffff" pointer-events="all" width="977" height="80"/></g><g class="cellBg" display="inherit" transform="translate(11, 94)"><rect x="0" y="0" stroke-width="2" stroke="none" fill="#ffffff" pointer-events="all" width="977" height="80"/></g><g class="cellBg" display="inherit" transform="translate(11, 21)"><rect x="0" y="0" stroke-width="2" stroke="none" fill="#ffffff" pointer-events="all" width="977" height="56"/></g><g class="cellBg" display="inherit" transform="translate(11, 21)"><rect x="0" y="0" stroke-width="2" stroke="none" fill="#ffffff" pointer-events="all" width="977" height="56"/></g><g class="cellBg" display="inherit" transform="translate(11, 21)"><rect x="0" y="0" stroke-width="2" stroke="none" fill="#ffffff" pointer-events="all" width="977" height="56"/></g><g class="cellBg" display="inherit" transform="translate(11, 21)"><rect x="0" y="0" stroke-width="2" stroke="none" fill="#ffffff" pointer-events="all" width="977" height="56"/></g><g class="cellBg" display="inherit" transform="translate(11, 21)"><rect x="0" y="0" stroke-width="2" stroke="none" fill="#ffffff" pointer-events="all" width="977" height="56"/></g><g class="cellBg" display="inherit" transform="translate(11, 21)"><rect x="0" y="0" stroke-width="2" stroke="none" fill="#ffffff" pointer-events="all" width="977" height="56"/></g><g class="cellBg" display="inherit" transform="translate(11, 21)"><rect x="0" y="0" stroke-width="2" stroke="none" fill="#ffffff" pointer-events="all" width="977" height="56"/></g><g class="cellBg" display="inherit" transform="translate(11, 21)"><rect x="0" y="0" stroke-width="2" stroke="none" fill="#ffffff" pointer-events="all" width="977" height="56"/></g><g class="cellBg" display="inherit" transform="translate(11, 21)"><rect x="0" y="0" stroke-width="2" stroke="none" fill="#ffffff" pointer-events="all" width="977" height="56"/></g><g class="cellBg" display="inherit" transform="translate(11, 21)"><rect x="0" y="0" stroke-width="2" stroke="none" fill="#ffffff" pointer-events="all" width="977" height="56"/></g><g class="cellBg" display="inherit" transform="translate(11, 21)"><rect x="0" y="0" stroke-width="2" stroke="none" fill="#ffffff" pointer-events="all" width="977" height="56"/></g><g class="cellBg" display="inherit" transform="translate(11, 21)"><rect x="0" y="0" stroke-width="2" stroke="none" fill="#ffffff" pointer-events="all" width="977" height="56"/></g><g class="cellBg" display="inherit" transform="translate(11, 94)"><rect x="0" y="0" stroke-width="2" stroke="none" fill="#ffffff" pointer-events="all" width="977" height="80"/></g><g class="cellBg" display="inherit" transform="translate(11, 94)"><rect x="0" y="0" stroke-width="2" stroke="none" fill="#ffffff" pointer-events="all" width="977" height="80"/></g><g class="cellBg" display="inherit" transform="translate(11, 94)"><rect x="0" y="0" stroke-width="2" stroke="none" fill="#ffffff" pointer-events="all" width="977" height="80"/></g><g class="cellBg" display="inherit" transform="translate(11, 94)"><rect x="0" y="0" stroke-width="2" stroke="none" fill="#ffffff" pointer-events="all" width="977" height="80"/></g><g class="cellBg" display="inherit" transform="translate(11, 94)"><rect x="0" y="0" stroke-width="2" stroke="none" fill="#ffffff" pointer-events="all" width="977" height="80"/></g><g class="cellBg" display="inherit" transform="translate(11, 94)"><rect x="0" y="0" stroke-width="2" stroke="none" fill="#ffffff" pointer-events="all" width="977" height="80"/></g><g class="columnBackground split" display="none"><rect x="0" y="0" stroke="none" fill="#ffffff" pointer-events="none"/></g></g><g class="gridline"><g class="panelgridline" display="inherit"><path stroke-width="1" stroke="silver" fill="none" stroke-dasharray="4,2" pointer-events="none" d="M0 21 L 999.0000000000001 21"/></g><g class="panelgridline" display="inherit"><path stroke-width="1" stroke="silver" fill="none" stroke-dasharray="4,2" pointer-events="none" d="M0 77 L 999.0000000000001 77"/></g><g class="panelgridline" display="inherit"><path stroke-width="1" stroke="silver" fill="none" stroke-dasharray="4,2" pointer-events="none" d="M11 0 L 11 195"/></g><g class="panelgridline" display="inherit"><path stroke-width="1" stroke="silver" fill="none" stroke-dasharray="4,2" pointer-events="none" d="M86 0 L 86 195"/></g><g class="panelgridline" display="inherit"><path stroke-width="1" stroke="silver" fill="none" stroke-dasharray="4,2" pointer-events="none" d="M93 0 L 93 195"/></g><g class="panelgridline" display="inherit"><path stroke-width="1" stroke="silver" fill="none" stroke-dasharray="4,2" pointer-events="none" d="M168 0 L 168 195"/></g><g class="panelgridline" display="inherit"><path stroke-width="1" stroke="silver" fill="none" stroke-dasharray="4,2" pointer-events="none" d="M175 0 L 175 195"/></g><g class="panelgridline" display="inherit"><path stroke-width="1" stroke="silver" fill="none" stroke-dasharray="4,2" pointer-events="none" d="M250 0 L 250 195"/></g><g class="panelgridline" display="inherit"><path stroke-width="1" stroke="silver" fill="none" stroke-dasharray="4,2" pointer-events="none" d="M257 0 L 257 195"/></g><g class="panelgridline" display="inherit"><path stroke-width="1" stroke="silver" fill="none" stroke-dasharray="4,2" pointer-events="none" d="M332 0 L 332 195"/></g><g class="panelgridline" display="inherit"><path stroke-width="1" stroke="silver" fill="none" stroke-dasharray="4,2" pointer-events="none" d="M339 0 L 339 195"/></g><g class="panelgridline" display="inherit"><path stroke-width="1" stroke="silver" fill="none" stroke-dasharray="4,2" pointer-events="none" d="M414 0 L 414 195"/></g><g class="panelgridline" display="inherit"><path stroke-width="1" stroke="silver" fill="none" stroke-dasharray="4,2" pointer-events="none" d="M421 0 L 421 195"/></g><g class="panelgridline" display="inherit"><path stroke-width="1" stroke="silver" fill="none" stroke-dasharray="4,2" pointer-events="none" d="M496 0 L 496 195"/></g><g class="panelgridline" display="inherit"><path stroke-width="1" stroke="silver" fill="none" stroke-dasharray="4,2" pointer-events="none" d="M503 0 L 503 195"/></g><g class="panelgridline" display="inherit"><path stroke-width="1" stroke="silver" fill="none" stroke-dasharray="4,2" pointer-events="none" d="M578 0 L 578 195"/></g><g class="panelgridline" display="inherit"><path stroke-width="1" stroke="silver" fill="none" stroke-dasharray="4,2" pointer-events="none" d="M585 0 L 585 195"/></g><g class="panelgridline" display="inherit"><path stroke-width="1" stroke="silver" fill="none" stroke-dasharray="4,2" pointer-events="none" d="M660 0 L 660 195"/></g><g class="panelgridline" display="inherit"><path stroke-width="1" stroke="silver" fill="none" stroke-dasharray="4,2" pointer-events="none" d="M667 0 L 667 195"/></g><g class="panelgridline" display="inherit"><path stroke-width="1" stroke="silver" fill="none" stroke-dasharray="4,2" pointer-events="none" d="M742 0 L 742 195"/></g><g class="panelgridline" display="inherit"><path stroke-width="1" stroke="silver" fill="none" stroke-dasharray="4,2" pointer-events="none" d="M749 0 L 749 195"/></g><g class="panelgridline" display="inherit"><path stroke-width="1" stroke="silver" fill="none" stroke-dasharray="4,2" pointer-events="none" d="M824 0 L 824 195"/></g><g class="panelgridline" display="inherit"><path stroke-width="1" stroke="silver" fill="none" stroke-dasharray="4,2" pointer-events="none" d="M831 0 L 831 195"/></g><g class="panelgridline" display="inherit"><path stroke-width="1" stroke="silver" fill="none" stroke-dasharray="4,2" pointer-events="none" d="M906 0 L 906 195"/></g><g class="panelgridline" display="inherit"><path stroke-width="1" stroke="silver" fill="none" stroke-dasharray="4,2" pointer-events="none" d="M913 0 L 913 195"/></g><g class="panelgridline" display="inherit"><path stroke-width="1" stroke="silver" fill="none" stroke-dasharray="4,2" pointer-events="none" d="M988 0 L 988 195"/></g><g class="panelgridline" display="none"><path stroke-width="1" stroke="silver" fill="none" stroke-dasharray="4,2" pointer-events="none"/></g><g class="panelgridline" display="none"><path stroke-width="1" stroke="silver" fill="none" stroke-dasharray="4,2" pointer-events="none"/></g><g class="panelgridline" display="inherit"><path stroke-width="1" stroke="silver" fill="none" stroke-dasharray="4,2" pointer-events="none" d="M0 94 L 999.0000000000001 94"/></g><g class="panelgridline" display="inherit"><path stroke-width="1" stroke="silver" fill="none" stroke-dasharray="4,2" pointer-events="none" d="M0 174 L 999.0000000000001 174"/></g></g><g class="children" style="overflow:hidden"><g id="svg-text1"><g class="stencils" transform="translate(15, 25)"><g class="me"><g oryx:minimumSize="20 26" id="oryx_9857C9A2-354B-4C30-A131-D3C7FCA374ED" title="cloud-text">   <defs id="oryx_9857C9A2-354B-4C30-A131-D3C7FCA374ED_oryx_9857C9A2-354B-4C30-A131-D3C7FCA374ED_2">           <radialGradient id="oryx_9857C9A2-354B-4C30-A131-D3C7FCA374EDtransparent" cx="10%" cy="10%" r="100%" fx="10%" fy="10%">     <stop offset="0%" stop-color="#ffffff" stop-opacity="0" id="oryx_9857C9A2-354B-4C30-A131-D3C7FCA374ED_oryx_9857C9A2-354B-4C30-A131-D3C7FCA374ED_3"/>     <stop offset="100%" stop-color="#ffffff" stop-opacity="0" id="oryx_9857C9A2-354B-4C30-A131-D3C7FCA374ED_oryx_9857C9A2-354B-4C30-A131-D3C7FCA374ED_4"/>      </radialGradient>     </defs>     <rect id="oryx_9857C9A2-354B-4C30-A131-D3C7FCA374EDbg_frame" oryx:anchors="left top" x="0" y="0" width="969" height="48" stroke="none" fill="url(#oryx_9857C9A2-354B-4C30-A131-D3C7FCA374EDtransparent)" class="transparent"/>    <g id="oryx_9857C9A2-354B-4C30-A131-D3C7FCA374EDa">    <rect id="oryx_9857C9A2-354B-4C30-A131-D3C7FCA374EDlabel" oryx:anchors="left top" x="0" y="0" width="964" height="24" stroke="none" fill="url(#oryx_9857C9A2-354B-4C30-A131-D3C7FCA374EDtransparent)" class="transparent"/>    <text id="oryx_9857C9A2-354B-4C30-A131-D3C7FCA374EDlabel_text" oryx:anchors="left top" font-size="11" x="5" y="12" oryx:align="middle left" stroke="black" stroke-width="0pt" letter-spacing="0.0002718378471017502px" oryx:fontSize="11" transform="rotate(0 5 12)" text-anchor="start"><tspan dy="4" x="5" y="12">ID type</tspan></text>   </g>      <g id="oryx_9857C9A2-354B-4C30-A131-D3C7FCA374EDb" stroke="#000000">    <rect id="oryx_9857C9A2-354B-4C30-A131-D3C7FCA374EDinput" oryx:anchors="left top" style="fill:white;" x="0" y="24" height="24" width="969"/>    <text id="oryx_9857C9A2-354B-4C30-A131-D3C7FCA374EDinput_text" oryx:anchors="left top" oryx:align="middle left" font-size="11" x="5" y="36" stroke="black" fill="gray" font-style="italic" stroke-width="0pt" letter-spacing="0.002794938372815828px" oryx:fontSize="11" transform="rotate(0 5 36)" text-anchor="start"><tspan dy="4" x="5" y="36">{{iDType}}</tspan></text>   </g>        <g id="oryx_9857C9A2-354B-4C30-A131-D3C7FCA374EDc" transform="translate(1,8)">    <path id="oryx_9857C9A2-354B-4C30-A131-D3C7FCA374EDmandatory_Indicator" oryx:anchors="middle left" d=" m14.30275 21.434447692307693  l-2.49912 0  l-0.77223 2.37422  l-0.77227 -2.37422  l-2.49912 0  l2.02183 -1.46721  l-0.77229 -2.37417  l2.02184 1.46732  l2.02183 -1.46732  l-0.77232 2.37417  l2.02184 1.46721  z" stroke="#ff0000" fill="#ff0000" display="none" style="cursor:pointer" original-stroke="#ff0000" original-fill="#ff0000"/>   </g>    <g id="oryx_9857C9A2-354B-4C30-A131-D3C7FCA374EDd">    <path id="oryx_9857C9A2-354B-4C30-A131-D3C7FCA374EDfeedback_Indicator" oryx:anchors="left top" d="M300,15 320,15 310,0 Z M310 4 L310 10 Z M310 11 L310 13 Z" stroke="black" fill="#ff0000" display="none"/>   </g>      <g id="oryx_9857C9A2-354B-4C30-A131-D3C7FCA374EDe">    <rect id="oryx_9857C9A2-354B-4C30-A131-D3C7FCA374EDdesc" oryx:anchors="left top" stroke="none" fill="url(#oryx_9857C9A2-354B-4C30-A131-D3C7FCA374EDtransparent)" x="0" y="0" height="24" width="969" display="none" class="transparent"/>    <text id="oryx_9857C9A2-354B-4C30-A131-D3C7FCA374EDdesc_text" oryx:anchors="left top" oryx:align="middle left" font-size="11" x="0" y="12" stroke="black" fill="gray" font-style="italic" display="none" stroke-width="0pt" letter-spacing="0.0058320444861690085px" oryx:fontSize="11" transform="rotate(0 0 12)" text-anchor="start"/>   </g>     </g></g><g class="children" style="overflow:hidden"/><g class="edge"/><path id="warningId-oryx_9857C9A2-354B-4C30-A131-D3C7FCA374ED" class="validationError" title="" stroke-width="1" stroke="red" fill="white" d="M5,-5 L20,-5 L12,-20 z M12,-15 L12,-10 M12,-9 L12,-7" line-captions="round" style="cursor:pointer" data-html="true" display="none"/></g><g class="controls"><g class="dockers"/><g class="magnets" transform="translate(15, 25)"><g pointer-events="all" display="none" transform="translate(1293480.8467618711, 16)"><circle cx="8" cy="8" r="4" stroke="none" fill="red" fill-opacity="0.3"/></g></g></g></g><g id="svg-text-area1"><g class="stencils" transform="translate(15, 98)"><g class="me"><g oryx:minimumSize="28 50" id="oryx_0FBA79B3-43B8-43D7-A6DE-D9B515DBC594" title="cloud-text-area">   <defs id="oryx_0FBA79B3-43B8-43D7-A6DE-D9B515DBC594_oryx_0FBA79B3-43B8-43D7-A6DE-D9B515DBC594_2">       <radialGradient id="oryx_0FBA79B3-43B8-43D7-A6DE-D9B515DBC594transparent" cx="10%" cy="10%" r="100%" fx="10%" fy="10%">     <stop offset="0%" stop-color="#ffffff" stop-opacity="0" id="oryx_0FBA79B3-43B8-43D7-A6DE-D9B515DBC594_oryx_0FBA79B3-43B8-43D7-A6DE-D9B515DBC594_3"/>     <stop offset="100%" stop-color="#ffffff" stop-opacity="0" id="oryx_0FBA79B3-43B8-43D7-A6DE-D9B515DBC594_oryx_0FBA79B3-43B8-43D7-A6DE-D9B515DBC594_4"/>       </radialGradient>   </defs>      <rect id="oryx_0FBA79B3-43B8-43D7-A6DE-D9B515DBC594bg_frame" oryx:anchors="left top" x="0" y="0" width="969" height="72" stroke="none" fill="url(#oryx_0FBA79B3-43B8-43D7-A6DE-D9B515DBC594transparent)" class="transparent"/>      <g id="oryx_0FBA79B3-43B8-43D7-A6DE-D9B515DBC594a">    <rect id="oryx_0FBA79B3-43B8-43D7-A6DE-D9B515DBC594label" oryx:anchors="left top" x="0" y="0" width="964" height="24" stroke="none" fill="url(#oryx_0FBA79B3-43B8-43D7-A6DE-D9B515DBC594transparent)" class="transparent"/>     <text id="oryx_0FBA79B3-43B8-43D7-A6DE-D9B515DBC594label_text" oryx:anchors="left top" oryx:align="middle left" font-size="11" x="5" y="12" stroke="black" stroke-width="0pt" letter-spacing="0.0022208783618805233px" oryx:fontSize="11" transform="rotate(0 5 12)" text-anchor="start" style="visibility: visible;"><tspan dy="4" x="5" y="12">Additional details</tspan></text>   </g>     <g id="oryx_0FBA79B3-43B8-43D7-A6DE-D9B515DBC594b" stroke="#000000">     <rect id="oryx_0FBA79B3-43B8-43D7-A6DE-D9B515DBC594input" oryx:anchors="left top" fill="#F5F5F5" x="0" y="24" height="48" width="969"/>     <path id="oryx_0FBA79B3-43B8-43D7-A6DE-D9B515DBC594input_dependent" oryx:anchors="left top" d=" M5 29  L23 29  L23 47  L5 47  L5 29  M8 33  L15 33  M11.5 33  L11.5 38  M15 37  L19.5 37  z M7.5 40  L20.5 40  M8 43  L20 43  z" refX="5" refY="5" stroke="black" fill="none" display="none" original-stroke="black" original-fill="none"/>        <text id="oryx_0FBA79B3-43B8-43D7-A6DE-D9B515DBC594input_text" oryx:anchors="left top" oryx:align="top left" font-size="11" x="5" y="42" refX="25" refY="6" stroke="black" fill="gray" font-style="italic" stroke-width="0pt" letter-spacing="0.006101475700270841px" oryx:fontSize="11" transform="rotate(0 5 42)" text-anchor="start"><tspan dy="11" x="5" y="42">{{additionalDetails}}</tspan></text>   </g>      <g id="oryx_0FBA79B3-43B8-43D7-A6DE-D9B515DBC594c" transform="translate(1,8)">    <path id="oryx_0FBA79B3-43B8-43D7-A6DE-D9B515DBC594mandatory_Indicator" oryx:anchors="middle left" d=" m14.30275 17.553035  l-2.49912 0  l-0.77223 2.37422  l-0.77227 -2.37422  l-2.49912 0  l2.02183 -1.46721  l-0.77229 -2.37417  l2.02184 1.46732  l2.02183 -1.46732  l-0.77232 2.37417  l2.02184 1.46721  z" stroke="#ff0000" fill="#ff0000" display="none" style="cursor:pointer" original-stroke="#ff0000" original-fill="#ff0000"/>   </g>     <g id="oryx_0FBA79B3-43B8-43D7-A6DE-D9B515DBC594d">    <path id="oryx_0FBA79B3-43B8-43D7-A6DE-D9B515DBC594feedback_Indicator" oryx:anchors="left top" d="M300,15 320,15 310,0 Z M310 4 L310 10 Z M310 11 L310 13 Z" stroke="black" fill="#ff0000" display="none"/>   </g>      <g id="oryx_0FBA79B3-43B8-43D7-A6DE-D9B515DBC594e">    <rect id="oryx_0FBA79B3-43B8-43D7-A6DE-D9B515DBC594desc" oryx:anchors="left top" stroke="none" fill="url(#oryx_0FBA79B3-43B8-43D7-A6DE-D9B515DBC594transparent)" x="0" y="0" height="24" width="969" display="none" class="transparent"/>    <text id="oryx_0FBA79B3-43B8-43D7-A6DE-D9B515DBC594desc_text" oryx:anchors="left top" oryx:align="middle left" font-size="11" x="0" y="12" stroke="black" fill="gray" font-style="italic" display="none" stroke-width="0pt" letter-spacing="0.009893442526936727px" oryx:fontSize="11" transform="rotate(0 0 12)" text-anchor="start"/>   </g>  </g></g><g class="children" style="overflow:hidden"/><g class="edge"/><path id="warningId-oryx_0FBA79B3-43B8-43D7-A6DE-D9B515DBC594" class="validationError" title="" stroke-width="1" stroke="red" fill="white" d="M5,-5 L20,-5 L12,-20 z M12,-15 L12,-10 M12,-9 L12,-7" line-captions="round" style="cursor:pointer" data-html="true" display="none"/></g><g class="controls"><g class="dockers"/><g class="magnets" transform="translate(15, 98)"><g pointer-events="all" display="none" transform="translate(11365.165112499997, 28)"><circle cx="8" cy="8" r="4" stroke="none" fill="red" fill-opacity="0.3"/></g></g></g></g></g><g class="edge"/><g class="panelcell" display="none" transform="translate(0, 77)"><rect x="0" y="0" stroke-width="2" stroke="#00FF00" fill="none" pointer-events="none" width="999.0000000000001" height="21"/></g><path id="warningId-oryx_077A97E4-3BEB-4615-A566-A51826A57B4A" class="validationError" title="" stroke-width="1" stroke="red" fill="white" d="M5,-5 L20,-5 L12,-20 z M12,-15 L12,-10 M12,-9 L12,-7" line-captions="round" style="cursor:pointer" data-html="true" display="none"/></g><g class="controls"><g class="dockers"/><g class="magnets" transform="translate(50, 50)"><g pointer-events="all" display="none" transform="translate(491.5000000000004, 89.5)"><circle cx="8" cy="8" r="4" stroke="none" fill="red" fill-opacity="0.3"/></g></g></g></g></g><g class="edge"/></g></g></svg>