<svg xmlns="http://www.w3.org/2000/svg" xmlns:oryx="http://oryx-editor.org" id="oryx_C2C2D919-F126-4086-BBCD-4128E00B17E5" width="1049" height="172" xmlns:xlink="http://www.w3.org/1999/xlink" xmlns:svg="http://www.w3.org/2000/svg"><defs/><g stroke="black" font-family="arial,sans-serif" font-size-adjust="none" font-style="normal" font-variant="normal" font-weight="normal" line-heigth="normal" font-size="12"><g class="stencils" transform="translate(-25, -25)"><g class="me"/><g class="children"><g id="svg-panel1"><g class="stencils" transform="translate(50, 50)"><g class="me"><g oryx:minimumSize="40 34" id="oryx_195FD82E-ED61-4342-97CB-4777AB847A5C" title="SlotPanel">     <rect id="oryx_195FD82E-ED61-4342-97CB-4777AB847A5Cinput" oryx:anchors="left top" oryx:resize="vertical horizontal" x="0" y="0" width="999.0000000000001" height="122" stroke="#777777" stroke-width="1" fill="#ffffff"/>   </g></g><g class="background"><g class="cellBg" display="inherit" transform="translate(11, 21)"><rect x="0" y="0" stroke-width="2" stroke="none" fill="#ffffff" pointer-events="all" width="239" height="80"/></g><g class="cellBg" display="inherit" transform="translate(11, 21)"><rect x="0" y="0" stroke-width="2" stroke="none" fill="#ffffff" pointer-events="all" width="239" height="80"/></g><g class="cellBg" display="inherit" transform="translate(257, 21)"><rect x="0" y="0" stroke-width="2" stroke="none" fill="#ffffff" pointer-events="all" width="731" height="80"/></g><g class="cellBg" display="inherit" transform="translate(257, 21)"><rect x="0" y="0" stroke-width="2" stroke="none" fill="#ffffff" pointer-events="all" width="731" height="80"/></g><g class="cellBg" display="inherit" transform="translate(257, 21)"><rect x="0" y="0" stroke-width="2" stroke="none" fill="#ffffff" pointer-events="all" width="731" height="80"/></g><g class="cellBg" display="inherit" transform="translate(257, 21)"><rect x="0" y="0" stroke-width="2" stroke="none" fill="#ffffff" pointer-events="all" width="731" height="80"/></g><g class="cellBg" display="inherit" transform="translate(257, 21)"><rect x="0" y="0" stroke-width="2" stroke="none" fill="#ffffff" pointer-events="all" width="731" height="80"/></g><g class="cellBg" display="inherit" transform="translate(257, 21)"><rect x="0" y="0" stroke-width="2" stroke="none" fill="#ffffff" pointer-events="all" width="731" height="80"/></g><g class="cellBg" display="inherit" transform="translate(257, 21)"><rect x="0" y="0" stroke-width="2" stroke="none" fill="#ffffff" pointer-events="all" width="731" height="80"/></g><g class="cellBg" display="inherit" transform="translate(257, 21)"><rect x="0" y="0" stroke-width="2" stroke="none" fill="#ffffff" pointer-events="all" width="731" height="80"/></g><g class="cellBg" display="inherit" transform="translate(257, 21)"><rect x="0" y="0" stroke-width="2" stroke="none" fill="#ffffff" pointer-events="all" width="731" height="80"/></g><g class="cellBg" display="inherit" transform="translate(11, 21)"><rect x="0" y="0" stroke-width="2" stroke="none" fill="#ffffff" pointer-events="all" width="239" height="80"/></g><g class="columnBackground split" display="none"><rect x="0" y="0" stroke="none" fill="#ffffff" pointer-events="none"/></g></g><g class="gridline"><g class="panelgridline" display="inherit"><path stroke-width="1" stroke="silver" fill="none" stroke-dasharray="4,2" pointer-events="none" d="M0 21 L 999.0000000000001 21"/></g><g class="panelgridline" display="inherit"><path stroke-width="1" stroke="silver" fill="none" stroke-dasharray="4,2" pointer-events="none" d="M0 101 L 999.0000000000001 101"/></g><g class="panelgridline" display="inherit"><path stroke-width="1" stroke="silver" fill="none" stroke-dasharray="4,2" pointer-events="none" d="M913 0 L 913 122"/></g><g class="panelgridline" display="inherit"><path stroke-width="1" stroke="silver" fill="none" stroke-dasharray="4,2" pointer-events="none" d="M988 0 L 988 122"/></g><g class="panelgridline" display="inherit"><path stroke-width="1" stroke="silver" fill="none" stroke-dasharray="4,2" pointer-events="none" d="M831 0 L 831 122"/></g><g class="panelgridline" display="inherit"><path stroke-width="1" stroke="silver" fill="none" stroke-dasharray="4,2" pointer-events="none" d="M906 0 L 906 122"/></g><g class="panelgridline" display="inherit"><path stroke-width="1" stroke="silver" fill="none" stroke-dasharray="4,2" pointer-events="none" d="M749 0 L 749 122"/></g><g class="panelgridline" display="inherit"><path stroke-width="1" stroke="silver" fill="none" stroke-dasharray="4,2" pointer-events="none" d="M824 0 L 824 122"/></g><g class="panelgridline" display="inherit"><path stroke-width="1" stroke="silver" fill="none" stroke-dasharray="4,2" pointer-events="none" d="M667 0 L 667 122"/></g><g class="panelgridline" display="inherit"><path stroke-width="1" stroke="silver" fill="none" stroke-dasharray="4,2" pointer-events="none" d="M742 0 L 742 122"/></g><g class="panelgridline" display="inherit"><path stroke-width="1" stroke="silver" fill="none" stroke-dasharray="4,2" pointer-events="none" d="M585 0 L 585 122"/></g><g class="panelgridline" display="inherit"><path stroke-width="1" stroke="silver" fill="none" stroke-dasharray="4,2" pointer-events="none" d="M660 0 L 660 122"/></g><g class="panelgridline" display="inherit"><path stroke-width="1" stroke="silver" fill="none" stroke-dasharray="4,2" pointer-events="none" d="M503 0 L 503 122"/></g><g class="panelgridline" display="inherit"><path stroke-width="1" stroke="silver" fill="none" stroke-dasharray="4,2" pointer-events="none" d="M578 0 L 578 122"/></g><g class="panelgridline" display="inherit"><path stroke-width="1" stroke="silver" fill="none" stroke-dasharray="4,2" pointer-events="none" d="M421 0 L 421 122"/></g><g class="panelgridline" display="inherit"><path stroke-width="1" stroke="silver" fill="none" stroke-dasharray="4,2" pointer-events="none" d="M496 0 L 496 122"/></g><g class="panelgridline" display="inherit"><path stroke-width="1" stroke="silver" fill="none" stroke-dasharray="4,2" pointer-events="none" d="M339 0 L 339 122"/></g><g class="panelgridline" display="inherit"><path stroke-width="1" stroke="silver" fill="none" stroke-dasharray="4,2" pointer-events="none" d="M414 0 L 414 122"/></g><g class="panelgridline" display="inherit"><path stroke-width="1" stroke="silver" fill="none" stroke-dasharray="4,2" pointer-events="none" d="M257 0 L 257 122"/></g><g class="panelgridline" display="inherit"><path stroke-width="1" stroke="silver" fill="none" stroke-dasharray="4,2" pointer-events="none" d="M332 0 L 332 122"/></g><g class="panelgridline" display="inherit"><path stroke-width="1" stroke="silver" fill="none" stroke-dasharray="4,2" pointer-events="none" d="M175 0 L 175 122"/></g><g class="panelgridline" display="inherit"><path stroke-width="1" stroke="silver" fill="none" stroke-dasharray="4,2" pointer-events="none" d="M250 0 L 250 122"/></g><g class="panelgridline" display="inherit"><path stroke-width="1" stroke="silver" fill="none" stroke-dasharray="4,2" pointer-events="none" d="M93 0 L 93 122"/></g><g class="panelgridline" display="inherit"><path stroke-width="1" stroke="silver" fill="none" stroke-dasharray="4,2" pointer-events="none" d="M168 0 L 168 122"/></g><g class="panelgridline" display="inherit"><path stroke-width="1" stroke="silver" fill="none" stroke-dasharray="4,2" pointer-events="none" d="M11 0 L 11 122"/></g><g class="panelgridline" display="inherit"><path stroke-width="1" stroke="silver" fill="none" stroke-dasharray="4,2" pointer-events="none" d="M86 0 L 86 122"/></g><g class="panelgridline" display="none"><path stroke-width="1" stroke="silver" fill="none" stroke-dasharray="4,2" pointer-events="none"/></g><g class="panelgridline" display="none"><path stroke-width="1" stroke="silver" fill="none" stroke-dasharray="4,2" pointer-events="none"/></g></g><g class="children" style="overflow:hidden"><g id="svg-integer-number1"><g class="stencils" transform="translate(15, 25)"><g class="me"><g oryx:minimumSize="20 26" id="oryx_EC300CFF-2373-4520-B4DD-4E38BD4FF81A" title="cloud-integer-number">   <defs id="oryx_EC300CFF-2373-4520-B4DD-4E38BD4FF81A_oryx_EC300CFF-2373-4520-B4DD-4E38BD4FF81A_2">         <marker id="oryx_EC300CFF-2373-4520-B4DD-4E38BD4FF81Anumber_marker" refX="25" refY="0" markerWidth="24" markerHeight="24">         <path d="M1,32 1,0 M10,21 10,4  M17,21 17,4 Z M5,10 21,10 Z  M5,16 21,16 Z" oryx:anchors="left top" fill="black" id="oryx_EC300CFF-2373-4520-B4DD-4E38BD4FF81A_oryx_EC300CFF-2373-4520-B4DD-4E38BD4FF81A_3"/>      </marker>      <radialGradient id="oryx_EC300CFF-2373-4520-B4DD-4E38BD4FF81Atransparent" cx="10%" cy="10%" r="100%" fx="10%" fy="10%">     <stop offset="0%" stop-color="#ffffff" stop-opacity="0" id="oryx_EC300CFF-2373-4520-B4DD-4E38BD4FF81A_oryx_EC300CFF-2373-4520-B4DD-4E38BD4FF81A_4"/>     <stop offset="100%" stop-color="#ffffff" stop-opacity="0" id="oryx_EC300CFF-2373-4520-B4DD-4E38BD4FF81A_oryx_EC300CFF-2373-4520-B4DD-4E38BD4FF81A_5"/>      </radialGradient>     </defs>     <rect id="oryx_EC300CFF-2373-4520-B4DD-4E38BD4FF81Abg_frame" oryx:anchors="left top" x="0" y="0" width="231" height="48" stroke="none" fill="url(#oryx_EC300CFF-2373-4520-B4DD-4E38BD4FF81Atransparent)" class="transparent"/>    <g id="oryx_EC300CFF-2373-4520-B4DD-4E38BD4FF81Aa">    <rect id="oryx_EC300CFF-2373-4520-B4DD-4E38BD4FF81Alabel" oryx:anchors="left top" x="0" y="0" width="226" height="24" stroke="none" fill="url(#oryx_EC300CFF-2373-4520-B4DD-4E38BD4FF81Atransparent)" class="transparent"/>    <text id="oryx_EC300CFF-2373-4520-B4DD-4E38BD4FF81Alabel_text" oryx:anchors="left top" font-size="11" x="5" y="12" oryx:align="middle left" stroke="black" stroke-width="0pt" letter-spacing="0.0023782438605891368px" oryx:fontSize="11" transform="rotate(0 5 12)" text-anchor="start" style="visibility: visible;"><tspan dy="4" x="5" y="12">Total repaid</tspan></text>   </g>      <g id="oryx_EC300CFF-2373-4520-B4DD-4E38BD4FF81Ab" stroke="#000000">     <path id="oryx_EC300CFF-2373-4520-B4DD-4E38BD4FF81Ainput" oryx:anchors="left top" d=" M230.99999999999994 24  L230.99999999999994 48  L0 48  L0 24  L230.99999999999994 24  z M230.99999999999994 24 " marker-end="url(#oryx_EC300CFF-2373-4520-B4DD-4E38BD4FF81Anumber_marker)" style="fill:white;opacity:0.9999;"/>     <text id="oryx_EC300CFF-2373-4520-B4DD-4E38BD4FF81Ainput_text" oryx:anchors="left top" oryx:align="middle left" font-size="11" x="5" y="36" stroke="black" fill="gray" font-style="italic" stroke-width="0pt" letter-spacing="0.007913256848809867px" oryx:fontSize="11" transform="rotate(0 5 36)" text-anchor="start"><tspan dy="4" x="5" y="36">{{totalRepaid}}</tspan></text>   </g>        <g id="oryx_EC300CFF-2373-4520-B4DD-4E38BD4FF81Ac" transform="translate(1,8)">    <path id="oryx_EC300CFF-2373-4520-B4DD-4E38BD4FF81Amandatory_Indicator" oryx:anchors="middle left" d=" m14.30275 17.553035  l-2.49912 0  l-0.77223 2.37422  l-0.77227 -2.37422  l-2.49912 0  l2.02183 -1.46721  l-0.77229 -2.37417  l2.02184 1.46732  l2.02183 -1.46732  l-0.77232 2.37417  l2.02184 1.46721  z" stroke="#ff0000" fill="#ff0000" display="none" style="cursor:pointer" original-stroke="#ff0000" original-fill="#ff0000"/>   </g>    <g id="oryx_EC300CFF-2373-4520-B4DD-4E38BD4FF81Ad">    <path id="oryx_EC300CFF-2373-4520-B4DD-4E38BD4FF81Afeedback_Indicator" oryx:anchors="left top" d="M300,15 320,15 310,0 Z M310 4 L310 10 Z M310 11 L310 13 Z" stroke="black" fill="#ff0000" display="none"/>   </g>      <g id="oryx_EC300CFF-2373-4520-B4DD-4E38BD4FF81Ae">    <rect id="oryx_EC300CFF-2373-4520-B4DD-4E38BD4FF81Adesc" oryx:anchors="left top" stroke="none" fill="url(#oryx_EC300CFF-2373-4520-B4DD-4E38BD4FF81Atransparent)" x="0" y="0" height="24" width="231" display="none" class="transparent"/>    <text id="oryx_EC300CFF-2373-4520-B4DD-4E38BD4FF81Adesc_text" oryx:anchors="left top" oryx:align="middle left" font-size="11" x="0" y="12" stroke="black" fill="gray" font-style="italic" display="none" stroke-width="0pt" letter-spacing="0.0013922623088724387px" oryx:fontSize="11" transform="rotate(0 0 12)" text-anchor="start"/>   </g>     </g></g><g class="children" style="overflow:hidden"/><g class="edge"/><path id="warningId-oryx_EC300CFF-2373-4520-B4DD-4E38BD4FF81A" class="validationError" title="" stroke-width="1" stroke="red" fill="white" d="M5,-5 L20,-5 L12,-20 z M12,-15 L12,-10 M12,-9 L12,-7" line-captions="round" style="cursor:pointer" data-html="true" display="none"/></g><g class="controls"><g class="dockers"/><g class="magnets" transform="translate(15, 25)"><g pointer-events="all" display="none" transform="translate(178200.52618155887, 16)"><circle cx="8" cy="8" r="4" stroke="none" fill="red" fill-opacity="0.3"/></g></g></g></g><g id="svg-text-area1"><g class="stencils" transform="translate(261, 25)"><g class="me"><g oryx:minimumSize="28 50" id="oryx_A3073C17-949F-4EDC-BF20-B6FEB5BAA8D0" title="cloud-text-area">   <defs id="oryx_A3073C17-949F-4EDC-BF20-B6FEB5BAA8D0_oryx_A3073C17-949F-4EDC-BF20-B6FEB5BAA8D0_2">       <radialGradient id="oryx_A3073C17-949F-4EDC-BF20-B6FEB5BAA8D0transparent" cx="10%" cy="10%" r="100%" fx="10%" fy="10%">     <stop offset="0%" stop-color="#ffffff" stop-opacity="0" id="oryx_A3073C17-949F-4EDC-BF20-B6FEB5BAA8D0_oryx_A3073C17-949F-4EDC-BF20-B6FEB5BAA8D0_3"/>     <stop offset="100%" stop-color="#ffffff" stop-opacity="0" id="oryx_A3073C17-949F-4EDC-BF20-B6FEB5BAA8D0_oryx_A3073C17-949F-4EDC-BF20-B6FEB5BAA8D0_4"/>       </radialGradient>   </defs>      <rect id="oryx_A3073C17-949F-4EDC-BF20-B6FEB5BAA8D0bg_frame" oryx:anchors="left top" x="0" y="0" width="723" height="72" stroke="none" fill="url(#oryx_A3073C17-949F-4EDC-BF20-B6FEB5BAA8D0transparent)" class="transparent"/>      <g id="oryx_A3073C17-949F-4EDC-BF20-B6FEB5BAA8D0a">    <rect id="oryx_A3073C17-949F-4EDC-BF20-B6FEB5BAA8D0label" oryx:anchors="left top" x="0" y="0" width="718" height="24" stroke="none" fill="url(#oryx_A3073C17-949F-4EDC-BF20-B6FEB5BAA8D0transparent)" class="transparent"/>     <text id="oryx_A3073C17-949F-4EDC-BF20-B6FEB5BAA8D0label_text" oryx:anchors="left top" oryx:align="middle left" font-size="11" x="5" y="12" stroke="black" stroke-width="0pt" letter-spacing="0.009800435801838907px" oryx:fontSize="11" transform="rotate(0 5 12)" text-anchor="start" style="visibility: visible;"><tspan dy="4" x="5" y="12">Notes</tspan></text>   </g>     <g id="oryx_A3073C17-949F-4EDC-BF20-B6FEB5BAA8D0b" stroke="#000000">     <rect id="oryx_A3073C17-949F-4EDC-BF20-B6FEB5BAA8D0input" oryx:anchors="left top" fill="#F5F5F5" x="0" y="24" height="48" width="723"/>     <path id="oryx_A3073C17-949F-4EDC-BF20-B6FEB5BAA8D0input_dependent" oryx:anchors="left top" d=" M5 29  L23 29  L23 47  L5 47  L5 29  M8 33  L15 33  M11.5 33  L11.5 38  M15 37  L19.5 37  z M7.5 40  L20.5 40  M8 43  L20 43  z" refX="5" refY="5" stroke="black" fill="none" display="none" original-stroke="black" original-fill="none"/>        <text id="oryx_A3073C17-949F-4EDC-BF20-B6FEB5BAA8D0input_text" oryx:anchors="left top" oryx:align="top left" font-size="11" x="5" y="42" refX="25" refY="6" stroke="black" fill="gray" font-style="italic" stroke-width="0pt" letter-spacing="0.0012546683905528958px" oryx:fontSize="11" transform="rotate(0 5 42)" text-anchor="start"><tspan dy="11" x="5" y="42">{{notes}}</tspan></text>   </g>      <g id="oryx_A3073C17-949F-4EDC-BF20-B6FEB5BAA8D0c" transform="translate(1,8)">    <path id="oryx_A3073C17-949F-4EDC-BF20-B6FEB5BAA8D0mandatory_Indicator" oryx:anchors="middle left" d=" m14.30275 17.553035  l-2.49912 0  l-0.77223 2.37422  l-0.77227 -2.37422  l-2.49912 0  l2.02183 -1.46721  l-0.77229 -2.37417  l2.02184 1.46732  l2.02183 -1.46732  l-0.77232 2.37417  l2.02184 1.46721  z" stroke="#ff0000" fill="#ff0000" display="none" style="cursor:pointer" original-stroke="#ff0000" original-fill="#ff0000"/>   </g>     <g id="oryx_A3073C17-949F-4EDC-BF20-B6FEB5BAA8D0d">    <path id="oryx_A3073C17-949F-4EDC-BF20-B6FEB5BAA8D0feedback_Indicator" oryx:anchors="left top" d="M300,15 320,15 310,0 Z M310 4 L310 10 Z M310 11 L310 13 Z" stroke="black" fill="#ff0000" display="none"/>   </g>      <g id="oryx_A3073C17-949F-4EDC-BF20-B6FEB5BAA8D0e">    <rect id="oryx_A3073C17-949F-4EDC-BF20-B6FEB5BAA8D0desc" oryx:anchors="left top" stroke="none" fill="url(#oryx_A3073C17-949F-4EDC-BF20-B6FEB5BAA8D0transparent)" x="0" y="0" height="24" width="723" display="none" class="transparent"/>    <text id="oryx_A3073C17-949F-4EDC-BF20-B6FEB5BAA8D0desc_text" oryx:anchors="left top" oryx:align="middle left" font-size="11" x="0" y="12" stroke="black" fill="gray" font-style="italic" display="none" stroke-width="0pt" letter-spacing="0.004787361747943341px" oryx:fontSize="11" transform="rotate(0 0 12)" text-anchor="start"/>   </g>  </g></g><g class="children" style="overflow:hidden"/><g class="edge"/><path id="warningId-oryx_A3073C17-949F-4EDC-BF20-B6FEB5BAA8D0" class="validationError" title="" stroke-width="1" stroke="red" fill="white" d="M5,-5 L20,-5 L12,-20 z M12,-15 L12,-10 M12,-9 L12,-7" line-captions="round" style="cursor:pointer" data-html="true" display="none"/></g><g class="controls"><g class="dockers"/><g class="magnets" transform="translate(261, 25)"><g pointer-events="all" display="none" transform="translate(4896.259609937499, 28)"><circle cx="8" cy="8" r="4" stroke="none" fill="red" fill-opacity="0.3"/></g></g></g></g></g><g class="edge"/><g class="panelcell" display="none" transform="translate(257, 21)"><rect x="0" y="0" stroke-width="2" stroke="#00FF00" fill="none" pointer-events="none" width="731" height="80"/></g><path id="warningId-oryx_195FD82E-ED61-4342-97CB-4777AB847A5C" class="validationError" title="" stroke-width="1" stroke="red" fill="white" d="M5,-5 L20,-5 L12,-20 z M12,-15 L12,-10 M12,-9 L12,-7" line-captions="round" style="cursor:pointer" data-html="true" display="none"/></g><g class="controls"><g class="dockers"/><g class="magnets" transform="translate(50, 50)"><g pointer-events="all" display="none" transform="translate(491.5000000000004, 53)"><circle cx="8" cy="8" r="4" stroke="none" fill="red" fill-opacity="0.3"/></g></g></g></g></g><g class="edge"/></g></g></svg>