<svg xmlns="http://www.w3.org/2000/svg" xmlns:oryx="http://oryx-editor.org" id="oryx_BD472A53-833F-427E-9F50-36C1144C983C" width="1049" height="172" xmlns:xlink="http://www.w3.org/1999/xlink" xmlns:svg="http://www.w3.org/2000/svg"><defs/><g stroke="black" font-family="arial,sans-serif" font-size-adjust="none" font-style="normal" font-variant="normal" font-weight="normal" line-heigth="normal" font-size="12"><g class="stencils" transform="translate(-25, -25)"><g class="me"/><g class="children"><g id="svg-panel1"><g class="stencils" transform="translate(50, 50)"><g class="me"><g oryx:minimumSize="40 34" id="oryx_10173EAC-724F-4B01-9EA1-A77273ABF126" title="SlotPanel">     <rect id="oryx_10173EAC-724F-4B01-9EA1-A77273ABF126input" oryx:anchors="left top" oryx:resize="vertical horizontal" x="0" y="0" width="999.0000000000001" height="122" stroke="#777777" stroke-width="1" fill="#ffffff"/>   </g></g><g class="background"><g class="cellBg" display="inherit" transform="translate(11, 21)"><rect x="0" y="0" stroke-width="2" stroke="none" fill="#ffffff" pointer-events="all" width="485" height="80"/></g><g class="cellBg" display="inherit" transform="translate(11, 21)"><rect x="0" y="0" stroke-width="2" stroke="none" fill="#ffffff" pointer-events="all" width="485" height="80"/></g><g class="cellBg" display="inherit" transform="translate(11, 21)"><rect x="0" y="0" stroke-width="2" stroke="none" fill="#ffffff" pointer-events="all" width="485" height="80"/></g><g class="cellBg" display="inherit" transform="translate(503, 21)"><rect x="0" y="0" stroke-width="2" stroke="none" fill="#ffffff" pointer-events="all" width="485" height="80"/></g><g class="cellBg" display="inherit" transform="translate(503, 21)"><rect x="0" y="0" stroke-width="2" stroke="none" fill="#ffffff" pointer-events="all" width="485" height="80"/></g><g class="cellBg" display="inherit" transform="translate(503, 21)"><rect x="0" y="0" stroke-width="2" stroke="none" fill="#ffffff" pointer-events="all" width="485" height="80"/></g><g class="cellBg" display="inherit" transform="translate(503, 21)"><rect x="0" y="0" stroke-width="2" stroke="none" fill="#ffffff" pointer-events="all" width="485" height="80"/></g><g class="cellBg" display="inherit" transform="translate(503, 21)"><rect x="0" y="0" stroke-width="2" stroke="none" fill="#ffffff" pointer-events="all" width="485" height="80"/></g><g class="cellBg" display="inherit" transform="translate(503, 21)"><rect x="0" y="0" stroke-width="2" stroke="none" fill="#ffffff" pointer-events="all" width="485" height="80"/></g><g class="cellBg" display="inherit" transform="translate(11, 21)"><rect x="0" y="0" stroke-width="2" stroke="none" fill="#ffffff" pointer-events="all" width="485" height="80"/></g><g class="cellBg" display="inherit" transform="translate(11, 21)"><rect x="0" y="0" stroke-width="2" stroke="none" fill="#ffffff" pointer-events="all" width="485" height="80"/></g><g class="cellBg" display="inherit" transform="translate(11, 21)"><rect x="0" y="0" stroke-width="2" stroke="none" fill="#ffffff" pointer-events="all" width="485" height="80"/></g><g class="columnBackground split" display="none"><rect x="0" y="0" stroke="none" fill="#ffffff" pointer-events="none"/></g></g><g class="gridline"><g class="panelgridline" display="inherit"><path stroke-width="1" stroke="silver" fill="none" stroke-dasharray="4,2" pointer-events="none" d="M0 21 L 999.0000000000001 21"/></g><g class="panelgridline" display="inherit"><path stroke-width="1" stroke="silver" fill="none" stroke-dasharray="4,2" pointer-events="none" d="M0 101 L 999.0000000000001 101"/></g><g class="panelgridline" display="inherit"><path stroke-width="1" stroke="silver" fill="none" stroke-dasharray="4,2" pointer-events="none" d="M913 0 L 913 122"/></g><g class="panelgridline" display="inherit"><path stroke-width="1" stroke="silver" fill="none" stroke-dasharray="4,2" pointer-events="none" d="M988 0 L 988 122"/></g><g class="panelgridline" display="inherit"><path stroke-width="1" stroke="silver" fill="none" stroke-dasharray="4,2" pointer-events="none" d="M831 0 L 831 122"/></g><g class="panelgridline" display="inherit"><path stroke-width="1" stroke="silver" fill="none" stroke-dasharray="4,2" pointer-events="none" d="M906 0 L 906 122"/></g><g class="panelgridline" display="inherit"><path stroke-width="1" stroke="silver" fill="none" stroke-dasharray="4,2" pointer-events="none" d="M749 0 L 749 122"/></g><g class="panelgridline" display="inherit"><path stroke-width="1" stroke="silver" fill="none" stroke-dasharray="4,2" pointer-events="none" d="M824 0 L 824 122"/></g><g class="panelgridline" display="inherit"><path stroke-width="1" stroke="silver" fill="none" stroke-dasharray="4,2" pointer-events="none" d="M667 0 L 667 122"/></g><g class="panelgridline" display="inherit"><path stroke-width="1" stroke="silver" fill="none" stroke-dasharray="4,2" pointer-events="none" d="M742 0 L 742 122"/></g><g class="panelgridline" display="inherit"><path stroke-width="1" stroke="silver" fill="none" stroke-dasharray="4,2" pointer-events="none" d="M585 0 L 585 122"/></g><g class="panelgridline" display="inherit"><path stroke-width="1" stroke="silver" fill="none" stroke-dasharray="4,2" pointer-events="none" d="M660 0 L 660 122"/></g><g class="panelgridline" display="inherit"><path stroke-width="1" stroke="silver" fill="none" stroke-dasharray="4,2" pointer-events="none" d="M503 0 L 503 122"/></g><g class="panelgridline" display="inherit"><path stroke-width="1" stroke="silver" fill="none" stroke-dasharray="4,2" pointer-events="none" d="M578 0 L 578 122"/></g><g class="panelgridline" display="inherit"><path stroke-width="1" stroke="silver" fill="none" stroke-dasharray="4,2" pointer-events="none" d="M421 0 L 421 122"/></g><g class="panelgridline" display="inherit"><path stroke-width="1" stroke="silver" fill="none" stroke-dasharray="4,2" pointer-events="none" d="M496 0 L 496 122"/></g><g class="panelgridline" display="inherit"><path stroke-width="1" stroke="silver" fill="none" stroke-dasharray="4,2" pointer-events="none" d="M339 0 L 339 122"/></g><g class="panelgridline" display="inherit"><path stroke-width="1" stroke="silver" fill="none" stroke-dasharray="4,2" pointer-events="none" d="M414 0 L 414 122"/></g><g class="panelgridline" display="inherit"><path stroke-width="1" stroke="silver" fill="none" stroke-dasharray="4,2" pointer-events="none" d="M257 0 L 257 122"/></g><g class="panelgridline" display="inherit"><path stroke-width="1" stroke="silver" fill="none" stroke-dasharray="4,2" pointer-events="none" d="M332 0 L 332 122"/></g><g class="panelgridline" display="inherit"><path stroke-width="1" stroke="silver" fill="none" stroke-dasharray="4,2" pointer-events="none" d="M175 0 L 175 122"/></g><g class="panelgridline" display="inherit"><path stroke-width="1" stroke="silver" fill="none" stroke-dasharray="4,2" pointer-events="none" d="M250 0 L 250 122"/></g><g class="panelgridline" display="inherit"><path stroke-width="1" stroke="silver" fill="none" stroke-dasharray="4,2" pointer-events="none" d="M93 0 L 93 122"/></g><g class="panelgridline" display="inherit"><path stroke-width="1" stroke="silver" fill="none" stroke-dasharray="4,2" pointer-events="none" d="M168 0 L 168 122"/></g><g class="panelgridline" display="inherit"><path stroke-width="1" stroke="silver" fill="none" stroke-dasharray="4,2" pointer-events="none" d="M11 0 L 11 122"/></g><g class="panelgridline" display="inherit"><path stroke-width="1" stroke="silver" fill="none" stroke-dasharray="4,2" pointer-events="none" d="M86 0 L 86 122"/></g><g class="panelgridline" display="none"><path stroke-width="1" stroke="silver" fill="none" stroke-dasharray="4,2" pointer-events="none"/></g><g class="panelgridline" display="none"><path stroke-width="1" stroke="silver" fill="none" stroke-dasharray="4,2" pointer-events="none"/></g></g><g class="children" style="overflow:hidden"><g id="svg-output1"><g class="stencils" transform="translate(15, 25)"><g class="me"><g oryx:minimumSize="28 50" id="oryx_BC29F0E2-442B-4F04-A33F-37F458E006C9" title="cloud-output">   <defs id="oryx_BC29F0E2-442B-4F04-A33F-37F458E006C9_oryx_BC29F0E2-442B-4F04-A33F-37F458E006C9_2">       <radialGradient id="oryx_BC29F0E2-442B-4F04-A33F-37F458E006C9transparent" cx="10%" cy="10%" r="100%" fx="10%" fy="10%">     <stop offset="0%" stop-color="#ffffff" stop-opacity="0" id="oryx_BC29F0E2-442B-4F04-A33F-37F458E006C9_oryx_BC29F0E2-442B-4F04-A33F-37F458E006C9_3"/>     <stop offset="100%" stop-color="#ffffff" stop-opacity="0" id="oryx_BC29F0E2-442B-4F04-A33F-37F458E006C9_oryx_BC29F0E2-442B-4F04-A33F-37F458E006C9_4"/>       </radialGradient>   </defs>      <rect id="oryx_BC29F0E2-442B-4F04-A33F-37F458E006C9bg_frame" oryx:anchors="left top" x="0" y="0" width="477" height="72" stroke="none" fill="url(#oryx_BC29F0E2-442B-4F04-A33F-37F458E006C9transparent)" class="transparent"/>      <g id="oryx_BC29F0E2-442B-4F04-A33F-37F458E006C9a">    <rect id="oryx_BC29F0E2-442B-4F04-A33F-37F458E006C9label" oryx:anchors="left top" x="0" y="0" width="472" height="24" stroke="none" fill="url(#oryx_BC29F0E2-442B-4F04-A33F-37F458E006C9transparent)" class="transparent"/>     <text id="oryx_BC29F0E2-442B-4F04-A33F-37F458E006C9label_text" oryx:anchors="left top" oryx:align="middle left" font-size="11" x="5" y="12" stroke="black" stroke-width="0pt" letter-spacing="0.005035790063389731px" oryx:fontSize="11" transform="rotate(0 5 12)" text-anchor="start"><tspan dy="4" x="5" y="12">Please review</tspan></text>   </g>     <g id="oryx_BC29F0E2-442B-4F04-A33F-37F458E006C9b" stroke="#000000">     <rect id="oryx_BC29F0E2-442B-4F04-A33F-37F458E006C9input" oryx:anchors="left top" fill="#F5F5F5" stroke-dasharray="10,2" x="0" y="24" height="48" width="477"/>     <path id="oryx_BC29F0E2-442B-4F04-A33F-37F458E006C9input_dependent" oryx:anchors="left top" d=" M5 29  L23 29  L23 47  L5 47  L5 29  M8 33  L15 33  M11.5 33  L11.5 38  M15 37  L19.5 37  z M7.5 40  L20.5 40  M8 43  L20 43  z" stroke="black" fill="none" display="inherit" original-stroke="black" original-fill="none"/>        <text id="oryx_BC29F0E2-442B-4F04-A33F-37F458E006C9input_text" oryx:anchors="left top" oryx:align="top left" font-size="11" x="30" y="42" refX="25" refY="6" stroke="black" fill="gray" font-style="italic" stroke-width="0pt" letter-spacing="0.009566417181518247px" oryx:fontSize="11" transform="rotate(0 30 42)" text-anchor="start"><tspan dy="11" x="30" y="42">&lt;p&gt;Is this acceptable documentation for identity verification?&lt;/p&gt;...</tspan></text>   </g>      <g id="oryx_BC29F0E2-442B-4F04-A33F-37F458E006C9c" transform="translate(1,8)">    <path id="oryx_BC29F0E2-442B-4F04-A33F-37F458E006C9mandatory_Indicator" oryx:anchors="middle left" d=" m14.30275 17.553035  l-2.49912 0  l-0.77223 2.37422  l-0.77227 -2.37422  l-2.49912 0  l2.02183 -1.46721  l-0.77229 -2.37417  l2.02184 1.46732  l2.02183 -1.46732  l-0.77232 2.37417  l2.02184 1.46721  z" stroke="#ff0000" fill="#ff0000" display="none" style="cursor:pointer" original-stroke="#ff0000" original-fill="#ff0000"/>   </g>     <g id="oryx_BC29F0E2-442B-4F04-A33F-37F458E006C9d">    <path id="oryx_BC29F0E2-442B-4F04-A33F-37F458E006C9feedback_Indicator" oryx:anchors="left top" d="M300,15 320,15 310,0 Z M310 4 L310 10 Z M310 11 L310 13 Z" stroke="black" fill="#ff0000" display="none"/>   </g>      <g id="oryx_BC29F0E2-442B-4F04-A33F-37F458E006C9e">    <rect id="oryx_BC29F0E2-442B-4F04-A33F-37F458E006C9desc" oryx:anchors="left top" stroke="none" fill="url(#oryx_BC29F0E2-442B-4F04-A33F-37F458E006C9transparent)" x="0" y="0" height="24" width="477" display="none" class="transparent"/>    <text id="oryx_BC29F0E2-442B-4F04-A33F-37F458E006C9desc_text" oryx:anchors="left top" oryx:align="middle left" font-size="11" x="0" y="12" stroke="black" fill="gray" font-style="italic" display="none" stroke-width="0pt" letter-spacing="0.0038192143439717504px" oryx:fontSize="11" transform="rotate(0 0 12)" text-anchor="start"/>   </g>  </g></g><g class="children" style="overflow:hidden"/><g class="edge"/><path id="warningId-oryx_BC29F0E2-442B-4F04-A33F-37F458E006C9" class="validationError" title="" stroke-width="1" stroke="red" fill="white" d="M5,-5 L20,-5 L12,-20 z M12,-15 L12,-10 M12,-9 L12,-7" line-captions="round" style="cursor:pointer" data-html="true" display="none"/></g><g class="controls"><g class="dockers"/><g class="magnets" transform="translate(15, 25)"><g pointer-events="all" display="none" transform="translate(560.8224999999999, 28)"><circle cx="8" cy="8" r="4" stroke="none" fill="red" fill-opacity="0.3"/></g></g></g></g><g id="svg-attachment1"><g class="stencils" transform="translate(507, 25)"><g class="me"><g oryx:minimumSize="24 26" id="oryx_FCCCFD71-18A4-41E1-92CD-FA6B33C6004B" title="cloud-attachment">   <defs id="oryx_FCCCFD71-18A4-41E1-92CD-FA6B33C6004B_oryx_FCCCFD71-18A4-41E1-92CD-FA6B33C6004B_2">       <marker id="oryx_FCCCFD71-18A4-41E1-92CD-FA6B33C6004Barrow" refX="25" refY="0" markerWidth="20" markerHeight="24">         <line x1="0" y1="0" x2="0" y2="24" fill="black" oryx:anchors="left top" id="oryx_FCCCFD71-18A4-41E1-92CD-FA6B33C6004B_oryx_FCCCFD71-18A4-41E1-92CD-FA6B33C6004B_3"/>     <path d="M6,2 6,15 12,21 18,15 18,3 9,3 9,13 12,16 15,13 15,5" stroke-width="1" fill="none" oryx:anchors="left top" id="oryx_FCCCFD71-18A4-41E1-92CD-FA6B33C6004B_oryx_FCCCFD71-18A4-41E1-92CD-FA6B33C6004B_4"/>    </marker>    <radialGradient id="oryx_FCCCFD71-18A4-41E1-92CD-FA6B33C6004Btransparent" cx="10%" cy="10%" r="100%" fx="10%" fy="10%">     <stop offset="0%" stop-color="#ffffff" stop-opacity="0" id="oryx_FCCCFD71-18A4-41E1-92CD-FA6B33C6004B_oryx_FCCCFD71-18A4-41E1-92CD-FA6B33C6004B_5"/>     <stop offset="100%" stop-color="#ffffff" stop-opacity="0" id="oryx_FCCCFD71-18A4-41E1-92CD-FA6B33C6004B_oryx_FCCCFD71-18A4-41E1-92CD-FA6B33C6004B_6"/>       </radialGradient>      </defs>      <rect id="oryx_FCCCFD71-18A4-41E1-92CD-FA6B33C6004Bbg_frame" oryx:anchors="left top" x="0" y="0" width="477" height="48" stroke="none" fill="url(#oryx_FCCCFD71-18A4-41E1-92CD-FA6B33C6004Btransparent)" class="transparent"/>    <g id="oryx_FCCCFD71-18A4-41E1-92CD-FA6B33C6004Ba">    <rect id="oryx_FCCCFD71-18A4-41E1-92CD-FA6B33C6004Blabel" oryx:anchors="left top" x="0" y="0" width="472" height="24" stroke="none" fill="url(#oryx_FCCCFD71-18A4-41E1-92CD-FA6B33C6004Btransparent)" class="transparent"/>    <text id="oryx_FCCCFD71-18A4-41E1-92CD-FA6B33C6004Blabel_text" oryx:anchors="left top" oryx:align="middle left" font-size="11" x="5" y="12" stroke="black" stroke-width="0pt" letter-spacing="0.008831484922936193px" oryx:fontSize="11" transform="rotate(0 5 12)" text-anchor="start"><tspan dy="4" x="5" y="12">Document image</tspan></text>   </g>      <g id="oryx_FCCCFD71-18A4-41E1-92CD-FA6B33C6004Bb" stroke="#000000">       <path id="oryx_FCCCFD71-18A4-41E1-92CD-FA6B33C6004Binput" oryx:anchors="left top" d=" M476.9999999999999 24  L476.9999999999999 48  L0 48  L0 24  L476.9999999999999 24  z M476.9999999999999 24 " fill="none" marker-end="url(#oryx_FCCCFD71-18A4-41E1-92CD-FA6B33C6004Barrow)" style="opacity:0.9999;"/>             <text id="oryx_FCCCFD71-18A4-41E1-92CD-FA6B33C6004Binput_text" oryx:anchors="left top" oryx:align="middle left" font-size="11" x="5" y="36" stroke="black" fill="gray" font-style="italic" stroke-width="0pt" letter-spacing="0.0015034410518265145px" oryx:fontSize="11" transform="rotate(0 5 36)" text-anchor="start"><tspan dy="4" x="5" y="36">{{documentImage}}</tspan></text>      </g>      <g id="oryx_FCCCFD71-18A4-41E1-92CD-FA6B33C6004Bc" transform="translate(1,8)">    <path id="oryx_FCCCFD71-18A4-41E1-92CD-FA6B33C6004Bmandatory_Indicator" oryx:anchors="middle left" d=" m14.30275 21.434447692307693  l-2.49912 0  l-0.77223 2.37422  l-0.77227 -2.37422  l-2.49912 0  l2.02183 -1.46721  l-0.77229 -2.37417  l2.02184 1.46732  l2.02183 -1.46732  l-0.77232 2.37417  l2.02184 1.46721  z" stroke="#ff0000" fill="#ff0000" display="none" style="cursor:pointer" original-stroke="#ff0000" original-fill="#ff0000"/>   </g>      <g id="oryx_FCCCFD71-18A4-41E1-92CD-FA6B33C6004Bd">    <path id="oryx_FCCCFD71-18A4-41E1-92CD-FA6B33C6004Bfeedback_Indicator" oryx:anchors="left top" d="M300,15 320,15 310,0 Z M310 4 L310 10 Z M310 11 L310 13 Z" stroke="black" fill="#ff0000" display="none"/>   </g>        <g id="oryx_FCCCFD71-18A4-41E1-92CD-FA6B33C6004Be">    <rect id="oryx_FCCCFD71-18A4-41E1-92CD-FA6B33C6004Bdesc" oryx:anchors="left top" stroke="none" fill="url(#oryx_FCCCFD71-18A4-41E1-92CD-FA6B33C6004Btransparent)" x="0" y="0" height="24" width="477" display="none" class="transparent"/>    <text id="oryx_FCCCFD71-18A4-41E1-92CD-FA6B33C6004Bdesc_text" oryx:anchors="left top" oryx:align="middle left" font-size="11" x="0" y="12" stroke="black" fill="gray" font-style="italic" display="none" stroke-width="0pt" letter-spacing="0.004514766003369213px" oryx:fontSize="11" transform="rotate(0 0 12)" text-anchor="start"/>   </g>       </g></g><g class="children" style="overflow:hidden"/><g class="edge"/><path id="warningId-oryx_FCCCFD71-18A4-41E1-92CD-FA6B33C6004B" class="validationError" title="" stroke-width="1" stroke="red" fill="white" d="M5,-5 L20,-5 L12,-20 z M12,-15 L12,-10 M12,-9 L12,-7" line-captions="round" style="cursor:pointer" data-html="true" display="none"/></g><g class="controls"><g class="dockers"/><g class="magnets" transform="translate(507, 25)"><g pointer-events="all" display="none" transform="translate(230.49999999999991, 16)"><circle cx="8" cy="8" r="4" stroke="none" fill="red" fill-opacity="0.3"/></g></g></g></g></g><g class="edge"/><g class="panelcell" display="none" transform="translate(503, 21)"><rect x="0" y="0" stroke-width="2" stroke="#FF0000" fill="none" pointer-events="none" width="485" height="80"/></g><path id="warningId-oryx_10173EAC-724F-4B01-9EA1-A77273ABF126" class="validationError" title="" stroke-width="1" stroke="red" fill="white" d="M5,-5 L20,-5 L12,-20 z M12,-15 L12,-10 M12,-9 L12,-7" line-captions="round" style="cursor:pointer" data-html="true" display="none"/></g><g class="controls"><g class="dockers"/><g class="magnets" transform="translate(50, 50)"><g pointer-events="all" display="none" transform="translate(491.50000000000017, 53)"><circle cx="8" cy="8" r="4" stroke="none" fill="red" fill-opacity="0.3"/></g></g></g></g></g><g class="edge"/></g></g></svg>