<svg xmlns="http://www.w3.org/2000/svg" xmlns:oryx="http://oryx-editor.org" id="oryx_B7752646-39BA-475A-8B3E-368A831B9C66" width="1049" height="148" xmlns:xlink="http://www.w3.org/1999/xlink" xmlns:svg="http://www.w3.org/2000/svg"><defs/><g stroke="black" font-family="arial,sans-serif" font-size-adjust="none" font-style="normal" font-variant="normal" font-weight="normal" line-heigth="normal" font-size="12"><g class="stencils" transform="translate(-25, -25)"><g class="me"/><g class="children"><g id="svg-panel1"><g class="stencils" transform="translate(50, 50)"><g class="me"><g oryx:minimumSize="40 34" id="oryx_5891E982-F427-4308-9C21-95D9F2144E30" title="SlotPanel">     <rect id="oryx_5891E982-F427-4308-9C21-95D9F2144E30input" oryx:anchors="left top" oryx:resize="vertical horizontal" x="0" y="0" width="999.0000000000001" height="98" stroke="#777777" stroke-width="1" fill="#ffffff"/>   </g></g><g class="background"><g class="cellBg" display="inherit" transform="translate(11, 21)"><rect x="0" y="0" stroke-width="2" stroke="none" fill="#ffffff" pointer-events="all" width="485" height="56"/></g><g class="cellBg" display="inherit" transform="translate(11, 21)"><rect x="0" y="0" stroke-width="2" stroke="none" fill="#ffffff" pointer-events="all" width="485" height="56"/></g><g class="cellBg" display="inherit" transform="translate(11, 21)"><rect x="0" y="0" stroke-width="2" stroke="none" fill="#ffffff" pointer-events="all" width="485" height="56"/></g><g class="cellBg" display="inherit" transform="translate(503, 21)"><rect x="0" y="0" stroke-width="2" stroke="none" fill="#ffffff" pointer-events="all" width="485" height="56"/></g><g class="cellBg" display="inherit" transform="translate(503, 21)"><rect x="0" y="0" stroke-width="2" stroke="none" fill="#ffffff" pointer-events="all" width="485" height="56"/></g><g class="cellBg" display="inherit" transform="translate(503, 21)"><rect x="0" y="0" stroke-width="2" stroke="none" fill="#ffffff" pointer-events="all" width="485" height="56"/></g><g class="cellBg" display="inherit" transform="translate(503, 21)"><rect x="0" y="0" stroke-width="2" stroke="none" fill="#ffffff" pointer-events="all" width="485" height="56"/></g><g class="cellBg" display="inherit" transform="translate(503, 21)"><rect x="0" y="0" stroke-width="2" stroke="none" fill="#ffffff" pointer-events="all" width="485" height="56"/></g><g class="cellBg" display="inherit" transform="translate(503, 21)"><rect x="0" y="0" stroke-width="2" stroke="none" fill="#ffffff" pointer-events="all" width="485" height="56"/></g><g class="cellBg" display="inherit" transform="translate(11, 21)"><rect x="0" y="0" stroke-width="2" stroke="none" fill="#ffffff" pointer-events="all" width="485" height="56"/></g><g class="cellBg" display="inherit" transform="translate(11, 21)"><rect x="0" y="0" stroke-width="2" stroke="none" fill="#ffffff" pointer-events="all" width="485" height="56"/></g><g class="cellBg" display="inherit" transform="translate(11, 21)"><rect x="0" y="0" stroke-width="2" stroke="none" fill="#ffffff" pointer-events="all" width="485" height="56"/></g><g class="columnBackground split" display="none"><rect x="0" y="0" stroke="none" fill="#ffffff" pointer-events="none"/></g></g><g class="gridline"><g class="panelgridline" display="inherit"><path stroke-width="1" stroke="silver" fill="none" stroke-dasharray="4,2" pointer-events="none" d="M0 21 L 999.0000000000001 21"/></g><g class="panelgridline" display="inherit"><path stroke-width="1" stroke="silver" fill="none" stroke-dasharray="4,2" pointer-events="none" d="M0 77 L 999.0000000000001 77"/></g><g class="panelgridline" display="inherit"><path stroke-width="1" stroke="silver" fill="none" stroke-dasharray="4,2" pointer-events="none" d="M913 0 L 913 98"/></g><g class="panelgridline" display="inherit"><path stroke-width="1" stroke="silver" fill="none" stroke-dasharray="4,2" pointer-events="none" d="M988 0 L 988 98"/></g><g class="panelgridline" display="inherit"><path stroke-width="1" stroke="silver" fill="none" stroke-dasharray="4,2" pointer-events="none" d="M831 0 L 831 98"/></g><g class="panelgridline" display="inherit"><path stroke-width="1" stroke="silver" fill="none" stroke-dasharray="4,2" pointer-events="none" d="M906 0 L 906 98"/></g><g class="panelgridline" display="inherit"><path stroke-width="1" stroke="silver" fill="none" stroke-dasharray="4,2" pointer-events="none" d="M749 0 L 749 98"/></g><g class="panelgridline" display="inherit"><path stroke-width="1" stroke="silver" fill="none" stroke-dasharray="4,2" pointer-events="none" d="M824 0 L 824 98"/></g><g class="panelgridline" display="inherit"><path stroke-width="1" stroke="silver" fill="none" stroke-dasharray="4,2" pointer-events="none" d="M667 0 L 667 98"/></g><g class="panelgridline" display="inherit"><path stroke-width="1" stroke="silver" fill="none" stroke-dasharray="4,2" pointer-events="none" d="M742 0 L 742 98"/></g><g class="panelgridline" display="inherit"><path stroke-width="1" stroke="silver" fill="none" stroke-dasharray="4,2" pointer-events="none" d="M585 0 L 585 98"/></g><g class="panelgridline" display="inherit"><path stroke-width="1" stroke="silver" fill="none" stroke-dasharray="4,2" pointer-events="none" d="M660 0 L 660 98"/></g><g class="panelgridline" display="inherit"><path stroke-width="1" stroke="silver" fill="none" stroke-dasharray="4,2" pointer-events="none" d="M503 0 L 503 98"/></g><g class="panelgridline" display="inherit"><path stroke-width="1" stroke="silver" fill="none" stroke-dasharray="4,2" pointer-events="none" d="M578 0 L 578 98"/></g><g class="panelgridline" display="inherit"><path stroke-width="1" stroke="silver" fill="none" stroke-dasharray="4,2" pointer-events="none" d="M421 0 L 421 98"/></g><g class="panelgridline" display="inherit"><path stroke-width="1" stroke="silver" fill="none" stroke-dasharray="4,2" pointer-events="none" d="M496 0 L 496 98"/></g><g class="panelgridline" display="inherit"><path stroke-width="1" stroke="silver" fill="none" stroke-dasharray="4,2" pointer-events="none" d="M339 0 L 339 98"/></g><g class="panelgridline" display="inherit"><path stroke-width="1" stroke="silver" fill="none" stroke-dasharray="4,2" pointer-events="none" d="M414 0 L 414 98"/></g><g class="panelgridline" display="inherit"><path stroke-width="1" stroke="silver" fill="none" stroke-dasharray="4,2" pointer-events="none" d="M257 0 L 257 98"/></g><g class="panelgridline" display="inherit"><path stroke-width="1" stroke="silver" fill="none" stroke-dasharray="4,2" pointer-events="none" d="M332 0 L 332 98"/></g><g class="panelgridline" display="inherit"><path stroke-width="1" stroke="silver" fill="none" stroke-dasharray="4,2" pointer-events="none" d="M175 0 L 175 98"/></g><g class="panelgridline" display="inherit"><path stroke-width="1" stroke="silver" fill="none" stroke-dasharray="4,2" pointer-events="none" d="M250 0 L 250 98"/></g><g class="panelgridline" display="inherit"><path stroke-width="1" stroke="silver" fill="none" stroke-dasharray="4,2" pointer-events="none" d="M93 0 L 93 98"/></g><g class="panelgridline" display="inherit"><path stroke-width="1" stroke="silver" fill="none" stroke-dasharray="4,2" pointer-events="none" d="M168 0 L 168 98"/></g><g class="panelgridline" display="inherit"><path stroke-width="1" stroke="silver" fill="none" stroke-dasharray="4,2" pointer-events="none" d="M11 0 L 11 98"/></g><g class="panelgridline" display="inherit"><path stroke-width="1" stroke="silver" fill="none" stroke-dasharray="4,2" pointer-events="none" d="M86 0 L 86 98"/></g><g class="panelgridline" display="none"><path stroke-width="1" stroke="silver" fill="none" stroke-dasharray="4,2" pointer-events="none"/></g><g class="panelgridline" display="none"><path stroke-width="1" stroke="silver" fill="none" stroke-dasharray="4,2" pointer-events="none"/></g></g><g class="children" style="overflow:hidden"><g id="svg-text1"><g class="stencils" transform="translate(15, 25)"><g class="me"><g oryx:minimumSize="20 26" id="oryx_C84F87FA-528D-429D-A880-977FB34F2FC7" title="cloud-text">   <defs id="oryx_C84F87FA-528D-429D-A880-977FB34F2FC7_oryx_C84F87FA-528D-429D-A880-977FB34F2FC7_2">           <radialGradient id="oryx_C84F87FA-528D-429D-A880-977FB34F2FC7transparent" cx="10%" cy="10%" r="100%" fx="10%" fy="10%">     <stop offset="0%" stop-color="#ffffff" stop-opacity="0" id="oryx_C84F87FA-528D-429D-A880-977FB34F2FC7_oryx_C84F87FA-528D-429D-A880-977FB34F2FC7_3"/>     <stop offset="100%" stop-color="#ffffff" stop-opacity="0" id="oryx_C84F87FA-528D-429D-A880-977FB34F2FC7_oryx_C84F87FA-528D-429D-A880-977FB34F2FC7_4"/>      </radialGradient>     </defs>     <rect id="oryx_C84F87FA-528D-429D-A880-977FB34F2FC7bg_frame" oryx:anchors="left top" x="0" y="0" width="477" height="48" stroke="none" fill="url(#oryx_C84F87FA-528D-429D-A880-977FB34F2FC7transparent)" class="transparent"/>    <g id="oryx_C84F87FA-528D-429D-A880-977FB34F2FC7a">    <rect id="oryx_C84F87FA-528D-429D-A880-977FB34F2FC7label" oryx:anchors="left top" x="0" y="0" width="472" height="24" stroke="none" fill="url(#oryx_C84F87FA-528D-429D-A880-977FB34F2FC7transparent)" class="transparent"/>    <text id="oryx_C84F87FA-528D-429D-A880-977FB34F2FC7label_text" oryx:anchors="left top" font-size="11" x="5" y="12" oryx:align="middle left" stroke="black" stroke-width="0pt" letter-spacing="0.005256394794225984px" oryx:fontSize="11" transform="rotate(0 5 12)" text-anchor="start"><tspan dy="4" x="5" y="12">Staffer name</tspan></text>   </g>      <g id="oryx_C84F87FA-528D-429D-A880-977FB34F2FC7b" stroke="#000000">    <rect id="oryx_C84F87FA-528D-429D-A880-977FB34F2FC7input" oryx:anchors="left top" style="fill:white;" x="0" y="24" height="24" width="477"/>    <text id="oryx_C84F87FA-528D-429D-A880-977FB34F2FC7input_text" oryx:anchors="left top" oryx:align="middle left" font-size="11" x="5" y="36" stroke="black" fill="gray" font-style="italic" stroke-width="0pt" letter-spacing="0.008122469779762158px" oryx:fontSize="11" transform="rotate(0 5 36)" text-anchor="start"><tspan dy="4" x="5" y="36">{{stafferName}}</tspan></text>   </g>        <g id="oryx_C84F87FA-528D-429D-A880-977FB34F2FC7c" transform="translate(1,8)">    <path id="oryx_C84F87FA-528D-429D-A880-977FB34F2FC7mandatory_Indicator" oryx:anchors="middle left" d=" m14.30275 21.434447692307693  l-2.49912 0  l-0.77223 2.37422  l-0.77227 -2.37422  l-2.49912 0  l2.02183 -1.46721  l-0.77229 -2.37417  l2.02184 1.46732  l2.02183 -1.46732  l-0.77232 2.37417  l2.02184 1.46721  z" stroke="#ff0000" fill="#ff0000" display="none" style="cursor:pointer" original-stroke="#ff0000" original-fill="#ff0000"/>   </g>    <g id="oryx_C84F87FA-528D-429D-A880-977FB34F2FC7d">    <path id="oryx_C84F87FA-528D-429D-A880-977FB34F2FC7feedback_Indicator" oryx:anchors="left top" d="M300,15 320,15 310,0 Z M310 4 L310 10 Z M310 11 L310 13 Z" stroke="black" fill="#ff0000" display="none"/>   </g>      <g id="oryx_C84F87FA-528D-429D-A880-977FB34F2FC7e">    <rect id="oryx_C84F87FA-528D-429D-A880-977FB34F2FC7desc" oryx:anchors="left top" stroke="none" fill="url(#oryx_C84F87FA-528D-429D-A880-977FB34F2FC7transparent)" x="0" y="0" height="24" width="477" display="none" class="transparent"/>    <text id="oryx_C84F87FA-528D-429D-A880-977FB34F2FC7desc_text" oryx:anchors="left top" oryx:align="middle left" font-size="11" x="0" y="12" stroke="black" fill="gray" font-style="italic" display="none" stroke-width="0pt" letter-spacing="0.005546635885954375px" oryx:fontSize="11" transform="rotate(0 0 12)" text-anchor="start"/>   </g>     </g></g><g class="children" style="overflow:hidden"/><g class="edge"/><path id="warningId-oryx_C84F87FA-528D-429D-A880-977FB34F2FC7" class="validationError" title="" stroke-width="1" stroke="red" fill="white" d="M5,-5 L20,-5 L12,-20 z M12,-15 L12,-10 M12,-9 L12,-7" line-captions="round" style="cursor:pointer" data-html="true" display="none"/></g><g class="controls"><g class="dockers"/><g class="magnets" transform="translate(15, 25)"><g pointer-events="all" display="none" transform="translate(560.8224999999999, 16)"><circle cx="8" cy="8" r="4" stroke="none" fill="red" fill-opacity="0.3"/></g></g></g></g><g id="svg-single-select1"><g class="stencils" transform="translate(507, 25)"><g class="me"><g oryx:minimumSize="25 26" id="oryx_6981B316-2E7C-4D23-8187-B27FE3876D0F" title="cloud-single-select">   <defs id="oryx_6981B316-2E7C-4D23-8187-B27FE3876D0F_oryx_6981B316-2E7C-4D23-8187-B27FE3876D0F_2">       <marker id="oryx_6981B316-2E7C-4D23-8187-B27FE3876D0Fsearch_marker" refX="25" refY="0" markerWidth="20" markerHeight="24">         <path d="M1 1 L1 23 Z M7 5 A 4 4 0 0 0 16 16 M7 5 A 4 4 0 0 1 16 16 M 16 16 L 22 22 Z M 16 15 L 22 21 Z" oryx:anchors="left top" fill="none" id="oryx_6981B316-2E7C-4D23-8187-B27FE3876D0F_oryx_6981B316-2E7C-4D23-8187-B27FE3876D0F_3"/>    </marker>    <radialGradient id="oryx_6981B316-2E7C-4D23-8187-B27FE3876D0Ftransparent" cx="10%" cy="10%" r="100%" fx="10%" fy="10%">     <stop offset="0%" stop-color="#ffffff" stop-opacity="0" id="oryx_6981B316-2E7C-4D23-8187-B27FE3876D0F_oryx_6981B316-2E7C-4D23-8187-B27FE3876D0F_4"/>     <stop offset="100%" stop-color="#ffffff" stop-opacity="0" id="oryx_6981B316-2E7C-4D23-8187-B27FE3876D0F_oryx_6981B316-2E7C-4D23-8187-B27FE3876D0F_5"/>       </radialGradient>      </defs>      <rect id="oryx_6981B316-2E7C-4D23-8187-B27FE3876D0Fbg_frame" oryx:anchors="left top" x="0" y="0" width="477" height="48" stroke="none" fill="url(#oryx_6981B316-2E7C-4D23-8187-B27FE3876D0Ftransparent)" class="transparent"/>    <g id="oryx_6981B316-2E7C-4D23-8187-B27FE3876D0Fa">    <rect id="oryx_6981B316-2E7C-4D23-8187-B27FE3876D0Flabel" oryx:anchors="left top" x="0" y="0" width="472" height="24" stroke="none" fill="url(#oryx_6981B316-2E7C-4D23-8187-B27FE3876D0Ftransparent)" class="transparent"/>    <text id="oryx_6981B316-2E7C-4D23-8187-B27FE3876D0Flabel_text" oryx:anchors="left top" oryx:align="middle left" font-size="11" x="5" y="12" stroke="black" stroke-width="0pt" letter-spacing="0.004498546062831555px" oryx:fontSize="11" transform="rotate(0 5 12)" text-anchor="start"><tspan dy="4" x="5" y="12">Style</tspan></text>   </g>      <g id="oryx_6981B316-2E7C-4D23-8187-B27FE3876D0Fb">       <path id="oryx_6981B316-2E7C-4D23-8187-B27FE3876D0Finput" oryx:anchors="left top" d=" M476.9999999999999 24  L476.9999999999999 48  L0 48  L0 24  L476.9999999999999 24  z" marker-end="url(#oryx_6981B316-2E7C-4D23-8187-B27FE3876D0Fsearch_marker)" fill="none" style="opacity:0.9999;"/>             <text id="oryx_6981B316-2E7C-4D23-8187-B27FE3876D0Finput_text" oryx:anchors="left top" oryx:align="middle left" font-size="11" x="5" y="36" stroke="black" fill="gray" font-style="italic" stroke-width="0pt" letter-spacing="0.0002762567105505154px" oryx:fontSize="11" transform="rotate(0 5 36)" text-anchor="start"><tspan dy="4" x="5" y="36">{{style}}</tspan></text>   </g>      <g id="oryx_6981B316-2E7C-4D23-8187-B27FE3876D0Fc" transform="translate(1,8)">    <path id="oryx_6981B316-2E7C-4D23-8187-B27FE3876D0Fmandatory_Indicator" oryx:anchors="middle left" d=" m14.30275 21.434447692307693  l-2.49912 0  l-0.77223 2.37422  l-0.77227 -2.37422  l-2.49912 0  l2.02183 -1.46721  l-0.77229 -2.37417  l2.02184 1.46732  l2.02183 -1.46732  l-0.77232 2.37417  l2.02184 1.46721  z" stroke="#ff0000" fill="#ff0000" display="none" style="cursor:pointer" original-stroke="#ff0000" original-fill="#ff0000"/>   </g>      <g id="oryx_6981B316-2E7C-4D23-8187-B27FE3876D0Fd">    <path id="oryx_6981B316-2E7C-4D23-8187-B27FE3876D0Ffeedback_Indicator" oryx:anchors="left top" d="M300,15 320,15 310,0 Z M310 4 L310 10 Z M310 11 L310 13 Z" stroke="black" fill="#ff0000" display="none"/>   </g>        <g id="oryx_6981B316-2E7C-4D23-8187-B27FE3876D0Fe">    <rect id="oryx_6981B316-2E7C-4D23-8187-B27FE3876D0Fdesc" oryx:anchors="left top" stroke="none" fill="url(#oryx_6981B316-2E7C-4D23-8187-B27FE3876D0Ftransparent)" x="0" y="0" height="24" width="477" display="none" class="transparent"/>    <text id="oryx_6981B316-2E7C-4D23-8187-B27FE3876D0Fdesc_text" oryx:anchors="left top" oryx:align="middle left" font-size="11" x="0" y="12" stroke="black" fill="gray" font-style="italic" display="none" stroke-width="0pt" letter-spacing="0.00918637510466279px" oryx:fontSize="11" transform="rotate(0 0 12)" text-anchor="start"/>   </g>       </g></g><g class="children" style="overflow:hidden"/><g class="edge"/><path id="warningId-oryx_6981B316-2E7C-4D23-8187-B27FE3876D0F" class="validationError" title="" stroke-width="1" stroke="red" fill="white" d="M5,-5 L20,-5 L12,-20 z M12,-15 L12,-10 M12,-9 L12,-7" line-captions="round" style="cursor:pointer" data-html="true" display="none"/></g><g class="controls"><g class="dockers"/><g class="magnets" transform="translate(507, 25)"><g pointer-events="all" display="none" transform="translate(560.8224999999999, 16)"><circle cx="8" cy="8" r="4" stroke="none" fill="red" fill-opacity="0.3"/></g></g></g></g></g><g class="edge"/><g class="panelcell" display="none" transform="translate(503, 21)"><rect x="0" y="0" stroke-width="2" stroke="#FF0000" fill="none" pointer-events="none" width="485" height="56"/></g><path id="warningId-oryx_5891E982-F427-4308-9C21-95D9F2144E30" class="validationError" title="" stroke-width="1" stroke="red" fill="white" d="M5,-5 L20,-5 L12,-20 z M12,-15 L12,-10 M12,-9 L12,-7" line-captions="round" style="cursor:pointer" data-html="true" display="none"/></g><g class="controls"><g class="dockers"/><g class="magnets" transform="translate(50, 50)"><g pointer-events="all" display="none" transform="translate(491.50000000000017, 41)"><circle cx="8" cy="8" r="4" stroke="none" fill="red" fill-opacity="0.3"/></g></g></g></g></g><g class="edge"/></g></g></svg>