<svg xmlns="http://www.w3.org/2000/svg" xmlns:oryx="http://oryx-editor.org" id="oryx_3A4EFD99-B932-47E7-B414-ADF59F5EFC7F" width="1049" height="148" xmlns:xlink="http://www.w3.org/1999/xlink" xmlns:svg="http://www.w3.org/2000/svg"><defs/><g stroke="black" font-family="arial,sans-serif" font-size-adjust="none" font-style="normal" font-variant="normal" font-weight="normal" line-heigth="normal" font-size="12"><g class="stencils" transform="translate(-25, -25)"><g class="me"/><g class="children"><g id="svg-panel1"><g class="stencils" transform="translate(50, 50)"><g class="me"><g oryx:minimumSize="40 34" id="oryx_4726FFC4-8873-417D-82E6-79C83C3D8F20" title="SlotPanel">     <rect id="oryx_4726FFC4-8873-417D-82E6-79C83C3D8F20input" oryx:anchors="left top" oryx:resize="vertical horizontal" x="0" y="0" width="999.0000000000001" height="98" stroke="#777777" stroke-width="1" fill="#ffffff"/>   </g></g><g class="background"><g class="cellBg" display="inherit" transform="translate(11, 21)"><rect x="0" y="0" stroke-width="2" stroke="none" fill="#ffffff" pointer-events="all" width="485" height="56"/></g><g class="cellBg" display="inherit" transform="translate(11, 21)"><rect x="0" y="0" stroke-width="2" stroke="none" fill="#ffffff" pointer-events="all" width="485" height="56"/></g><g class="cellBg" display="inherit" transform="translate(11, 21)"><rect x="0" y="0" stroke-width="2" stroke="none" fill="#ffffff" pointer-events="all" width="485" height="56"/></g><g class="cellBg" display="inherit" transform="translate(503, 21)"><rect x="0" y="0" stroke-width="2" stroke="none" fill="#ffffff" pointer-events="all" width="75" height="56"/></g><g class="cellBg" display="inherit" transform="translate(667, 21)"><rect x="0" y="0" stroke-width="2" stroke="none" fill="#ffffff" pointer-events="all" width="75" height="56"/></g><g class="cellBg" display="inherit" transform="translate(831, 21)"><rect x="0" y="0" stroke-width="2" stroke="none" fill="#ffffff" pointer-events="all" width="75" height="56"/></g><g class="cellBg" display="inherit" transform="translate(913, 21)"><rect x="0" y="0" stroke-width="2" stroke="none" fill="#ffffff" pointer-events="all" width="75" height="56"/></g><g class="cellBg" display="inherit" transform="translate(749, 21)"><rect x="0" y="0" stroke-width="2" stroke="none" fill="#ffffff" pointer-events="all" width="75" height="56"/></g><g class="cellBg" display="inherit" transform="translate(585, 21)"><rect x="0" y="0" stroke-width="2" stroke="none" fill="#ffffff" pointer-events="all" width="75" height="56"/></g><g class="cellBg" display="inherit" transform="translate(11, 21)"><rect x="0" y="0" stroke-width="2" stroke="none" fill="#ffffff" pointer-events="all" width="485" height="56"/></g><g class="cellBg" display="inherit" transform="translate(11, 21)"><rect x="0" y="0" stroke-width="2" stroke="none" fill="#ffffff" pointer-events="all" width="485" height="56"/></g><g class="cellBg" display="inherit" transform="translate(11, 21)"><rect x="0" y="0" stroke-width="2" stroke="none" fill="#ffffff" pointer-events="all" width="485" height="56"/></g><g class="columnBackground split" display="none"><rect x="0" y="0" stroke="none" fill="#ffffff" pointer-events="none"/></g></g><g class="gridline"><g class="panelgridline" display="inherit"><path stroke-width="1" stroke="silver" fill="none" stroke-dasharray="4,2" pointer-events="none" d="M0 21 L 999.0000000000001 21"/></g><g class="panelgridline" display="inherit"><path stroke-width="1" stroke="silver" fill="none" stroke-dasharray="4,2" pointer-events="none" d="M0 77 L 999.0000000000001 77"/></g><g class="panelgridline" display="inherit"><path stroke-width="1" stroke="silver" fill="none" stroke-dasharray="4,2" pointer-events="none" d="M913 0 L 913 98"/></g><g class="panelgridline" display="inherit"><path stroke-width="1" stroke="silver" fill="none" stroke-dasharray="4,2" pointer-events="none" d="M988 0 L 988 98"/></g><g class="panelgridline" display="inherit"><path stroke-width="1" stroke="silver" fill="none" stroke-dasharray="4,2" pointer-events="none" d="M831 0 L 831 98"/></g><g class="panelgridline" display="inherit"><path stroke-width="1" stroke="silver" fill="none" stroke-dasharray="4,2" pointer-events="none" d="M906 0 L 906 98"/></g><g class="panelgridline" display="inherit"><path stroke-width="1" stroke="silver" fill="none" stroke-dasharray="4,2" pointer-events="none" d="M749 0 L 749 98"/></g><g class="panelgridline" display="inherit"><path stroke-width="1" stroke="silver" fill="none" stroke-dasharray="4,2" pointer-events="none" d="M824 0 L 824 98"/></g><g class="panelgridline" display="inherit"><path stroke-width="1" stroke="silver" fill="none" stroke-dasharray="4,2" pointer-events="none" d="M667 0 L 667 98"/></g><g class="panelgridline" display="inherit"><path stroke-width="1" stroke="silver" fill="none" stroke-dasharray="4,2" pointer-events="none" d="M742 0 L 742 98"/></g><g class="panelgridline" display="inherit"><path stroke-width="1" stroke="silver" fill="none" stroke-dasharray="4,2" pointer-events="none" d="M585 0 L 585 98"/></g><g class="panelgridline" display="inherit"><path stroke-width="1" stroke="silver" fill="none" stroke-dasharray="4,2" pointer-events="none" d="M660 0 L 660 98"/></g><g class="panelgridline" display="inherit"><path stroke-width="1" stroke="silver" fill="none" stroke-dasharray="4,2" pointer-events="none" d="M503 0 L 503 98"/></g><g class="panelgridline" display="inherit"><path stroke-width="1" stroke="silver" fill="none" stroke-dasharray="4,2" pointer-events="none" d="M578 0 L 578 98"/></g><g class="panelgridline" display="inherit"><path stroke-width="1" stroke="silver" fill="none" stroke-dasharray="4,2" pointer-events="none" d="M421 0 L 421 98"/></g><g class="panelgridline" display="inherit"><path stroke-width="1" stroke="silver" fill="none" stroke-dasharray="4,2" pointer-events="none" d="M496 0 L 496 98"/></g><g class="panelgridline" display="inherit"><path stroke-width="1" stroke="silver" fill="none" stroke-dasharray="4,2" pointer-events="none" d="M339 0 L 339 98"/></g><g class="panelgridline" display="inherit"><path stroke-width="1" stroke="silver" fill="none" stroke-dasharray="4,2" pointer-events="none" d="M414 0 L 414 98"/></g><g class="panelgridline" display="inherit"><path stroke-width="1" stroke="silver" fill="none" stroke-dasharray="4,2" pointer-events="none" d="M257 0 L 257 98"/></g><g class="panelgridline" display="inherit"><path stroke-width="1" stroke="silver" fill="none" stroke-dasharray="4,2" pointer-events="none" d="M332 0 L 332 98"/></g><g class="panelgridline" display="inherit"><path stroke-width="1" stroke="silver" fill="none" stroke-dasharray="4,2" pointer-events="none" d="M175 0 L 175 98"/></g><g class="panelgridline" display="inherit"><path stroke-width="1" stroke="silver" fill="none" stroke-dasharray="4,2" pointer-events="none" d="M250 0 L 250 98"/></g><g class="panelgridline" display="inherit"><path stroke-width="1" stroke="silver" fill="none" stroke-dasharray="4,2" pointer-events="none" d="M93 0 L 93 98"/></g><g class="panelgridline" display="inherit"><path stroke-width="1" stroke="silver" fill="none" stroke-dasharray="4,2" pointer-events="none" d="M168 0 L 168 98"/></g><g class="panelgridline" display="inherit"><path stroke-width="1" stroke="silver" fill="none" stroke-dasharray="4,2" pointer-events="none" d="M11 0 L 11 98"/></g><g class="panelgridline" display="inherit"><path stroke-width="1" stroke="silver" fill="none" stroke-dasharray="4,2" pointer-events="none" d="M86 0 L 86 98"/></g><g class="panelgridline" display="none"><path stroke-width="1" stroke="silver" fill="none" stroke-dasharray="4,2" pointer-events="none"/></g><g class="panelgridline" display="none"><path stroke-width="1" stroke="silver" fill="none" stroke-dasharray="4,2" pointer-events="none"/></g></g><g class="children" style="overflow:hidden"><g id="svg-date1"><g class="stencils" transform="translate(15, 25)"><g class="me"><g oryx:minimumSize="24 26" id="oryx_A483A663-BD59-4D1A-803C-87B77BD51CC7" title="cloud-date">         <defs id="oryx_A483A663-BD59-4D1A-803C-87B77BD51CC7_oryx_A483A663-BD59-4D1A-803C-87B77BD51CC7_2">       <marker id="oryx_A483A663-BD59-4D1A-803C-87B77BD51CC7calendar_marker" refX="25" refY="0" markerWidth="24" markerHeight="24">         <path d="M1,32 1,0  M7,32 7,0  M13,32 13,0  M19,32 19,0 Z  M1,5 25,5 Z M1,10 25,10 Z  M1,15 25,15 Z M1,20 25,20 Z M1,25 25,25 Z" oryx:anchors="left top" fill="black" id="oryx_A483A663-BD59-4D1A-803C-87B77BD51CC7_oryx_A483A663-BD59-4D1A-803C-87B77BD51CC7_3"/>    </marker>    <radialGradient id="oryx_A483A663-BD59-4D1A-803C-87B77BD51CC7transparent" cx="10%" cy="10%" r="100%" fx="10%" fy="10%">     <stop offset="0%" stop-color="#ffffff" stop-opacity="0" id="oryx_A483A663-BD59-4D1A-803C-87B77BD51CC7_oryx_A483A663-BD59-4D1A-803C-87B77BD51CC7_4"/>     <stop offset="100%" stop-color="#ffffff" stop-opacity="0" id="oryx_A483A663-BD59-4D1A-803C-87B77BD51CC7_oryx_A483A663-BD59-4D1A-803C-87B77BD51CC7_5"/>       </radialGradient>      </defs>    <rect id="oryx_A483A663-BD59-4D1A-803C-87B77BD51CC7bg_frame" oryx:anchors="left top" x="0" y="0" width="477" height="48" stroke="none" fill="url(#oryx_A483A663-BD59-4D1A-803C-87B77BD51CC7transparent)" class="transparent"/>     <g id="oryx_A483A663-BD59-4D1A-803C-87B77BD51CC7a">    <rect id="oryx_A483A663-BD59-4D1A-803C-87B77BD51CC7label" oryx:anchors="left top" x="0" y="0" width="472" height="24" stroke="none" fill="url(#oryx_A483A663-BD59-4D1A-803C-87B77BD51CC7transparent)" class="transparent"/>    <text id="oryx_A483A663-BD59-4D1A-803C-87B77BD51CC7label_text" oryx:anchors="left top" oryx:align="middle left" font-size="11" x="5" y="12" stroke="black" stroke-width="0pt" letter-spacing="0.0005142847045431632px" oryx:fontSize="11" transform="rotate(0 5 12)" text-anchor="start"><tspan dy="4" x="5" y="12">Date of marriage</tspan></text>     </g>      <g id="oryx_A483A663-BD59-4D1A-803C-87B77BD51CC7b" stroke="#000000">    <path id="oryx_A483A663-BD59-4D1A-803C-87B77BD51CC7input" oryx:anchors="left top" d=" M476.99999999999994 24  L476.99999999999994 48  L0 48  L0 24  L476.99999999999994 24  z M476.99999999999994 24 " marker-end="url(#oryx_A483A663-BD59-4D1A-803C-87B77BD51CC7calendar_marker)" fill="none" style="opacity:0.9999;"/>          <text id="oryx_A483A663-BD59-4D1A-803C-87B77BD51CC7input_text" oryx:anchors="left top" oryx:align="middle left" font-size="11" x="5" y="36" stroke="black" fill="gray" font-style="italic" stroke-width="0pt" letter-spacing="0.009179876683405799px" oryx:fontSize="11" transform="rotate(0 5 36)" text-anchor="start"><tspan dy="4" x="5" y="36">{{dateOfMarriage}}</tspan></text>   </g>        <g id="oryx_A483A663-BD59-4D1A-803C-87B77BD51CC7c" transform="translate(1,8)">    <path id="oryx_A483A663-BD59-4D1A-803C-87B77BD51CC7mandatory_Indicator" oryx:anchors="middle left" d=" m14.30275 17.553035  l-2.49912 0  l-0.77223 2.37422  l-0.77227 -2.37422  l-2.49912 0  l2.02183 -1.46721  l-0.77229 -2.37417  l2.02184 1.46732  l2.02183 -1.46732  l-0.77232 2.37417  l2.02184 1.46721  z" stroke="#ff0000" fill="#ff0000" display="none" style="cursor:pointer" original-stroke="#ff0000" original-fill="#ff0000"/>   </g>       <g id="oryx_A483A663-BD59-4D1A-803C-87B77BD51CC7d">    <path id="oryx_A483A663-BD59-4D1A-803C-87B77BD51CC7feedback_Indicator" oryx:anchors="left top" d="M300,15 320,15 310,0 Z M310 4 L310 10 Z M310 11 L310 13 Z" stroke="black" fill="#ff0000" display="none"/>   </g>       <g id="oryx_A483A663-BD59-4D1A-803C-87B77BD51CC7e">    <rect id="oryx_A483A663-BD59-4D1A-803C-87B77BD51CC7desc" oryx:anchors="left top" stroke="none" fill="url(#oryx_A483A663-BD59-4D1A-803C-87B77BD51CC7transparent)" x="0" y="0" height="24" width="477" display="none" class="transparent"/>    <text id="oryx_A483A663-BD59-4D1A-803C-87B77BD51CC7desc_text" oryx:anchors="left top" oryx:align="middle left" font-size="11" x="0" y="12" stroke="black" fill="gray" font-style="italic" display="none" stroke-width="0pt" letter-spacing="0.004135620936701894px" oryx:fontSize="11" transform="rotate(0 0 12)" text-anchor="start"/>   </g>    </g></g><g class="children" style="overflow:hidden"/><g class="edge"/><path id="warningId-oryx_A483A663-BD59-4D1A-803C-87B77BD51CC7" class="validationError" title="" stroke-width="1" stroke="red" fill="white" d="M5,-5 L20,-5 L12,-20 z M12,-15 L12,-10 M12,-9 L12,-7" line-captions="round" style="cursor:pointer" data-html="true" display="none"/></g><g class="controls"><g class="dockers"/><g class="magnets" transform="translate(15, 25)"><g pointer-events="all" display="none" transform="translate(1147.5324999999998, 16)"><circle cx="8" cy="8" r="4" stroke="none" fill="red" fill-opacity="0.3"/></g></g></g></g></g><g class="edge"/><g class="panelcell" display="none" transform="translate(11, 21)"><rect x="0" y="0" stroke-width="2" stroke="#00FF00" fill="none" pointer-events="none" width="485" height="56"/></g><path id="warningId-oryx_4726FFC4-8873-417D-82E6-79C83C3D8F20" class="validationError" title="" stroke-width="1" stroke="red" fill="white" d="M5,-5 L20,-5 L12,-20 z M12,-15 L12,-10 M12,-9 L12,-7" line-captions="round" style="cursor:pointer" data-html="true" display="none"/></g><g class="controls"><g class="dockers"/><g class="magnets" transform="translate(50, 50)"><g pointer-events="all" display="none" transform="translate(491.50000000000017, 41)"><circle cx="8" cy="8" r="4" stroke="none" fill="red" fill-opacity="0.3"/></g></g></g></g></g><g class="edge"/></g></g></svg>